<svg xmlns="http://www.w3.org/2000/svg" viewBox="0 0 960 545" role="img" aria-label="График решения задачи Коши">
  <rect width="960" height="545" fill="white"/><defs><clipPath id="plotClip"><rect x="76" y="40" width="850" height="400"/></clipPath></defs>
  <style>text{font-family:Arial,sans-serif;font-size:13px;fill:#526278}.grid{stroke:#e5ecf5;stroke-width:1}</style><path class="grid" d="M76 40V440 M76 440H926"/>
      <text x="76" y="466" text-anchor="middle">1</text>
      <text x="65" y="444" text-anchor="end">-1.033</text><path class="grid" d="M217.66666666666654 40V440 M76 373.3333333333333H926"/>
      <text x="217.66666666666654" y="466" text-anchor="middle">1.083</text>
      <text x="65" y="377.3333333333333" text-anchor="end">-0.967</text><path class="grid" d="M359.3333333333335 40V440 M76 306.66666666666663H926"/>
      <text x="359.3333333333335" y="466" text-anchor="middle">1.167</text>
      <text x="65" y="310.66666666666663" text-anchor="end">-0.9</text><path class="grid" d="M501 40V440 M76 239.99999999999994H926"/>
      <text x="501" y="466" text-anchor="middle">1.25</text>
      <text x="65" y="243.99999999999994" text-anchor="end">-0.833</text><path class="grid" d="M642.6666666666665 40V440 M76 173.33333333333326H926"/>
      <text x="642.6666666666665" y="466" text-anchor="middle">1.333</text>
      <text x="65" y="177.33333333333326" text-anchor="end">-0.767</text><path class="grid" d="M784.3333333333335 40V440 M76 106.66666666666669H926"/>
      <text x="784.3333333333335" y="466" text-anchor="middle">1.417</text>
      <text x="65" y="110.66666666666669" text-anchor="end">-0.7</text><path class="grid" d="M926 40V440 M76 39.999999999999886H926"/>
      <text x="926" y="466" text-anchor="middle">1.5</text>
      <text x="65" y="43.999999999999886" text-anchor="end">-0.633</text><path d="M76 40V440H926" fill="none" stroke="#64748b"/><text x="940" y="444">x</text><text x="65" y="26">y</text><path d="M76.00,406.67 L78.12,405.42 L80.25,404.17 L82.37,402.93 L84.50,401.69 L86.63,400.46 L88.75,399.22 L90.88,397.99 L93.00,396.77 L95.12,395.54 L97.25,394.32 L99.37,393.10 L101.50,391.89 L103.63,390.68 L105.75,389.47 L107.88,388.26 L110.00,387.06 L112.12,385.86 L114.25,384.66 L116.37,383.47 L118.50,382.28 L120.63,381.09 L122.75,379.90 L124.88,378.72 L127.00,377.54 L129.13,376.36 L131.25,375.19 L133.37,374.02 L135.50,372.85 L137.62,371.68 L139.75,370.52 L141.88,369.36 L144.00,368.21 L146.13,367.05 L148.25,365.90 L150.37,364.75 L152.50,363.60 L154.62,362.46 L156.75,361.32 L158.88,360.18 L161.00,359.05 L163.13,357.92 L165.25,356.79 L167.37,355.66 L169.50,354.53 L171.62,353.41 L173.75,352.29 L175.88,351.18 L178.00,350.06 L180.13,348.95 L182.25,347.84 L184.37,346.74 L186.50,345.63 L188.62,344.53 L190.75,343.44 L192.88,342.34 L195.00,341.25 L197.13,340.16 L199.25,339.07 L201.37,337.98 L203.50,336.90 L205.62,335.82 L207.75,334.74 L209.88,333.67 L212.00,332.59 L214.13,331.52 L216.25,330.45 L218.37,329.39 L220.50,328.33 L222.62,327.27 L224.75,326.21 L226.88,325.15 L229.00,324.10 L231.13,323.05 L233.25,322.00 L235.38,320.95 L237.50,319.91 L239.62,318.87 L241.75,317.83 L243.87,316.79 L246.00,315.76 L248.13,314.73 L250.25,313.70 L252.38,312.67 L254.50,311.64 L256.62,310.62 L258.75,309.60 L260.87,308.58 L263.00,307.57 L265.13,306.55 L267.25,305.54 L269.38,304.53 L271.50,303.53 L273.62,302.52 L275.75,301.52 L277.87,300.52 L280.00,299.52 L282.13,298.53 L284.25,297.54 L286.38,296.54 L288.50,295.56 L290.62,294.57 L292.75,293.58 L294.87,292.60 L297.00,291.62 L299.13,290.64 L301.25,289.67 L303.38,288.70 L305.50,287.72 L307.63,286.76 L309.75,285.79 L311.87,284.82 L314.00,283.86 L316.12,282.90 L318.25,281.94 L320.38,280.98 L322.50,280.03 L324.63,279.08 L326.75,278.13 L328.87,277.18 L331.00,276.23 L333.13,275.29 L335.25,274.35 L337.38,273.41 L339.50,272.47 L341.63,271.53 L343.75,270.60 L345.87,269.67 L348.00,268.74 L350.12,267.81 L352.25,266.88 L354.38,265.96 L356.50,265.04 L358.63,264.12 L360.75,263.20 L362.87,262.28 L365.00,261.37 L367.13,260.46 L369.25,259.55 L371.38,258.64 L373.50,257.73 L375.63,256.83 L377.75,255.92 L379.87,255.02 L382.00,254.12 L384.12,253.23 L386.25,252.33 L388.38,251.44 L390.50,250.55 L392.63,249.66 L394.75,248.77 L396.87,247.89 L399.00,247.00 L401.12,246.12 L403.25,245.24 L405.38,244.36 L407.50,243.49 L409.63,242.61 L411.75,241.74 L413.87,240.87 L416.00,240.00 L418.12,239.13 L420.25,238.27 L422.37,237.40 L424.50,236.54 L426.63,235.68 L428.75,234.82 L430.88,233.97 L433.00,233.11 L435.12,232.26 L437.25,231.41 L439.38,230.56 L441.50,229.71 L443.63,228.87 L445.75,228.02 L447.88,227.18 L450.00,226.34 L452.12,225.50 L454.25,224.66 L456.37,223.83 L458.50,222.99 L460.63,222.16 L462.75,221.33 L464.88,220.50 L467.00,219.68 L469.12,218.85 L471.25,218.03 L473.38,217.20 L475.50,216.38 L477.63,215.57 L479.75,214.75 L481.88,213.93 L484.00,213.12 L486.12,212.31 L488.25,211.50 L490.37,210.69 L492.50,209.88 L494.63,209.07 L496.75,208.27 L498.88,207.47 L501.00,206.67 L503.12,205.87 L505.25,205.07 L507.37,204.27 L509.50,203.48 L511.63,202.69 L513.75,201.90 L515.88,201.11 L518.00,200.32 L520.13,199.53 L522.25,198.75 L524.37,197.96 L526.50,197.18 L528.62,196.40 L530.75,195.62 L532.88,194.84 L535.00,194.07 L537.13,193.29 L539.25,192.52 L541.37,191.75 L543.50,190.98 L545.63,190.21 L547.75,189.45 L549.88,188.68 L552.00,187.92 L554.13,187.16 L556.25,186.39 L558.37,185.64 L560.50,184.88 L562.62,184.12 L564.75,183.37 L566.88,182.61 L569.00,181.86 L571.13,181.11 L573.25,180.36 L575.38,179.61 L577.50,178.87 L579.63,178.12 L581.75,177.38 L583.88,176.64 L586.00,175.90 L588.13,175.16 L590.25,174.42 L592.37,173.69 L594.50,172.95 L596.62,172.22 L598.75,171.49 L600.88,170.76 L603.00,170.03 L605.13,169.30 L607.25,168.57 L609.38,167.85 L611.50,167.12 L613.62,166.40 L615.75,165.68 L617.88,164.96 L620.00,164.24 L622.13,163.53 L624.25,162.81 L626.38,162.10 L628.50,161.38 L630.62,160.67 L632.75,159.96 L634.87,159.25 L637.00,158.55 L639.13,157.84 L641.25,157.14 L643.38,156.43 L645.50,155.73 L647.62,155.03 L649.75,154.33 L651.88,153.63 L654.00,152.94 L656.13,152.24 L658.25,151.55 L660.38,150.85 L662.50,150.16 L664.62,149.47 L666.75,148.78 L668.87,148.09 L671.00,147.41 L673.13,146.72 L675.25,146.04 L677.38,145.36 L679.50,144.67 L681.62,143.99 L683.75,143.32 L685.88,142.64 L688.00,141.96 L690.13,141.29 L692.25,140.61 L694.38,139.94 L696.50,139.27 L698.62,138.60 L700.75,137.93 L702.87,137.26 L705.00,136.59 L707.13,135.93 L709.25,135.26 L711.38,134.60 L713.50,133.94 L715.63,133.28 L717.75,132.62 L719.87,131.96 L722.00,131.31 L724.13,130.65 L726.25,129.99 L728.38,129.34 L730.50,128.69 L732.63,128.04 L734.75,127.39 L736.87,126.74 L739.00,126.09 L741.12,125.45 L743.25,124.80 L745.38,124.16 L747.50,123.51 L749.63,122.87 L751.75,122.23 L753.87,121.59 L756.00,120.95 L758.13,120.32 L760.25,119.68 L762.38,119.05 L764.50,118.41 L766.63,117.78 L768.75,117.15 L770.87,116.52 L773.00,115.89 L775.12,115.26 L777.25,114.63 L779.38,114.01 L781.50,113.38 L783.63,112.76 L785.75,112.13 L787.87,111.51 L790.00,110.89 L792.13,110.27 L794.25,109.66 L796.38,109.04 L798.50,108.42 L800.63,107.81 L802.75,107.19 L804.87,106.58 L807.00,105.97 L809.12,105.36 L811.25,104.75 L813.38,104.14 L815.50,103.53 L817.63,102.93 L819.75,102.32 L821.88,101.72 L824.00,101.11 L826.12,100.51 L828.25,99.91 L830.38,99.31 L832.50,98.71 L834.63,98.11 L836.75,97.51 L838.88,96.92 L841.00,96.32 L843.12,95.73 L845.25,95.14 L847.37,94.54 L849.50,93.95 L851.63,93.36 L853.75,92.77 L855.88,92.19 L858.00,91.60 L860.12,91.01 L862.25,90.43 L864.38,89.84 L866.50,89.26 L868.63,88.68 L870.75,88.10 L872.88,87.52 L875.00,86.94 L877.12,86.36 L879.25,85.78 L881.37,85.21 L883.50,84.63 L885.63,84.06 L887.75,83.49 L889.88,82.91 L892.00,82.34 L894.12,81.77 L896.25,81.20 L898.38,80.64 L900.50,80.07 L902.63,79.50 L904.75,78.94 L906.88,78.37 L909.00,77.81 L911.12,77.25 L913.25,76.68 L915.37,76.12 L917.50,75.56 L919.63,75.01 L921.75,74.45 L923.88,73.89 L926.00,73.33 " fill="none" stroke="#3d7c55" stroke-width="3.5"  clip-path="url(#plotClip)"/><path d="M76.00,406.67 L76.53,406.36 L77.06,406.04 L77.60,405.73 L78.13,405.42 L78.66,405.11 L79.19,404.80 L79.72,404.48 L80.25,404.17 L80.78,403.86 L81.31,403.55 L81.85,403.24 L82.38,402.93 L82.91,402.62 L83.44,402.31 L83.97,402.00 L84.51,401.69 L85.04,401.38 L85.57,401.07 L86.10,400.76 L86.64,400.45 L87.16,400.14 L87.69,399.83 L88.22,399.53 L88.76,399.22 L89.29,398.91 L89.82,398.60 L90.35,398.30 L90.88,397.99 L91.42,397.68 L91.95,397.37 L92.48,397.07 L93.01,396.76 L93.55,396.45 L94.07,396.15 L94.60,395.84 L95.13,395.54 L95.67,395.23 L96.20,394.92 L96.73,394.62 L97.26,394.31 L97.80,394.01 L98.33,393.70 L98.86,393.40 L99.39,393.10 L99.92,392.79 L100.46,392.48 L100.99,392.18 L101.51,391.88 L102.04,391.58 L102.58,391.27 L103.11,390.97 L103.64,390.67 L104.17,390.37 L104.71,390.06 L105.24,389.76 L105.77,389.46 L106.30,389.16 L106.83,388.86 L107.37,388.55 L107.90,388.25 L108.42,387.95 L108.95,387.65 L109.49,387.35 L110.02,387.05 L110.55,386.75 L111.08,386.45 L111.62,386.14 L112.15,385.84 L112.68,385.55 L113.21,385.25 L113.74,384.95 L114.28,384.65 L114.81,384.35 L115.34,384.05 L115.86,383.75 L116.40,383.45 L116.93,383.15 L117.46,382.86 L117.99,382.56 L118.53,382.26 L119.06,381.96 L119.59,381.67 L120.12,381.37 L120.65,381.08 L121.19,380.77 L121.72,380.48 L122.25,380.18 L122.77,379.89 L123.31,379.59 L123.84,379.29 L124.37,379.00 L124.90,378.71 L125.44,378.41 L125.97,378.11 L126.50,377.82 L127.03,377.52 L127.57,377.23 L128.10,376.93 L128.63,376.64 L129.16,376.35 L129.69,376.05 L130.22,375.76 L130.75,375.46 L131.28,375.17 L131.81,374.88 L132.35,374.58 L132.88,374.29 L133.41,374.00 L133.94,373.71 L134.48,373.41 L135.01,373.12 L135.54,372.83 L136.07,372.54 L136.60,372.25 L137.14,371.95 L137.66,371.66 L138.19,371.37 L138.72,371.08 L139.26,370.79 L139.79,370.50 L140.32,370.21 L140.85,369.92 L141.39,369.63 L141.92,369.34 L142.45,369.05 L142.98,368.76 L143.51,368.47 L144.05,368.18 L144.57,367.89 L145.10,367.60 L145.63,367.32 L146.17,367.02 L146.70,366.74 L147.23,366.45 L147.76,366.16 L148.30,365.87 L148.83,365.59 L149.36,365.30 L149.89,365.01 L150.42,364.73 L150.96,364.44 L151.49,364.15 L152.01,363.87 L152.54,363.58 L153.08,363.29 L153.61,363.01 L154.14,362.72 L154.67,362.44 L155.21,362.15 L155.74,361.86 L156.27,361.58 L156.80,361.29 L157.33,361.01 L157.87,360.72 L158.40,360.44 L158.92,360.16 L159.45,359.87 L159.99,359.58 L160.52,359.30 L161.05,359.02 L161.58,358.74 L162.12,358.45 L162.65,358.17 L163.18,357.89 L163.71,357.60 L164.25,357.32 L164.78,357.04 L165.31,356.76 L165.84,356.47 L166.36,356.19 L166.90,355.91 L167.43,355.63 L167.96,355.35 L168.49,355.07 L169.03,354.78 L169.56,354.50 L170.09,354.22 L170.62,353.94 L171.16,353.66 L171.69,353.38 L172.22,353.10 L172.75,352.82 L173.27,352.54 L173.81,352.26 L174.34,351.98 L174.87,351.70 L175.40,351.42 L175.94,351.14 L176.47,350.86 L177.00,350.59 L177.53,350.31 L178.07,350.03 L178.60,349.75 L179.13,349.47 L179.66,349.20 L180.19,348.92 L180.72,348.64 L181.25,348.36 L181.78,348.09 L182.31,347.81 L182.85,347.53 L183.38,347.25 L183.91,346.98 L184.44,346.70 L184.98,346.42 L185.51,346.15 L186.04,345.87 L186.57,345.60 L187.10,345.32 L187.64,345.05 L188.16,344.77 L188.69,344.50 L189.22,344.22 L189.76,343.94 L190.29,343.67 L190.82,343.40 L191.35,343.13 L191.89,342.85 L192.42,342.57 L192.95,342.30 L193.48,342.03 L194.02,341.75 L194.55,341.48 L195.07,341.21 L195.60,340.94 L196.13,340.66 L196.67,340.39 L197.20,340.12 L197.73,339.84 L198.26,339.57 L198.80,339.30 L199.33,339.03 L199.86,338.76 L200.39,338.49 L200.93,338.21 L201.46,337.94 L201.99,337.67 L202.51,337.40 L203.04,337.13 L203.58,336.86 L204.11,336.59 L204.64,336.32 L205.17,336.05 L205.71,335.78 L206.24,335.51 L206.77,335.24 L207.30,334.97 L207.84,334.70 L208.37,334.43 L208.90,334.16 L209.42,333.89 L209.95,333.63 L210.49,333.35 L211.02,333.09 L211.55,332.82 L212.08,332.55 L212.62,332.28 L213.15,332.01 L213.68,331.75 L214.21,331.48 L214.75,331.21 L215.28,330.94 L215.81,330.68 L216.34,330.41 L216.86,330.15 L217.40,329.88 L217.93,329.61 L218.46,329.34 L218.99,329.08 L219.53,328.81 L220.06,328.55 L220.59,328.28 L221.12,328.02 L221.66,327.75 L222.19,327.48 L222.72,327.22 L223.25,326.96 L223.79,326.69 L224.31,326.42 L224.84,326.16 L225.37,325.90 L225.90,325.63 L226.44,325.37 L226.97,325.10 L227.50,324.84 L228.03,324.58 L228.57,324.31 L229.10,324.05 L229.63,323.79 L230.16,323.53 L230.70,323.26 L231.22,323.00 L231.75,322.74 L232.28,322.48 L232.81,322.21 L233.35,321.95 L233.88,321.69 L234.41,321.43 L234.94,321.17 L235.48,320.90 L236.01,320.64 L236.54,320.38 L237.07,320.12 L237.61,319.86 L238.14,319.60 L238.66,319.34 L239.19,319.08 L239.72,318.82 L240.26,318.56 L240.79,318.30 L241.32,318.04 L241.85,317.78 L242.39,317.52 L242.92,317.26 L243.45,317.00 L243.98,316.74 L244.52,316.48 L245.05,316.22 L245.57,315.96 L246.10,315.71 L246.63,315.45 L247.17,315.19 L247.70,314.93 L248.23,314.67 L248.76,314.42 L249.30,314.16 L249.83,313.90 L250.36,313.64 L250.89,313.39 L251.43,313.13 L251.96,312.87 L252.48,312.62 L253.01,312.36 L253.54,312.10 L254.08,311.84 L254.61,311.59 L255.14,311.34 L255.67,311.08 L256.21,310.82 L256.74,310.57 L257.27,310.31 L257.80,310.06 L258.34,309.80 L258.87,309.55 L259.40,309.29 L259.92,309.04 L260.46,308.78 L260.99,308.53 L261.52,308.27 L262.05,308.02 L262.58,307.77 L263.12,307.51 L263.65,307.26 L264.18,307.00 L264.71,306.75 L265.25,306.50 L265.78,306.24 L266.31,305.99 L266.83,305.74 L267.37,305.48 L267.90,305.23 L268.43,304.98 L268.96,304.73 L269.49,304.48 L270.03,304.22 L270.56,303.97 L271.09,303.72 L271.62,303.47 L272.16,303.22 L272.69,302.97 L273.22,302.72 L273.75,302.47 L274.28,302.21 L274.81,301.96 L275.34,301.71 L275.87,301.46 L276.40,301.21 L276.94,300.96 L277.47,300.71 L278.00,300.46 L278.53,300.21 L279.07,299.96 L279.60,299.71 L280.13,299.46 L280.66,299.22 L281.20,298.96 L281.72,298.72 L282.25,298.47 L282.78,298.22 L283.31,297.97 L283.85,297.72 L284.38,297.47 L284.91,297.23 L285.44,296.98 L285.98,296.73 L286.51,296.48 L287.04,296.24 L287.57,295.99 L288.11,295.74 L288.63,295.49 L289.16,295.25 L289.69,295.00 L290.23,294.75 L290.76,294.51 L291.29,294.26 L291.82,294.01 L292.35,293.77 L292.89,293.52 L293.42,293.28 L293.95,293.03 L294.48,292.79 L295.02,292.54 L295.55,292.29 L296.07,292.05 L296.60,291.80 L297.14,291.56 L297.67,291.31 L298.20,291.07 L298.73,290.83 L299.26,290.58 L299.80,290.33 L300.33,290.09 L300.86,289.85 L301.39,289.61 L301.93,289.36 L302.46,289.12 L302.98,288.87 L303.51,288.63 L304.05,288.38 L304.58,288.14 L305.11,287.90 L305.64,287.66 L306.17,287.42 L306.71,287.17 L307.24,286.93 L307.77,286.69 L308.30,286.45 L308.84,286.20 L309.37,285.96 L309.90,285.72 L310.42,285.48 L310.96,285.24 L311.49,285.00 L312.02,284.76 L312.55,284.52 L313.08,284.28 L313.62,284.03 L314.15,283.79 L314.68,283.55 L315.21,283.31 L315.75,283.07 L316.28,282.83 L316.81,282.59 L317.33,282.35 L317.87,282.11 L318.40,281.87 L318.93,281.63 L319.46,281.39 L319.99,281.16 L320.53,280.91 L321.06,280.68 L321.59,280.44 L322.12,280.20 L322.66,279.96 L323.19,279.72 L323.72,279.48 L324.25,279.25 L324.78,279.00 L325.31,278.77 L325.84,278.53 L326.37,278.29 L326.91,278.05 L327.44,277.82 L327.97,277.58 L328.50,277.35 L329.03,277.11 L329.57,276.87 L330.10,276.63 L330.63,276.40 L331.16,276.16 L331.70,275.92 L332.22,275.69 L332.75,275.45 L333.28,275.22 L333.82,274.98 L334.35,274.74 L334.88,274.51 L335.41,274.27 L335.94,274.04 L336.48,273.80 L337.01,273.57 L337.54,273.33 L338.07,273.10 L338.61,272.86 L339.13,272.63 L339.66,272.40 L340.19,272.16 L340.73,271.92 L341.26,271.69 L341.79,271.46 L342.32,271.23 L342.85,270.99 L343.39,270.76 L343.92,270.52 L344.45,270.29 L344.98,270.06 L345.52,269.82 L346.05,269.59 L346.57,269.36 L347.10,269.13 L347.64,268.89 L348.17,268.66 L348.70,268.43 L349.23,268.20 L349.76,267.97 L350.30,267.73 L350.83,267.50 L351.36,267.27 L351.89,267.04 L352.43,266.80 L352.96,266.57 L353.48,266.34 L354.01,266.11 L354.55,265.88 L355.08,265.65 L355.61,265.42 L356.14,265.19 L356.68,264.96 L357.21,264.73 L357.74,264.50 L358.27,264.27 L358.80,264.04 L359.34,263.81 L359.87,263.58 L360.40,263.35 L360.92,263.12 L361.46,262.89 L361.99,262.66 L362.52,262.43 L363.05,262.21 L363.59,261.97 L364.12,261.75 L364.65,261.52 L365.18,261.29 L365.71,261.06 L366.25,260.83 L366.78,260.60 L367.31,260.38 L367.83,260.15 L368.37,259.92 L368.90,259.69 L369.43,259.47 L369.96,259.24 L370.50,259.01 L371.03,258.78 L371.56,258.56 L372.09,258.33 L372.62,258.11 L373.16,257.88 L373.69,257.65 L374.22,257.43 L374.75,257.20 L375.28,256.97 L375.81,256.75 L376.34,256.52 L376.87,256.30 L377.41,256.07 L377.94,255.84 L378.47,255.62 L379.00,255.39 L379.53,255.17 L380.07,254.94 L380.60,254.72 L381.13,254.49 L381.66,254.27 L382.20,254.04 L382.72,253.82 L383.25,253.59 L383.78,253.37 L384.32,253.14 L384.85,252.92 L385.38,252.70 L385.91,252.48 L386.44,252.25 L386.98,252.03 L387.51,251.80 L388.04,251.58 L388.57,251.36 L389.11,251.13 L389.63,250.91 L390.16,250.69 L390.69,250.47 L391.23,250.24 L391.76,250.02 L392.29,249.80 L392.82,249.58 L393.36,249.35 L393.89,249.13 L394.42,248.91 L394.95,248.69 L395.48,248.47 L396.02,248.24 L396.55,248.02 L397.07,247.80 L397.60,247.58 L398.14,247.36 L398.67,247.14 L399.20,246.92 L399.73,246.70 L400.27,246.48 L400.80,246.26 L401.33,246.04 L401.86,245.82 L402.39,245.60 L402.93,245.37 L403.46,245.16 L403.98,244.94 L404.51,244.72 L405.05,244.50 L405.58,244.28 L406.11,244.06 L406.64,243.84 L407.18,243.62 L407.71,243.40 L408.24,243.18 L408.77,242.96 L409.30,242.75 L409.84,242.53 L410.37,242.31 L410.90,242.09 L411.42,241.87 L411.96,241.65 L412.49,241.43 L413.02,241.22 L413.55,241.00 L414.09,240.78 L414.62,240.56 L415.15,240.35 L415.68,240.13 L416.21,239.92 L416.75,239.69 L417.28,239.48 L417.81,239.26 L418.33,239.05 L418.87,238.83 L419.40,238.61 L419.93,238.40 L420.46,238.18 L421.00,237.96 L421.53,237.75 L422.06,237.53 L422.59,237.32 L423.13,237.10 L423.66,236.88 L424.19,236.67 L424.72,236.45 L425.24,236.24 L425.78,236.02 L426.31,235.81 L426.84,235.59 L427.37,235.38 L427.91,235.16 L428.44,234.95 L428.97,234.74 L429.50,234.52 L430.04,234.30 L430.57,234.09 L431.10,233.88 L431.63,233.67 L432.16,233.45 L432.69,233.24 L433.22,233.02 L433.75,232.81 L434.28,232.60 L434.82,232.38 L435.35,232.17 L435.88,231.96 L436.41,231.75 L436.95,231.53 L437.48,231.32 L438.01,231.11 L438.54,230.89 L439.07,230.68 L439.61,230.47 L440.13,230.26 L440.66,230.05 L441.19,229.83 L441.73,229.62 L442.26,229.41 L442.79,229.20 L443.32,228.99 L443.86,228.77 L444.39,228.56 L444.92,228.35 L445.45,228.14 L445.98,227.93 L446.52,227.72 L447.04,227.51 L447.57,227.30 L448.10,227.09 L448.64,226.88 L449.17,226.67 L449.70,226.46 L450.23,226.25 L450.77,226.03 L451.30,225.83 L451.83,225.62 L452.36,225.41 L452.90,225.20 L453.43,224.99 L453.96,224.78 L454.48,224.57 L455.01,224.36 L455.55,224.15 L456.08,223.94 L456.61,223.73 L457.14,223.53 L457.68,223.31 L458.21,223.11 L458.74,222.90 L459.27,222.69 L459.81,222.48 L460.34,222.27 L460.87,222.07 L461.39,221.86 L461.92,221.65 L462.46,221.44 L462.99,221.24 L463.52,221.03 L464.05,220.82 L464.59,220.61 L465.12,220.41 L465.65,220.20 L466.18,219.99 L466.72,219.78 L467.25,219.58 L467.78,219.37 L468.31,219.17 L468.83,218.96 L469.37,218.75 L469.90,218.55 L470.43,218.34 L470.96,218.14 L471.50,217.93 L472.03,217.72 L472.56,217.52 L473.09,217.31 L473.63,217.11 L474.16,216.90 L474.69,216.70 L475.22,216.49 L475.74,216.29 L476.28,216.08 L476.81,215.88 L477.34,215.67 L477.87,215.47 L478.41,215.26 L478.94,215.06 L479.47,214.85 L480.00,214.65 L480.54,214.44 L481.07,214.24 L481.60,214.04 L482.13,213.84 L482.66,213.63 L483.19,213.43 L483.72,213.22 L484.25,213.02 L484.78,212.82 L485.32,212.61 L485.85,212.41 L486.38,212.21 L486.91,212.01 L487.45,211.80 L487.98,211.60 L488.51,211.40 L489.04,211.20 L489.58,210.99 L490.11,210.79 L490.63,210.59 L491.16,210.39 L491.69,210.19 L492.23,209.98 L492.76,209.78 L493.29,209.58 L493.82,209.38 L494.36,209.17 L494.89,208.97 L495.42,208.77 L495.95,208.57 L496.49,208.37 L497.02,208.17 L497.54,207.97 L498.07,207.77 L498.60,207.57 L499.14,207.37 L499.67,207.17 L500.20,206.97 L500.73,206.77 L501.27,206.56 L501.80,206.37 L502.33,206.17 L502.86,205.97 L503.40,205.77 L503.93,205.57 L504.46,205.37 L504.98,205.17 L505.51,204.97 L506.05,204.77 L506.58,204.57 L507.11,204.37 L507.64,204.17 L508.18,203.97 L508.71,203.77 L509.24,203.58 L509.77,203.38 L510.31,203.18 L510.84,202.98 L511.37,202.78 L511.89,202.59 L512.42,202.39 L512.96,202.19 L513.49,201.99 L514.02,201.79 L514.55,201.60 L515.09,201.40 L515.62,201.20 L516.15,201.00 L516.68,200.81 L517.22,200.61 L517.75,200.41 L518.28,200.22 L518.81,200.02 L519.34,199.82 L519.87,199.62 L520.40,199.43 L520.93,199.23 L521.46,199.04 L522.00,198.84 L522.53,198.64 L523.06,198.45 L523.59,198.25 L524.13,198.05 L524.66,197.86 L525.19,197.66 L525.72,197.47 L526.26,197.27 L526.78,197.08 L527.31,196.88 L527.84,196.69 L528.37,196.49 L528.91,196.29 L529.44,196.10 L529.97,195.91 L530.50,195.71 L531.04,195.52 L531.57,195.32 L532.10,195.13 L532.63,194.93 L533.17,194.74 L533.69,194.54 L534.22,194.35 L534.75,194.16 L535.28,193.97 L535.82,193.77 L536.35,193.58 L536.88,193.38 L537.41,193.19 L537.95,192.99 L538.48,192.80 L539.01,192.61 L539.54,192.42 L540.08,192.22 L540.61,192.03 L541.13,191.84 L541.66,191.65 L542.19,191.45 L542.73,191.26 L543.26,191.07 L543.79,190.88 L544.32,190.68 L544.86,190.49 L545.39,190.30 L545.92,190.11 L546.45,189.92 L546.99,189.72 L547.52,189.53 L548.04,189.34 L548.57,189.15 L549.10,188.96 L549.64,188.76 L550.17,188.57 L550.70,188.38 L551.23,188.19 L551.77,188.00 L552.30,187.81 L552.83,187.62 L553.36,187.43 L553.90,187.24 L554.43,187.05 L554.96,186.86 L555.48,186.67 L556.02,186.47 L556.55,186.29 L557.08,186.10 L557.61,185.91 L558.14,185.72 L558.68,185.53 L559.21,185.34 L559.74,185.15 L560.27,184.96 L560.81,184.77 L561.34,184.58 L561.87,184.39 L562.39,184.20 L562.93,184.01 L563.46,183.82 L563.99,183.63 L564.52,183.45 L565.05,183.26 L565.59,183.07 L566.12,182.88 L566.65,182.69 L567.18,182.50 L567.72,182.31 L568.25,182.13 L568.78,181.94 L569.31,181.75 L569.84,181.56 L570.37,181.38 L570.90,181.19 L571.43,181.00 L571.96,180.81 L572.50,180.62 L573.03,180.44 L573.56,180.25 L574.09,180.07 L574.63,179.88 L575.16,179.69 L575.69,179.50 L576.22,179.32 L576.76,179.13 L577.28,178.94 L577.81,178.76 L578.34,178.57 L578.87,178.39 L579.41,178.20 L579.94,178.01 L580.47,177.83 L581.00,177.64 L581.54,177.45 L582.07,177.27 L582.60,177.08 L583.13,176.90 L583.67,176.71 L584.19,176.53 L584.72,176.34 L585.25,176.16 L585.79,175.97 L586.32,175.79 L586.85,175.60 L587.38,175.42 L587.91,175.23 L588.45,175.05 L588.98,174.86 L589.51,174.68 L590.04,174.49 L590.58,174.31 L591.10,174.12 L591.63,173.94 L592.16,173.76 L592.70,173.57 L593.23,173.39 L593.76,173.21 L594.29,173.02 L594.82,172.84 L595.36,172.65 L595.89,172.47 L596.42,172.29 L596.95,172.11 L597.49,171.92 L598.02,171.74 L598.54,171.56 L599.07,171.37 L599.61,171.19 L600.14,171.01 L600.67,170.82 L601.20,170.64 L601.73,170.46 L602.27,170.28 L602.80,170.09 L603.33,169.91 L603.86,169.73 L604.40,169.55 L604.93,169.37 L605.45,169.18 L605.98,169.00 L606.52,168.82 L607.05,168.64 L607.58,168.46 L608.11,168.28 L608.64,168.10 L609.18,167.91 L609.71,167.73 L610.24,167.55 L610.77,167.37 L611.31,167.19 L611.84,167.01 L612.37,166.83 L612.89,166.65 L613.43,166.47 L613.96,166.29 L614.49,166.11 L615.02,165.93 L615.56,165.74 L616.09,165.56 L616.62,165.39 L617.15,165.21 L617.68,165.03 L618.22,164.84 L618.75,164.67 L619.28,164.49 L619.80,164.31 L620.34,164.13 L620.87,163.95 L621.40,163.77 L621.93,163.59 L622.47,163.41 L623.00,163.23 L623.53,163.05 L624.06,162.87 L624.59,162.70 L625.13,162.52 L625.66,162.34 L626.19,162.16 L626.72,161.98 L627.25,161.80 L627.78,161.62 L628.31,161.45 L628.84,161.27 L629.38,161.09 L629.91,160.91 L630.44,160.73 L630.97,160.56 L631.50,160.38 L632.04,160.20 L632.57,160.02 L633.10,159.85 L633.63,159.67 L634.17,159.49 L634.69,159.31 L635.22,159.14 L635.75,158.96 L636.29,158.78 L636.82,158.61 L637.35,158.43 L637.88,158.25 L638.41,158.08 L638.95,157.90 L639.48,157.72 L640.01,157.55 L640.54,157.37 L641.08,157.19 L641.60,157.02 L642.13,156.84 L642.66,156.67 L643.20,156.49 L643.73,156.31 L644.26,156.14 L644.79,155.96 L645.32,155.79 L645.86,155.61 L646.39,155.44 L646.92,155.26 L647.45,155.09 L647.99,154.91 L648.52,154.74 L649.04,154.56 L649.57,154.39 L650.11,154.21 L650.64,154.04 L651.17,153.86 L651.70,153.69 L652.24,153.51 L652.77,153.34 L653.30,153.17 L653.83,152.99 L654.36,152.82 L654.90,152.64 L655.43,152.47 L655.95,152.30 L656.48,152.12 L657.02,151.95 L657.55,151.77 L658.08,151.60 L658.61,151.43 L659.15,151.25 L659.68,151.08 L660.21,150.91 L660.74,150.73 L661.27,150.56 L661.81,150.39 L662.34,150.21 L662.87,150.04 L663.39,149.87 L663.93,149.70 L664.46,149.52 L664.99,149.35 L665.52,149.18 L666.06,149.00 L666.59,148.83 L667.12,148.66 L667.65,148.49 L668.18,148.32 L668.72,148.14 L669.25,147.97 L669.78,147.80 L670.30,147.63 L670.84,147.46 L671.37,147.29 L671.90,147.12 L672.43,146.95 L672.97,146.77 L673.50,146.60 L674.03,146.43 L674.56,146.26 L675.09,146.09 L675.63,145.92 L676.16,145.75 L676.69,145.58 L677.22,145.41 L677.75,145.23 L678.28,145.06 L678.81,144.89 L679.34,144.72 L679.88,144.55 L680.41,144.38 L680.94,144.21 L681.47,144.04 L682.01,143.87 L682.54,143.70 L683.07,143.53 L683.60,143.36 L684.13,143.19 L684.67,143.02 L685.19,142.85 L685.72,142.69 L686.25,142.52 L686.79,142.35 L687.32,142.18 L687.85,142.01 L688.38,141.84 L688.92,141.67 L689.45,141.50 L689.98,141.33 L690.51,141.16 L691.04,141.00 L691.58,140.83 L692.10,140.66 L692.63,140.49 L693.16,140.32 L693.70,140.15 L694.23,139.98 L694.76,139.82 L695.29,139.65 L695.83,139.48 L696.36,139.31 L696.89,139.14 L697.42,138.98 L697.95,138.81 L698.49,138.64 L699.02,138.47 L699.54,138.31 L700.07,138.14 L700.61,137.97 L701.14,137.80 L701.67,137.64 L702.20,137.47 L702.74,137.30 L703.27,137.14 L703.80,136.97 L704.33,136.80 L704.86,136.64 L705.40,136.47 L705.93,136.30 L706.45,136.14 L706.98,135.97 L707.52,135.80 L708.05,135.64 L708.58,135.47 L709.11,135.31 L709.65,135.14 L710.18,134.97 L710.71,134.81 L711.24,134.64 L711.77,134.48 L712.31,134.31 L712.84,134.15 L713.37,133.98 L713.89,133.82 L714.43,133.65 L714.96,133.48 L715.49,133.32 L716.02,133.16 L716.56,132.99 L717.09,132.82 L717.62,132.66 L718.15,132.50 L718.69,132.33 L719.22,132.16 L719.75,132.00 L720.28,131.84 L720.80,131.67 L721.34,131.51 L721.87,131.34 L722.40,131.18 L722.93,131.02 L723.47,130.85 L724.00,130.69 L724.53,130.52 L725.06,130.36 L725.60,130.19 L726.13,130.03 L726.66,129.87 L727.19,129.71 L727.72,129.54 L728.25,129.38 L728.78,129.21 L729.31,129.05 L729.84,128.89 L730.38,128.72 L730.91,128.56 L731.44,128.40 L731.97,128.24 L732.51,128.07 L733.04,127.91 L733.57,127.75 L734.10,127.59 L734.63,127.43 L735.17,127.26 L735.69,127.10 L736.22,126.94 L736.75,126.78 L737.29,126.61 L737.82,126.45 L738.35,126.29 L738.88,126.13 L739.42,125.96 L739.95,125.80 L740.48,125.64 L741.01,125.48 L741.54,125.32 L742.08,125.16 L742.60,125.00 L743.13,124.83 L743.66,124.67 L744.20,124.51 L744.73,124.35 L745.26,124.19 L745.79,124.03 L746.33,123.87 L746.86,123.71 L747.39,123.55 L747.92,123.39 L748.46,123.22 L748.99,123.06 L749.52,122.90 L750.04,122.74 L750.57,122.58 L751.11,122.42 L751.64,122.26 L752.17,122.10 L752.70,121.94 L753.24,121.78 L753.77,121.62 L754.30,121.46 L754.83,121.30 L755.37,121.14 L755.90,120.98 L756.43,120.82 L756.95,120.67 L757.48,120.51 L758.02,120.35 L758.55,120.19 L759.08,120.03 L759.61,119.87 L760.15,119.71 L760.68,119.55 L761.21,119.39 L761.74,119.23 L762.28,119.07 L762.81,118.92 L763.34,118.76 L763.86,118.60 L764.39,118.44 L764.93,118.28 L765.46,118.12 L765.99,117.97 L766.52,117.81 L767.06,117.65 L767.59,117.49 L768.12,117.33 L768.65,117.18 L769.19,117.02 L769.72,116.86 L770.25,116.70 L770.78,116.55 L771.30,116.39 L771.84,116.23 L772.37,116.07 L772.90,115.92 L773.43,115.76 L773.97,115.60 L774.50,115.44 L775.03,115.29 L775.56,115.13 L776.10,114.97 L776.63,114.81 L777.16,114.66 L777.69,114.50 L778.21,114.35 L778.75,114.19 L779.28,114.03 L779.81,113.88 L780.34,113.72 L780.88,113.56 L781.41,113.41 L781.94,113.25 L782.47,113.10 L783.01,112.94 L783.54,112.78 L784.07,112.63 L784.60,112.47 L785.14,112.31 L785.66,112.16 L786.19,112.00 L786.72,111.85 L787.25,111.69 L787.79,111.54 L788.32,111.38 L788.85,111.23 L789.38,111.07 L789.92,110.92 L790.45,110.76 L790.98,110.61 L791.51,110.45 L792.05,110.30 L792.58,110.14 L793.10,109.99 L793.63,109.83 L794.16,109.68 L794.70,109.52 L795.23,109.37 L795.76,109.22 L796.29,109.06 L796.83,108.91 L797.36,108.75 L797.89,108.60 L798.42,108.45 L798.96,108.29 L799.49,108.14 L800.01,107.98 L800.54,107.83 L801.07,107.68 L801.61,107.52 L802.14,107.37 L802.67,107.21 L803.20,107.06 L803.74,106.91 L804.27,106.75 L804.80,106.60 L805.33,106.45 L805.87,106.29 L806.40,106.14 L806.93,105.99 L807.45,105.84 L807.98,105.68 L808.52,105.53 L809.05,105.38 L809.58,105.23 L810.11,105.07 L810.65,104.92 L811.18,104.77 L811.71,104.62 L812.24,104.46 L812.78,104.31 L813.31,104.16 L813.84,104.01 L814.36,103.86 L814.90,103.70 L815.43,103.55 L815.96,103.40 L816.49,103.25 L817.02,103.10 L817.56,102.94 L818.09,102.79 L818.62,102.64 L819.15,102.49 L819.69,102.34 L820.22,102.19 L820.75,102.04 L821.28,101.88 L821.81,101.73 L822.34,101.58 L822.87,101.43 L823.40,101.28 L823.93,101.13 L824.47,100.98 L825.00,100.83 L825.53,100.68 L826.06,100.53 L826.60,100.37 L827.13,100.23 L827.66,100.08 L828.19,99.93 L828.73,99.77 L829.25,99.62 L829.78,99.47 L830.31,99.32 L830.84,99.18 L831.38,99.02 L831.91,98.87 L832.44,98.73 L832.97,98.58 L833.51,98.42 L834.04,98.28 L834.57,98.13 L835.10,97.98 L835.64,97.83 L836.16,97.68 L836.69,97.53 L837.22,97.38 L837.75,97.23 L838.29,97.08 L838.82,96.93 L839.35,96.78 L839.88,96.64 L840.42,96.48 L840.95,96.34 L841.48,96.19 L842.01,96.04 L842.55,95.89 L843.08,95.74 L843.60,95.59 L844.13,95.45 L844.67,95.30 L845.20,95.15 L845.73,95.00 L846.26,94.85 L846.79,94.71 L847.33,94.56 L847.86,94.41 L848.39,94.26 L848.92,94.11 L849.46,93.96 L849.99,93.82 L850.51,93.67 L851.04,93.52 L851.58,93.37 L852.11,93.23 L852.64,93.08 L853.17,92.93 L853.70,92.79 L854.24,92.64 L854.77,92.49 L855.30,92.34 L855.83,92.20 L856.37,92.05 L856.90,91.90 L857.43,91.76 L857.95,91.61 L858.49,91.46 L859.02,91.32 L859.55,91.17 L860.08,91.02 L860.61,90.88 L861.15,90.73 L861.68,90.58 L862.21,90.44 L862.74,90.29 L863.28,90.15 L863.81,90.00 L864.34,89.85 L864.86,89.71 L865.40,89.56 L865.93,89.42 L866.46,89.27 L866.99,89.13 L867.52,88.98 L868.06,88.83 L868.59,88.69 L869.12,88.54 L869.65,88.40 L870.19,88.25 L870.72,88.11 L871.25,87.96 L871.78,87.82 L872.31,87.67 L872.84,87.53 L873.37,87.38 L873.90,87.24 L874.43,87.09 L874.97,86.95 L875.50,86.80 L876.03,86.66 L876.56,86.51 L877.10,86.37 L877.63,86.22 L878.16,86.08 L878.69,85.94 L879.23,85.79 L879.75,85.65 L880.28,85.50 L880.81,85.36 L881.35,85.21 L881.88,85.07 L882.41,84.93 L882.94,84.78 L883.47,84.64 L884.01,84.50 L884.54,84.35 L885.07,84.21 L885.60,84.07 L886.14,83.92 L886.66,83.78 L887.19,83.64 L887.72,83.49 L888.26,83.35 L888.79,83.21 L889.32,83.06 L889.85,82.92 L890.38,82.78 L890.92,82.63 L891.45,82.49 L891.98,82.35 L892.51,82.21 L893.05,82.06 L893.58,81.92 L894.10,81.78 L894.63,81.64 L895.17,81.49 L895.70,81.35 L896.23,81.21 L896.76,81.07 L897.29,80.92 L897.83,80.78 L898.36,80.64 L898.89,80.50 L899.42,80.36 L899.96,80.21 L900.49,80.07 L901.01,79.93 L901.54,79.79 L902.08,79.65 L902.61,79.50 L903.14,79.36 L903.67,79.22 L904.20,79.08 L904.74,78.94 L905.27,78.80 L905.80,78.66 L906.33,78.52 L906.87,78.37 L907.40,78.23 L907.93,78.09 L908.45,77.95 L908.99,77.81 L909.52,77.67 L910.05,77.53 L910.58,77.39 L911.12,77.25 L911.65,77.11 L912.18,76.97 L912.71,76.83 L913.24,76.69 L913.78,76.54 L914.31,76.40 L914.84,76.27 L915.36,76.13 L915.90,75.98 L916.43,75.84 L916.96,75.70 L917.49,75.57 L918.03,75.42 L918.56,75.28 L919.09,75.15 L919.62,75.01 L920.15,74.87 L920.69,74.73 L921.22,74.59 L921.75,74.45 L922.28,74.31 L922.81,74.17 L923.34,74.03 L923.87,73.89 L924.40,73.75 L924.94,73.61 L925.47,73.47 L926.00,73.33 " fill="none" stroke="#cc7045" stroke-width="2.4" stroke-dasharray="8 6" clip-path="url(#plotClip)"/><path d="M76.00,406.67 L161.00,359.05 L246.00,315.76 L331.00,276.23 L416.00,240.00 L501.00,206.67 L586.00,175.90 L671.00,147.41 L756.00,120.95 L841.00,96.32 L926.00,73.33 " fill="none" stroke="#2f5fa7" stroke-width="2.4" stroke-dasharray="8 6" clip-path="url(#plotClip)"/><path d="M76.00,406.67 L161.00,359.05 L246.00,315.76 L331.00,276.23 L416.00,240.00 L501.00,206.67 L586.00,175.90 L671.00,147.41 L756.00,120.95 L841.00,96.32 L926.00,73.33 " fill="none" stroke="#7c4fa0" stroke-width="2.4" stroke-dasharray="8 6" clip-path="url(#plotClip)"/><g clip-path="url(#plotClip)"><circle cx="76.00" cy="406.67" r="3.4" fill="white" stroke="#cc7045" stroke-width="2"/><circle cx="83.14" cy="402.48" r="3.4" fill="white" stroke="#cc7045" stroke-width="2"/><circle cx="90.29" cy="398.33" r="3.4" fill="white" stroke="#cc7045" stroke-width="2"/><circle cx="97.43" cy="394.22" r="3.4" fill="white" stroke="#cc7045" stroke-width="2"/><circle cx="104.58" cy="390.14" r="3.4" fill="white" stroke="#cc7045" stroke-width="2"/><circle cx="111.71" cy="386.09" r="3.4" fill="white" stroke="#cc7045" stroke-width="2"/><circle cx="118.85" cy="382.08" r="3.4" fill="white" stroke="#cc7045" stroke-width="2"/><circle cx="126.00" cy="378.09" r="3.4" fill="white" stroke="#cc7045" stroke-width="2"/><circle cx="133.14" cy="374.15" r="3.4" fill="white" stroke="#cc7045" stroke-width="2"/><circle cx="140.29" cy="370.23" r="3.4" fill="white" stroke="#cc7045" stroke-width="2"/><circle cx="147.43" cy="366.34" r="3.4" fill="white" stroke="#cc7045" stroke-width="2"/><circle cx="154.57" cy="362.49" r="3.4" fill="white" stroke="#cc7045" stroke-width="2"/><circle cx="161.72" cy="358.67" r="3.4" fill="white" stroke="#cc7045" stroke-width="2"/><circle cx="168.85" cy="354.88" r="3.4" fill="white" stroke="#cc7045" stroke-width="2"/><circle cx="176.00" cy="351.11" r="3.4" fill="white" stroke="#cc7045" stroke-width="2"/><circle cx="183.14" cy="347.38" r="3.4" fill="white" stroke="#cc7045" stroke-width="2"/><circle cx="190.28" cy="343.68" r="3.4" fill="white" stroke="#cc7045" stroke-width="2"/><circle cx="197.43" cy="340.00" r="3.4" fill="white" stroke="#cc7045" stroke-width="2"/><circle cx="204.57" cy="336.36" r="3.4" fill="white" stroke="#cc7045" stroke-width="2"/><circle cx="211.72" cy="332.73" r="3.4" fill="white" stroke="#cc7045" stroke-width="2"/><circle cx="218.86" cy="329.15" r="3.4" fill="white" stroke="#cc7045" stroke-width="2"/><circle cx="226.00" cy="325.59" r="3.4" fill="white" stroke="#cc7045" stroke-width="2"/><circle cx="233.14" cy="322.05" r="3.4" fill="white" stroke="#cc7045" stroke-width="2"/><circle cx="240.28" cy="318.55" r="3.4" fill="white" stroke="#cc7045" stroke-width="2"/><circle cx="247.43" cy="315.06" r="3.4" fill="white" stroke="#cc7045" stroke-width="2"/><circle cx="254.57" cy="311.61" r="3.4" fill="white" stroke="#cc7045" stroke-width="2"/><circle cx="261.71" cy="308.18" r="3.4" fill="white" stroke="#cc7045" stroke-width="2"/><circle cx="268.86" cy="304.78" r="3.4" fill="white" stroke="#cc7045" stroke-width="2"/><circle cx="276.00" cy="301.40" r="3.4" fill="white" stroke="#cc7045" stroke-width="2"/><circle cx="283.15" cy="298.05" r="3.4" fill="white" stroke="#cc7045" stroke-width="2"/><circle cx="290.28" cy="294.73" r="3.4" fill="white" stroke="#cc7045" stroke-width="2"/><circle cx="297.43" cy="291.42" r="3.4" fill="white" stroke="#cc7045" stroke-width="2"/><circle cx="304.57" cy="288.15" r="3.4" fill="white" stroke="#cc7045" stroke-width="2"/><circle cx="311.71" cy="284.90" r="3.4" fill="white" stroke="#cc7045" stroke-width="2"/><circle cx="318.86" cy="281.67" r="3.4" fill="white" stroke="#cc7045" stroke-width="2"/><circle cx="326.00" cy="278.46" r="3.4" fill="white" stroke="#cc7045" stroke-width="2"/><circle cx="333.15" cy="275.28" r="3.4" fill="white" stroke="#cc7045" stroke-width="2"/><circle cx="340.29" cy="272.12" r="3.4" fill="white" stroke="#cc7045" stroke-width="2"/><circle cx="347.43" cy="268.99" r="3.4" fill="white" stroke="#cc7045" stroke-width="2"/><circle cx="354.57" cy="265.87" r="3.4" fill="white" stroke="#cc7045" stroke-width="2"/><circle cx="361.71" cy="262.78" r="3.4" fill="white" stroke="#cc7045" stroke-width="2"/><circle cx="368.86" cy="259.71" r="3.4" fill="white" stroke="#cc7045" stroke-width="2"/><circle cx="376.00" cy="256.67" r="3.4" fill="white" stroke="#cc7045" stroke-width="2"/><circle cx="383.14" cy="253.64" r="3.4" fill="white" stroke="#cc7045" stroke-width="2"/><circle cx="390.29" cy="250.64" r="3.4" fill="white" stroke="#cc7045" stroke-width="2"/><circle cx="397.43" cy="247.66" r="3.4" fill="white" stroke="#cc7045" stroke-width="2"/><circle cx="404.58" cy="244.69" r="3.4" fill="white" stroke="#cc7045" stroke-width="2"/><circle cx="411.71" cy="241.75" r="3.4" fill="white" stroke="#cc7045" stroke-width="2"/><circle cx="418.85" cy="238.84" r="3.4" fill="white" stroke="#cc7045" stroke-width="2"/><circle cx="426.00" cy="235.93" r="3.4" fill="white" stroke="#cc7045" stroke-width="2"/><circle cx="433.14" cy="233.06" r="3.4" fill="white" stroke="#cc7045" stroke-width="2"/><circle cx="440.29" cy="230.19" r="3.4" fill="white" stroke="#cc7045" stroke-width="2"/><circle cx="447.43" cy="227.36" r="3.4" fill="white" stroke="#cc7045" stroke-width="2"/><circle cx="454.57" cy="224.54" r="3.4" fill="white" stroke="#cc7045" stroke-width="2"/><circle cx="461.72" cy="221.73" r="3.4" fill="white" stroke="#cc7045" stroke-width="2"/><circle cx="468.86" cy="218.95" r="3.4" fill="white" stroke="#cc7045" stroke-width="2"/><circle cx="476.00" cy="216.19" r="3.4" fill="white" stroke="#cc7045" stroke-width="2"/><circle cx="483.14" cy="213.45" r="3.4" fill="white" stroke="#cc7045" stroke-width="2"/><circle cx="490.28" cy="210.72" r="3.4" fill="white" stroke="#cc7045" stroke-width="2"/><circle cx="497.43" cy="208.01" r="3.4" fill="white" stroke="#cc7045" stroke-width="2"/><circle cx="504.57" cy="205.32" r="3.4" fill="white" stroke="#cc7045" stroke-width="2"/><circle cx="511.72" cy="202.65" r="3.4" fill="white" stroke="#cc7045" stroke-width="2"/><circle cx="518.86" cy="200.00" r="3.4" fill="white" stroke="#cc7045" stroke-width="2"/><circle cx="526.00" cy="197.37" r="3.4" fill="white" stroke="#cc7045" stroke-width="2"/><circle cx="533.14" cy="194.75" r="3.4" fill="white" stroke="#cc7045" stroke-width="2"/><circle cx="540.28" cy="192.15" r="3.4" fill="white" stroke="#cc7045" stroke-width="2"/><circle cx="547.43" cy="189.56" r="3.4" fill="white" stroke="#cc7045" stroke-width="2"/><circle cx="554.57" cy="186.99" r="3.4" fill="white" stroke="#cc7045" stroke-width="2"/><circle cx="561.71" cy="184.45" r="3.4" fill="white" stroke="#cc7045" stroke-width="2"/><circle cx="568.86" cy="181.91" r="3.4" fill="white" stroke="#cc7045" stroke-width="2"/><circle cx="576.00" cy="179.39" r="3.4" fill="white" stroke="#cc7045" stroke-width="2"/><circle cx="583.15" cy="176.89" r="3.4" fill="white" stroke="#cc7045" stroke-width="2"/><circle cx="590.29" cy="174.41" r="3.4" fill="white" stroke="#cc7045" stroke-width="2"/><circle cx="597.42" cy="171.94" r="3.4" fill="white" stroke="#cc7045" stroke-width="2"/><circle cx="604.57" cy="169.49" r="3.4" fill="white" stroke="#cc7045" stroke-width="2"/><circle cx="611.71" cy="167.05" r="3.4" fill="white" stroke="#cc7045" stroke-width="2"/><circle cx="618.86" cy="164.63" r="3.4" fill="white" stroke="#cc7045" stroke-width="2"/><circle cx="626.00" cy="162.22" r="3.4" fill="white" stroke="#cc7045" stroke-width="2"/><circle cx="633.14" cy="159.83" r="3.4" fill="white" stroke="#cc7045" stroke-width="2"/><circle cx="640.29" cy="157.45" r="3.4" fill="white" stroke="#cc7045" stroke-width="2"/><circle cx="647.43" cy="155.10" r="3.4" fill="white" stroke="#cc7045" stroke-width="2"/><circle cx="654.57" cy="152.75" r="3.4" fill="white" stroke="#cc7045" stroke-width="2"/><circle cx="661.71" cy="150.42" r="3.4" fill="white" stroke="#cc7045" stroke-width="2"/><circle cx="668.85" cy="148.10" r="3.4" fill="white" stroke="#cc7045" stroke-width="2"/><circle cx="676.00" cy="145.80" r="3.4" fill="white" stroke="#cc7045" stroke-width="2"/><circle cx="683.14" cy="143.51" r="3.4" fill="white" stroke="#cc7045" stroke-width="2"/><circle cx="690.29" cy="141.23" r="3.4" fill="white" stroke="#cc7045" stroke-width="2"/><circle cx="697.43" cy="138.97" r="3.4" fill="white" stroke="#cc7045" stroke-width="2"/><circle cx="704.57" cy="136.73" r="3.4" fill="white" stroke="#cc7045" stroke-width="2"/><circle cx="711.72" cy="134.50" r="3.4" fill="white" stroke="#cc7045" stroke-width="2"/><circle cx="718.85" cy="132.28" r="3.4" fill="white" stroke="#cc7045" stroke-width="2"/><circle cx="726.00" cy="130.07" r="3.4" fill="white" stroke="#cc7045" stroke-width="2"/><circle cx="733.14" cy="127.88" r="3.4" fill="white" stroke="#cc7045" stroke-width="2"/><circle cx="740.29" cy="125.70" r="3.4" fill="white" stroke="#cc7045" stroke-width="2"/><circle cx="747.43" cy="123.53" r="3.4" fill="white" stroke="#cc7045" stroke-width="2"/><circle cx="754.57" cy="121.38" r="3.4" fill="white" stroke="#cc7045" stroke-width="2"/><circle cx="761.72" cy="119.24" r="3.4" fill="white" stroke="#cc7045" stroke-width="2"/><circle cx="768.86" cy="117.11" r="3.4" fill="white" stroke="#cc7045" stroke-width="2"/><circle cx="776.00" cy="115.00" r="3.4" fill="white" stroke="#cc7045" stroke-width="2"/><circle cx="783.14" cy="112.90" r="3.4" fill="white" stroke="#cc7045" stroke-width="2"/><circle cx="790.28" cy="110.81" r="3.4" fill="white" stroke="#cc7045" stroke-width="2"/><circle cx="797.43" cy="108.73" r="3.4" fill="white" stroke="#cc7045" stroke-width="2"/><circle cx="804.57" cy="106.67" r="3.4" fill="white" stroke="#cc7045" stroke-width="2"/><circle cx="811.72" cy="104.61" r="3.4" fill="white" stroke="#cc7045" stroke-width="2"/><circle cx="818.86" cy="102.57" r="3.4" fill="white" stroke="#cc7045" stroke-width="2"/><circle cx="826.00" cy="100.55" r="3.4" fill="white" stroke="#cc7045" stroke-width="2"/><circle cx="833.15" cy="98.53" r="3.4" fill="white" stroke="#cc7045" stroke-width="2"/><circle cx="840.28" cy="96.52" r="3.4" fill="white" stroke="#cc7045" stroke-width="2"/><circle cx="847.43" cy="94.53" r="3.4" fill="white" stroke="#cc7045" stroke-width="2"/><circle cx="854.57" cy="92.55" r="3.4" fill="white" stroke="#cc7045" stroke-width="2"/><circle cx="861.71" cy="90.58" r="3.4" fill="white" stroke="#cc7045" stroke-width="2"/><circle cx="868.86" cy="88.61" r="3.4" fill="white" stroke="#cc7045" stroke-width="2"/><circle cx="876.00" cy="86.67" r="3.4" fill="white" stroke="#cc7045" stroke-width="2"/><circle cx="883.15" cy="84.73" r="3.4" fill="white" stroke="#cc7045" stroke-width="2"/><circle cx="890.29" cy="82.80" r="3.4" fill="white" stroke="#cc7045" stroke-width="2"/><circle cx="897.42" cy="80.89" r="3.4" fill="white" stroke="#cc7045" stroke-width="2"/><circle cx="904.57" cy="78.98" r="3.4" fill="white" stroke="#cc7045" stroke-width="2"/><circle cx="911.71" cy="77.09" r="3.4" fill="white" stroke="#cc7045" stroke-width="2"/><circle cx="918.86" cy="75.21" r="3.4" fill="white" stroke="#cc7045" stroke-width="2"/><circle cx="926.00" cy="73.33" r="3.4" fill="white" stroke="#cc7045" stroke-width="2"/><circle cx="76.00" cy="406.67" r="3.4" fill="white" stroke="#2f5fa7" stroke-width="2"/><circle cx="161.00" cy="359.05" r="3.4" fill="white" stroke="#2f5fa7" stroke-width="2"/><circle cx="246.00" cy="315.76" r="3.4" fill="white" stroke="#2f5fa7" stroke-width="2"/><circle cx="331.00" cy="276.23" r="3.4" fill="white" stroke="#2f5fa7" stroke-width="2"/><circle cx="416.00" cy="240.00" r="3.4" fill="white" stroke="#2f5fa7" stroke-width="2"/><circle cx="501.00" cy="206.67" r="3.4" fill="white" stroke="#2f5fa7" stroke-width="2"/><circle cx="586.00" cy="175.90" r="3.4" fill="white" stroke="#2f5fa7" stroke-width="2"/><circle cx="671.00" cy="147.41" r="3.4" fill="white" stroke="#2f5fa7" stroke-width="2"/><circle cx="756.00" cy="120.95" r="3.4" fill="white" stroke="#2f5fa7" stroke-width="2"/><circle cx="841.00" cy="96.32" r="3.4" fill="white" stroke="#2f5fa7" stroke-width="2"/><circle cx="926.00" cy="73.33" r="3.4" fill="white" stroke="#2f5fa7" stroke-width="2"/><circle cx="76.00" cy="406.67" r="3.4" fill="white" stroke="#7c4fa0" stroke-width="2"/><circle cx="161.00" cy="359.05" r="3.4" fill="white" stroke="#7c4fa0" stroke-width="2"/><circle cx="246.00" cy="315.76" r="3.4" fill="white" stroke="#7c4fa0" stroke-width="2"/><circle cx="331.00" cy="276.23" r="3.4" fill="white" stroke="#7c4fa0" stroke-width="2"/><circle cx="416.00" cy="240.00" r="3.4" fill="white" stroke="#7c4fa0" stroke-width="2"/><circle cx="501.00" cy="206.67" r="3.4" fill="white" stroke="#7c4fa0" stroke-width="2"/><circle cx="586.00" cy="175.90" r="3.4" fill="white" stroke="#7c4fa0" stroke-width="2"/><circle cx="671.00" cy="147.41" r="3.4" fill="white" stroke="#7c4fa0" stroke-width="2"/><circle cx="756.00" cy="120.95" r="3.4" fill="white" stroke="#7c4fa0" stroke-width="2"/><circle cx="841.00" cy="96.32" r="3.4" fill="white" stroke="#7c4fa0" stroke-width="2"/><circle cx="926.00" cy="73.33" r="3.4" fill="white" stroke="#7c4fa0" stroke-width="2"/></g><line x1="76" x2="100" y1="494" y2="494" stroke="#3d7c55" stroke-width="3"/><text x="108" y="499">Точное решение</text><line x1="536" x2="560" y1="494" y2="494" stroke="#cc7045" stroke-width="3"/><text x="568" y="499">Метод Эйлера</text><line x1="76" x2="100" y1="514" y2="514" stroke="#2f5fa7" stroke-width="3"/><text x="108" y="519">Метод Рунге-Кутта 4-го порядка</text><line x1="536" x2="560" y1="514" y2="514" stroke="#7c4fa0" stroke-width="3"/><text x="568" y="519">Метод Адамса (предиктор-корректор)</text></svg>