<svg xmlns="http://www.w3.org/2000/svg" viewBox="0 0 960 545" role="img" aria-label="График погрешности">
  <rect width="960" height="545" fill="white"/>
  <style>text{font-family:Arial,sans-serif;font-size:13px;fill:#526278}.grid{stroke:#e5ecf5;stroke-width:1}</style><path class="grid" d="M86 427.50000000000006H926"/><text x="76" y="431.50000000000006" text-anchor="end">1e-11</text><path class="grid" d="M86 365H926"/><text x="76" y="369" text-anchor="end">1e-10</text><path class="grid" d="M86 302.5H926"/><text x="76" y="306.5" text-anchor="end">1e-9</text><path class="grid" d="M86 240.00000000000003H926"/><text x="76" y="244.00000000000003" text-anchor="end">1e-8</text><path class="grid" d="M86 177.50000000000006H926"/><text x="76" y="181.50000000000006" text-anchor="end">1e-7</text><path class="grid" d="M86 115H926"/><text x="76" y="119" text-anchor="end">1e-6</text><path class="grid" d="M86 52.5H926"/><text x="76" y="56.5" text-anchor="end">1e-5</text><path class="grid" d="M86 40V440"/><text x="86" y="466" text-anchor="middle">0</text><path class="grid" d="M226 40V440"/><text x="226" y="466" text-anchor="middle">0.167</text><path class="grid" d="M366 40V440"/><text x="366" y="466" text-anchor="middle">0.333</text><path class="grid" d="M506 40V440"/><text x="506" y="466" text-anchor="middle">0.5</text><path class="grid" d="M646 40V440"/><text x="646" y="466" text-anchor="middle">0.667</text><path class="grid" d="M786 40V440"/><text x="786" y="466" text-anchor="middle">0.833</text><path class="grid" d="M926 40V440"/><text x="926" y="466" text-anchor="middle">1</text><path d="M86 40V440H926" fill="none" stroke="#64748b"/><text x="940" y="444">x</text><text x="86" y="26">|y точн − y|</text><path d="M86.00,440.00 L86.52,285.06 L87.05,266.10 L87.57,255.12 L88.10,247.25 L88.63,241.20 L89.15,236.21 L89.68,232.03 L90.20,228.37 L90.73,225.17 L91.26,222.28 L91.78,219.69 L92.31,217.29 L92.83,215.11 L93.35,213.10 L93.88,211.20 L94.40,209.43 L94.93,207.76 L95.45,206.20 L95.98,204.71 L96.51,203.31 L97.03,201.96 L97.56,200.68 L98.08,199.45 L98.61,198.29 L99.14,197.16 L99.66,196.08 L100.19,195.03 L100.71,194.03 L101.23,193.07 L101.76,192.13 L102.28,191.22 L102.81,190.34 L103.33,189.49 L103.86,188.66 L104.39,187.86 L104.91,187.07 L105.44,186.32 L105.96,185.57 L106.49,184.85 L107.02,184.15 L107.54,183.46 L108.06,182.79 L108.59,182.13 L109.11,181.50 L109.64,180.87 L110.16,180.26 L110.69,179.65 L111.21,179.07 L111.74,178.49 L112.27,177.92 L112.79,177.37 L113.32,176.82 L113.84,176.29 L114.37,175.77 L114.90,175.25 L115.42,174.74 L115.94,174.25 L116.47,173.76 L116.99,173.28 L117.52,172.80 L118.04,172.34 L118.57,171.88 L119.09,171.43 L119.62,170.98 L120.15,170.55 L120.67,170.11 L121.20,169.69 L121.72,169.27 L122.25,168.86 L122.77,168.45 L123.30,168.05 L123.82,167.65 L124.35,167.26 L124.87,166.87 L125.40,166.49 L125.92,166.12 L126.45,165.74 L126.97,165.38 L127.50,165.01 L128.03,164.66 L128.55,164.30 L129.08,163.95 L129.60,163.60 L130.13,163.26 L130.65,162.93 L131.18,162.59 L131.70,162.26 L132.23,161.93 L132.75,161.61 L133.28,161.29 L133.80,160.97 L134.33,160.66 L134.85,160.35 L135.38,160.04 L135.91,159.74 L136.43,159.43 L136.96,159.14 L137.48,158.84 L138.01,158.55 L138.53,158.26 L139.06,157.97 L139.58,157.69 L140.11,157.40 L140.63,157.13 L141.16,156.85 L141.68,156.58 L142.21,156.30 L142.73,156.03 L143.26,155.77 L143.79,155.50 L144.31,155.24 L144.84,154.98 L145.36,154.72 L145.89,154.46 L146.41,154.21 L146.94,153.96 L147.46,153.71 L147.99,153.46 L148.51,153.22 L149.04,152.97 L149.56,152.73 L150.09,152.49 L150.61,152.25 L151.14,152.01 L151.67,151.78 L152.19,151.55 L152.72,151.31 L153.24,151.08 L153.77,150.85 L154.29,150.63 L154.82,150.40 L155.34,150.18 L155.87,149.96 L156.39,149.74 L156.92,149.52 L157.44,149.30 L157.97,149.08 L158.50,148.87 L159.02,148.66 L159.55,148.45 L160.07,148.24 L160.60,148.03 L161.12,147.82 L161.65,147.61 L162.17,147.41 L162.70,147.21 L163.22,147.00 L163.75,146.80 L164.27,146.60 L164.80,146.40 L165.32,146.21 L165.85,146.01 L166.38,145.82 L166.90,145.62 L167.43,145.43 L167.95,145.24 L168.48,145.05 L169.00,144.86 L169.53,144.67 L170.05,144.48 L170.58,144.30 L171.10,144.11 L171.63,143.93 L172.15,143.74 L172.68,143.56 L173.20,143.38 L173.73,143.20 L174.26,143.02 L174.78,142.85 L175.31,142.67 L175.83,142.49 L176.36,142.32 L176.88,142.14 L177.41,141.97 L177.93,141.80 L178.46,141.62 L178.98,141.45 L179.51,141.28 L180.03,141.11 L180.56,140.95 L181.08,140.78 L181.61,140.61 L182.14,140.45 L182.66,140.28 L183.19,140.12 L183.71,139.95 L184.24,139.79 L184.76,139.63 L185.29,139.47 L185.81,139.31 L186.34,139.15 L186.86,138.99 L187.39,138.83 L187.91,138.68 L188.44,138.52 L188.96,138.36 L189.49,138.21 L190.02,138.05 L190.54,137.90 L191.07,137.75 L191.59,137.59 L192.12,137.44 L192.64,137.29 L193.17,137.14 L193.69,136.99 L194.22,136.84 L194.74,136.69 L195.27,136.55 L195.79,136.40 L196.32,136.25 L196.84,136.11 L197.37,135.96 L197.90,135.82 L198.42,135.67 L198.95,135.53 L199.47,135.39 L200.00,135.24 L200.52,135.10 L201.05,134.96 L201.57,134.82 L202.10,134.68 L202.62,134.54 L203.15,134.40 L203.67,134.26 L204.20,134.13 L204.72,133.99 L205.25,133.85 L205.78,133.71 L206.30,133.58 L206.83,133.44 L207.35,133.31 L207.88,133.17 L208.40,133.04 L208.93,132.91 L209.45,132.78 L209.98,132.64 L210.50,132.51 L211.03,132.38 L211.55,132.25 L212.08,132.12 L212.60,131.99 L213.13,131.86 L213.66,131.73 L214.18,131.60 L214.71,131.47 L215.23,131.35 L215.76,131.22 L216.28,131.09 L216.81,130.97 L217.33,130.84 L217.85,130.72 L218.38,130.59 L218.91,130.47 L219.43,130.34 L219.96,130.22 L220.49,130.10 L221.01,129.97 L221.54,129.85 L222.06,129.73 L222.59,129.61 L223.11,129.49 L223.64,129.36 L224.16,129.24 L224.69,129.12 L225.21,129.00 L225.74,128.89 L226.26,128.77 L226.79,128.65 L227.31,128.53 L227.84,128.41 L228.37,128.30 L228.89,128.18 L229.42,128.06 L229.94,127.95 L230.47,127.83 L230.99,127.71 L231.52,127.60 L232.04,127.48 L232.56,127.37 L233.09,127.26 L233.62,127.14 L234.14,127.03 L234.67,126.92 L235.19,126.80 L235.72,126.69 L236.25,126.58 L236.77,126.47 L237.30,126.35 L237.82,126.24 L238.35,126.13 L238.87,126.02 L239.39,125.91 L239.92,125.80 L240.44,125.69 L240.97,125.58 L241.50,125.48 L242.02,125.37 L242.55,125.26 L243.07,125.15 L243.60,125.04 L244.13,124.94 L244.65,124.83 L245.18,124.72 L245.70,124.62 L246.23,124.51 L246.75,124.40 L247.27,124.30 L247.80,124.19 L248.32,124.09 L248.85,123.98 L249.38,123.88 L249.90,123.78 L250.43,123.67 L250.95,123.57 L251.48,123.46 L252.01,123.36 L252.53,123.26 L253.06,123.16 L253.58,123.05 L254.10,122.95 L254.63,122.85 L255.15,122.75 L255.68,122.65 L256.20,122.55 L256.73,122.45 L257.26,122.35 L257.78,122.25 L258.31,122.15 L258.83,122.05 L259.36,121.95 L259.89,121.85 L260.41,121.75 L260.94,121.65 L261.46,121.55 L261.98,121.45 L262.51,121.36 L263.03,121.26 L263.56,121.16 L264.08,121.06 L264.61,120.97 L265.14,120.87 L265.66,120.77 L266.19,120.68 L266.71,120.58 L267.24,120.49 L267.77,120.39 L268.29,120.30 L268.81,120.20 L269.34,120.11 L269.86,120.01 L270.39,119.92 L270.91,119.82 L271.44,119.73 L271.96,119.63 L272.49,119.54 L273.02,119.45 L273.54,119.35 L274.07,119.26 L274.59,119.17 L275.12,119.08 L275.65,118.98 L276.17,118.89 L276.69,118.80 L277.22,118.71 L277.74,118.62 L278.27,118.53 L278.79,118.43 L279.32,118.34 L279.84,118.25 L280.37,118.16 L280.90,118.07 L281.42,117.98 L281.95,117.89 L282.48,117.80 L283.00,117.71 L283.52,117.62 L284.05,117.54 L284.57,117.45 L285.10,117.36 L285.62,117.27 L286.15,117.18 L286.67,117.09 L287.20,117.00 L287.73,116.92 L288.25,116.83 L288.78,116.74 L289.30,116.65 L289.83,116.57 L290.36,116.48 L290.88,116.39 L291.40,116.31 L291.93,116.22 L292.45,116.14 L292.98,116.05 L293.50,115.96 L294.03,115.88 L294.55,115.79 L295.08,115.71 L295.61,115.62 L296.13,115.54 L296.66,115.45 L297.18,115.37 L297.71,115.28 L298.23,115.20 L298.76,115.12 L299.28,115.03 L299.81,114.95 L300.33,114.86 L300.86,114.78 L301.38,114.70 L301.91,114.61 L302.43,114.53 L302.96,114.45 L303.49,114.37 L304.01,114.28 L304.54,114.20 L305.06,114.12 L305.59,114.04 L306.11,113.96 L306.64,113.87 L307.16,113.79 L307.69,113.71 L308.21,113.63 L308.74,113.55 L309.26,113.47 L309.79,113.39 L310.31,113.31 L310.84,113.23 L311.37,113.15 L311.89,113.06 L312.42,112.99 L312.94,112.91 L313.47,112.83 L313.99,112.75 L314.52,112.67 L315.04,112.59 L315.57,112.51 L316.09,112.43 L316.62,112.35 L317.14,112.27 L317.67,112.19 L318.19,112.11 L318.72,112.04 L319.25,111.96 L319.77,111.88 L320.30,111.80 L320.82,111.72 L321.35,111.65 L321.87,111.57 L322.40,111.49 L322.92,111.41 L323.45,111.34 L323.97,111.26 L324.50,111.18 L325.02,111.11 L325.55,111.03 L326.07,110.95 L326.60,110.88 L327.13,110.80 L327.65,110.73 L328.18,110.65 L328.70,110.57 L329.23,110.50 L329.75,110.42 L330.28,110.35 L330.80,110.27 L331.33,110.20 L331.85,110.12 L332.38,110.05 L332.90,109.97 L333.43,109.90 L333.95,109.82 L334.48,109.75 L335.01,109.67 L335.53,109.60 L336.06,109.53 L336.58,109.45 L337.11,109.38 L337.63,109.30 L338.16,109.23 L338.68,109.16 L339.21,109.08 L339.73,109.01 L340.26,108.94 L340.78,108.86 L341.31,108.79 L341.83,108.72 L342.36,108.65 L342.89,108.57 L343.41,108.50 L343.94,108.43 L344.46,108.36 L344.99,108.28 L345.51,108.21 L346.04,108.14 L346.56,108.07 L347.09,108.00 L347.61,107.93 L348.14,107.85 L348.66,107.78 L349.19,107.71 L349.72,107.64 L350.24,107.57 L350.77,107.50 L351.29,107.43 L351.82,107.36 L352.34,107.29 L352.87,107.22 L353.39,107.15 L353.92,107.08 L354.44,107.01 L354.97,106.94 L355.49,106.87 L356.02,106.80 L356.54,106.73 L357.07,106.66 L357.60,106.59 L358.12,106.52 L358.65,106.45 L359.17,106.38 L359.70,106.31 L360.22,106.24 L360.75,106.17 L361.27,106.10 L361.80,106.03 L362.32,105.97 L362.85,105.90 L363.37,105.83 L363.90,105.76 L364.42,105.69 L364.95,105.62 L365.48,105.56 L366.00,105.49 L366.53,105.42 L367.05,105.35 L367.58,105.28 L368.10,105.22 L368.63,105.15 L369.15,105.08 L369.68,105.01 L370.20,104.95 L370.73,104.88 L371.25,104.81 L371.78,104.75 L372.30,104.68 L372.83,104.61 L373.36,104.55 L373.88,104.48 L374.41,104.41 L374.93,104.35 L375.46,104.28 L375.98,104.21 L376.51,104.15 L377.03,104.08 L377.56,104.02 L378.08,103.95 L378.61,103.89 L379.13,103.82 L379.66,103.75 L380.18,103.69 L380.71,103.62 L381.24,103.56 L381.76,103.49 L382.29,103.43 L382.81,103.36 L383.34,103.30 L383.86,103.23 L384.39,103.17 L384.91,103.10 L385.44,103.04 L385.96,102.97 L386.49,102.91 L387.01,102.84 L387.54,102.78 L388.06,102.72 L388.59,102.65 L389.12,102.59 L389.64,102.52 L390.17,102.46 L390.69,102.40 L391.22,102.33 L391.74,102.27 L392.27,102.21 L392.79,102.14 L393.31,102.08 L393.84,102.02 L394.37,101.95 L394.89,101.89 L395.42,101.83 L395.94,101.76 L396.47,101.70 L397.00,101.64 L397.52,101.57 L398.05,101.51 L398.57,101.45 L399.10,101.39 L399.62,101.32 L400.14,101.26 L400.67,101.20 L401.19,101.14 L401.72,101.07 L402.25,101.01 L402.77,100.95 L403.30,100.89 L403.82,100.83 L404.35,100.76 L404.88,100.70 L405.40,100.64 L405.93,100.58 L406.45,100.52 L406.98,100.46 L407.50,100.40 L408.02,100.33 L408.55,100.27 L409.07,100.21 L409.60,100.15 L410.13,100.09 L410.65,100.03 L411.18,99.97 L411.71,99.91 L412.23,99.85 L412.76,99.79 L413.28,99.73 L413.81,99.66 L414.33,99.60 L414.85,99.54 L415.38,99.48 L415.90,99.42 L416.43,99.36 L416.96,99.30 L417.48,99.24 L418.01,99.18 L418.53,99.12 L419.06,99.06 L419.59,99.00 L420.11,98.94 L420.64,98.88 L421.16,98.82 L421.69,98.77 L422.21,98.71 L422.73,98.65 L423.26,98.59 L423.78,98.53 L424.31,98.47 L424.84,98.41 L425.36,98.35 L425.89,98.29 L426.41,98.23 L426.94,98.17 L427.47,98.12 L427.99,98.06 L428.52,98.00 L429.04,97.94 L429.56,97.88 L430.09,97.82 L430.61,97.76 L431.14,97.71 L431.66,97.65 L432.19,97.59 L432.72,97.53 L433.24,97.47 L433.77,97.42 L434.29,97.36 L434.82,97.30 L435.35,97.24 L435.87,97.18 L436.40,97.13 L436.92,97.07 L437.44,97.01 L437.97,96.95 L438.49,96.90 L439.02,96.84 L439.54,96.78 L440.07,96.72 L440.60,96.67 L441.12,96.61 L441.65,96.55 L442.17,96.49 L442.70,96.44 L443.23,96.38 L443.75,96.32 L444.27,96.27 L444.80,96.21 L445.32,96.15 L445.85,96.10 L446.37,96.04 L446.90,95.98 L447.42,95.93 L447.95,95.87 L448.48,95.82 L449.00,95.76 L449.53,95.70 L450.05,95.65 L450.58,95.59 L451.11,95.53 L451.63,95.48 L452.15,95.42 L452.68,95.37 L453.20,95.31 L453.73,95.25 L454.25,95.20 L454.78,95.14 L455.30,95.09 L455.83,95.03 L456.36,94.98 L456.88,94.92 L457.41,94.87 L457.93,94.81 L458.46,94.76 L458.98,94.70 L459.51,94.64 L460.03,94.59 L460.56,94.53 L461.08,94.48 L461.61,94.42 L462.13,94.37 L462.66,94.31 L463.18,94.26 L463.71,94.21 L464.24,94.15 L464.76,94.10 L465.29,94.04 L465.81,93.99 L466.34,93.93 L466.86,93.88 L467.39,93.82 L467.91,93.77 L468.44,93.72 L468.96,93.66 L469.49,93.61 L470.01,93.55 L470.54,93.50 L471.06,93.44 L471.59,93.39 L472.12,93.34 L472.64,93.28 L473.17,93.23 L473.69,93.18 L474.22,93.12 L474.74,93.07 L475.27,93.01 L475.79,92.96 L476.32,92.91 L476.84,92.85 L477.37,92.80 L477.89,92.75 L478.42,92.69 L478.95,92.64 L479.47,92.59 L480.00,92.53 L480.52,92.48 L481.05,92.43 L481.57,92.37 L482.10,92.32 L482.62,92.27 L483.15,92.22 L483.67,92.16 L484.20,92.11 L484.72,92.06 L485.25,92.00 L485.77,91.95 L486.30,91.90 L486.83,91.85 L487.35,91.79 L487.88,91.74 L488.40,91.69 L488.93,91.64 L489.45,91.58 L489.98,91.53 L490.50,91.48 L491.03,91.43 L491.55,91.38 L492.08,91.32 L492.60,91.27 L493.13,91.22 L493.65,91.17 L494.18,91.11 L494.71,91.06 L495.23,91.01 L495.76,90.96 L496.28,90.91 L496.81,90.86 L497.33,90.80 L497.86,90.75 L498.38,90.70 L498.91,90.65 L499.43,90.60 L499.96,90.55 L500.48,90.50 L501.01,90.44 L501.53,90.39 L502.06,90.34 L502.59,90.29 L503.11,90.24 L503.64,90.19 L504.16,90.14 L504.69,90.09 L505.21,90.04 L505.74,89.98 L506.26,89.93 L506.79,89.88 L507.31,89.83 L507.84,89.78 L508.36,89.73 L508.89,89.68 L509.41,89.63 L509.94,89.58 L510.47,89.53 L510.99,89.48 L511.52,89.43 L512.04,89.38 L512.57,89.33 L513.09,89.27 L513.62,89.22 L514.14,89.17 L514.67,89.12 L515.19,89.07 L515.72,89.02 L516.24,88.97 L516.77,88.92 L517.29,88.87 L517.82,88.82 L518.35,88.77 L518.87,88.72 L519.40,88.67 L519.92,88.62 L520.45,88.57 L520.97,88.52 L521.50,88.47 L522.02,88.42 L522.55,88.37 L523.07,88.33 L523.60,88.28 L524.12,88.23 L524.65,88.18 L525.17,88.13 L525.70,88.08 L526.23,88.03 L526.75,87.98 L527.28,87.93 L527.80,87.88 L528.33,87.83 L528.85,87.78 L529.38,87.73 L529.90,87.68 L530.43,87.63 L530.95,87.59 L531.48,87.54 L532.00,87.49 L532.53,87.44 L533.05,87.39 L533.58,87.34 L534.11,87.29 L534.63,87.24 L535.16,87.19 L535.68,87.15 L536.21,87.10 L536.73,87.05 L537.26,87.00 L537.78,86.95 L538.31,86.90 L538.83,86.85 L539.36,86.81 L539.88,86.76 L540.41,86.71 L540.94,86.66 L541.46,86.61 L541.99,86.56 L542.51,86.52 L543.04,86.47 L543.56,86.42 L544.09,86.37 L544.61,86.32 L545.14,86.28 L545.66,86.23 L546.19,86.18 L546.71,86.13 L547.24,86.08 L547.76,86.04 L548.29,85.99 L548.82,85.94 L549.34,85.89 L549.87,85.84 L550.39,85.80 L550.92,85.75 L551.44,85.70 L551.97,85.65 L552.49,85.61 L553.02,85.56 L553.54,85.51 L554.07,85.46 L554.59,85.42 L555.12,85.37 L555.64,85.32 L556.17,85.27 L556.70,85.23 L557.22,85.18 L557.75,85.13 L558.27,85.09 L558.80,85.04 L559.32,84.99 L559.85,84.94 L560.37,84.90 L560.89,84.85 L561.42,84.80 L561.95,84.76 L562.47,84.71 L563.00,84.66 L563.52,84.62 L564.05,84.57 L564.58,84.52 L565.10,84.48 L565.63,84.43 L566.15,84.38 L566.68,84.33 L567.20,84.29 L567.73,84.24 L568.25,84.20 L568.77,84.15 L569.30,84.10 L569.83,84.06 L570.35,84.01 L570.88,83.96 L571.40,83.92 L571.93,83.87 L572.46,83.82 L572.98,83.78 L573.51,83.73 L574.03,83.69 L574.56,83.64 L575.08,83.59 L575.60,83.55 L576.13,83.50 L576.65,83.45 L577.18,83.41 L577.71,83.36 L578.23,83.32 L578.76,83.27 L579.28,83.22 L579.81,83.18 L580.34,83.13 L580.86,83.09 L581.39,83.04 L581.91,83.00 L582.44,82.95 L582.96,82.90 L583.48,82.86 L584.01,82.81 L584.53,82.77 L585.06,82.72 L585.59,82.68 L586.11,82.63 L586.64,82.59 L587.16,82.54 L587.69,82.49 L588.22,82.45 L588.74,82.40 L589.27,82.36 L589.79,82.31 L590.31,82.27 L590.84,82.22 L591.36,82.18 L591.89,82.13 L592.41,82.09 L592.94,82.04 L593.47,82.00 L593.99,81.95 L594.52,81.91 L595.04,81.86 L595.57,81.82 L596.10,81.77 L596.62,81.73 L597.15,81.68 L597.67,81.64 L598.19,81.59 L598.72,81.55 L599.24,81.50 L599.77,81.46 L600.29,81.41 L600.82,81.37 L601.35,81.32 L601.87,81.28 L602.40,81.24 L602.93,81.19 L603.45,81.15 L603.98,81.10 L604.50,81.06 L605.02,81.01 L605.55,80.97 L606.07,80.92 L606.60,80.88 L607.12,80.84 L607.65,80.79 L608.18,80.75 L608.70,80.70 L609.23,80.66 L609.75,80.61 L610.28,80.57 L610.81,80.52 L611.33,80.48 L611.86,80.44 L612.38,80.39 L612.90,80.35 L613.43,80.30 L613.95,80.26 L614.48,80.22 L615.00,80.17 L615.53,80.13 L616.06,80.09 L616.58,80.04 L617.11,80.00 L617.63,79.95 L618.16,79.91 L618.69,79.87 L619.21,79.82 L619.73,79.78 L620.26,79.73 L620.78,79.69 L621.31,79.65 L621.83,79.60 L622.36,79.56 L622.88,79.52 L623.41,79.47 L623.94,79.43 L624.46,79.39 L624.99,79.34 L625.51,79.30 L626.04,79.26 L626.56,79.21 L627.09,79.17 L627.61,79.13 L628.14,79.08 L628.66,79.04 L629.19,79.00 L629.71,78.95 L630.24,78.91 L630.76,78.87 L631.29,78.82 L631.82,78.78 L632.34,78.74 L632.87,78.69 L633.39,78.65 L633.92,78.61 L634.44,78.57 L634.97,78.52 L635.49,78.48 L636.02,78.44 L636.54,78.39 L637.07,78.35 L637.59,78.31 L638.12,78.27 L638.64,78.22 L639.17,78.18 L639.70,78.14 L640.22,78.09 L640.75,78.05 L641.27,78.01 L641.80,77.97 L642.32,77.92 L642.85,77.88 L643.37,77.84 L643.90,77.80 L644.42,77.75 L644.95,77.71 L645.47,77.67 L646.00,77.63 L646.52,77.58 L647.05,77.54 L647.58,77.50 L648.10,77.46 L648.63,77.41 L649.15,77.37 L649.68,77.33 L650.20,77.29 L650.73,77.24 L651.25,77.20 L651.78,77.16 L652.30,77.12 L652.83,77.08 L653.35,77.03 L653.88,76.99 L654.40,76.95 L654.93,76.91 L655.46,76.87 L655.98,76.82 L656.51,76.78 L657.03,76.74 L657.56,76.70 L658.08,76.66 L658.61,76.61 L659.13,76.57 L659.66,76.53 L660.18,76.49 L660.71,76.45 L661.23,76.41 L661.76,76.36 L662.28,76.32 L662.81,76.28 L663.34,76.24 L663.86,76.20 L664.39,76.15 L664.91,76.11 L665.44,76.07 L665.96,76.03 L666.49,75.99 L667.01,75.95 L667.54,75.91 L668.06,75.86 L668.59,75.82 L669.11,75.78 L669.64,75.74 L670.17,75.70 L670.69,75.66 L671.22,75.62 L671.74,75.57 L672.27,75.53 L672.79,75.49 L673.32,75.45 L673.84,75.41 L674.37,75.37 L674.89,75.33 L675.42,75.29 L675.94,75.24 L676.47,75.20 L676.99,75.16 L677.52,75.12 L678.05,75.08 L678.57,75.04 L679.10,75.00 L679.62,74.96 L680.15,74.92 L680.67,74.88 L681.20,74.83 L681.72,74.79 L682.25,74.75 L682.77,74.71 L683.30,74.67 L683.82,74.63 L684.35,74.59 L684.87,74.55 L685.40,74.51 L685.93,74.47 L686.45,74.43 L686.98,74.38 L687.50,74.34 L688.03,74.30 L688.55,74.26 L689.08,74.22 L689.60,74.18 L690.13,74.14 L690.65,74.10 L691.18,74.06 L691.70,74.02 L692.23,73.98 L692.75,73.94 L693.28,73.90 L693.81,73.86 L694.33,73.82 L694.86,73.78 L695.38,73.74 L695.91,73.70 L696.43,73.66 L696.96,73.62 L697.48,73.58 L698.01,73.53 L698.53,73.49 L699.06,73.45 L699.58,73.41 L700.11,73.37 L700.63,73.33 L701.16,73.29 L701.69,73.25 L702.21,73.21 L702.74,73.17 L703.26,73.13 L703.79,73.09 L704.31,73.05 L704.84,73.01 L705.36,72.97 L705.89,72.93 L706.41,72.89 L706.94,72.85 L707.46,72.81 L707.99,72.77 L708.51,72.73 L709.04,72.69 L709.57,72.65 L710.09,72.61 L710.62,72.57 L711.14,72.53 L711.67,72.49 L712.19,72.45 L712.72,72.41 L713.24,72.38 L713.77,72.34 L714.29,72.30 L714.82,72.26 L715.34,72.22 L715.87,72.18 L716.39,72.14 L716.92,72.10 L717.45,72.06 L717.97,72.02 L718.50,71.98 L719.02,71.94 L719.55,71.90 L720.07,71.86 L720.60,71.82 L721.12,71.78 L721.64,71.74 L722.17,71.70 L722.70,71.66 L723.22,71.62 L723.75,71.58 L724.27,71.55 L724.80,71.51 L725.33,71.47 L725.85,71.43 L726.38,71.39 L726.90,71.35 L727.43,71.31 L727.95,71.27 L728.48,71.23 L729.00,71.19 L729.52,71.15 L730.05,71.11 L730.58,71.08 L731.10,71.04 L731.63,71.00 L732.16,70.96 L732.68,70.92 L733.21,70.88 L733.73,70.84 L734.26,70.80 L734.78,70.76 L735.31,70.72 L735.83,70.68 L736.35,70.65 L736.88,70.61 L737.41,70.57 L737.93,70.53 L738.46,70.49 L738.98,70.45 L739.51,70.41 L740.04,70.37 L740.56,70.34 L741.09,70.30 L741.61,70.26 L742.14,70.22 L742.66,70.18 L743.19,70.14 L743.71,70.10 L744.23,70.06 L744.76,70.03 L745.29,69.99 L745.81,69.95 L746.34,69.91 L746.86,69.87 L747.39,69.83 L747.92,69.79 L748.44,69.76 L748.97,69.72 L749.49,69.68 L750.02,69.64 L750.54,69.60 L751.06,69.56 L751.59,69.53 L752.11,69.49 L752.64,69.45 L753.17,69.41 L753.69,69.37 L754.22,69.33 L754.74,69.29 L755.27,69.26 L755.80,69.22 L756.32,69.18 L756.85,69.14 L757.37,69.10 L757.90,69.07 L758.42,69.03 L758.94,68.99 L759.47,68.95 L759.99,68.91 L760.52,68.87 L761.05,68.84 L761.57,68.80 L762.10,68.76 L762.62,68.72 L763.15,68.68 L763.68,68.65 L764.20,68.61 L764.73,68.57 L765.25,68.53 L765.77,68.49 L766.30,68.46 L766.82,68.42 L767.35,68.38 L767.87,68.34 L768.40,68.30 L768.93,68.27 L769.45,68.23 L769.98,68.19 L770.50,68.15 L771.03,68.12 L771.56,68.08 L772.08,68.04 L772.61,68.00 L773.13,67.96 L773.65,67.93 L774.18,67.89 L774.70,67.85 L775.23,67.81 L775.75,67.78 L776.28,67.74 L776.81,67.70 L777.33,67.66 L777.86,67.63 L778.38,67.59 L778.91,67.55 L779.44,67.51 L779.96,67.48 L780.48,67.44 L781.01,67.40 L781.53,67.36 L782.06,67.33 L782.58,67.29 L783.11,67.25 L783.63,67.21 L784.16,67.18 L784.69,67.14 L785.21,67.10 L785.74,67.06 L786.26,67.03 L786.79,66.99 L787.31,66.95 L787.84,66.91 L788.36,66.88 L788.89,66.84 L789.41,66.80 L789.94,66.77 L790.46,66.73 L790.99,66.69 L791.51,66.65 L792.04,66.62 L792.57,66.58 L793.09,66.54 L793.62,66.51 L794.15,66.47 L794.67,66.43 L795.19,66.39 L795.72,66.36 L796.24,66.32 L796.77,66.28 L797.29,66.25 L797.82,66.21 L798.34,66.17 L798.87,66.13 L799.40,66.10 L799.92,66.06 L800.45,66.02 L800.97,65.99 L801.50,65.95 L802.02,65.91 L802.55,65.88 L803.07,65.84 L803.60,65.80 L804.12,65.77 L804.65,65.73 L805.17,65.69 L805.70,65.66 L806.22,65.62 L806.75,65.58 L807.28,65.54 L807.80,65.51 L808.33,65.47 L808.85,65.43 L809.38,65.40 L809.90,65.36 L810.43,65.32 L810.95,65.29 L811.48,65.25 L812.00,65.21 L812.53,65.18 L813.05,65.14 L813.58,65.10 L814.10,65.07 L814.63,65.03 L815.16,65.00 L815.68,64.96 L816.21,64.92 L816.73,64.89 L817.26,64.85 L817.78,64.81 L818.31,64.78 L818.83,64.74 L819.36,64.70 L819.88,64.67 L820.41,64.63 L820.93,64.59 L821.46,64.56 L821.98,64.52 L822.51,64.49 L823.04,64.45 L823.56,64.41 L824.09,64.38 L824.61,64.34 L825.14,64.30 L825.66,64.27 L826.19,64.23 L826.71,64.20 L827.24,64.16 L827.76,64.12 L828.29,64.09 L828.81,64.05 L829.34,64.01 L829.86,63.98 L830.39,63.94 L830.92,63.91 L831.44,63.87 L831.97,63.83 L832.49,63.80 L833.02,63.76 L833.54,63.73 L834.07,63.69 L834.59,63.65 L835.12,63.62 L835.64,63.58 L836.17,63.55 L836.69,63.51 L837.22,63.47 L837.74,63.44 L838.27,63.40 L838.80,63.37 L839.32,63.33 L839.85,63.29 L840.37,63.26 L840.90,63.22 L841.42,63.19 L841.95,63.15 L842.47,63.11 L843.00,63.08 L843.52,63.04 L844.05,63.01 L844.57,62.97 L845.10,62.94 L845.62,62.90 L846.15,62.86 L846.68,62.83 L847.20,62.79 L847.73,62.76 L848.25,62.72 L848.78,62.69 L849.30,62.65 L849.83,62.61 L850.35,62.58 L850.88,62.54 L851.40,62.51 L851.93,62.47 L852.45,62.44 L852.98,62.40 L853.50,62.36 L854.03,62.33 L854.56,62.29 L855.08,62.26 L855.61,62.22 L856.13,62.19 L856.66,62.15 L857.18,62.12 L857.71,62.08 L858.23,62.05 L858.76,62.01 L859.28,61.97 L859.81,61.94 L860.33,61.90 L860.86,61.87 L861.39,61.83 L861.91,61.80 L862.44,61.76 L862.96,61.73 L863.49,61.69 L864.01,61.66 L864.54,61.62 L865.06,61.59 L865.59,61.55 L866.11,61.52 L866.64,61.48 L867.16,61.44 L867.69,61.41 L868.21,61.37 L868.74,61.34 L869.27,61.30 L869.79,61.27 L870.32,61.23 L870.84,61.20 L871.37,61.16 L871.89,61.13 L872.42,61.09 L872.94,61.06 L873.47,61.02 L873.99,60.99 L874.52,60.95 L875.04,60.92 L875.57,60.88 L876.09,60.85 L876.62,60.81 L877.15,60.78 L877.67,60.74 L878.20,60.71 L878.72,60.67 L879.25,60.64 L879.77,60.60 L880.30,60.57 L880.82,60.53 L881.35,60.50 L881.87,60.46 L882.40,60.43 L882.92,60.39 L883.45,60.36 L883.97,60.32 L884.50,60.29 L885.03,60.25 L885.55,60.22 L886.08,60.18 L886.60,60.15 L887.13,60.11 L887.65,60.08 L888.18,60.05 L888.70,60.01 L889.23,59.98 L889.75,59.94 L890.28,59.91 L890.80,59.87 L891.33,59.84 L891.85,59.80 L892.38,59.77 L892.91,59.73 L893.43,59.70 L893.96,59.66 L894.48,59.63 L895.01,59.59 L895.53,59.56 L896.06,59.53 L896.58,59.49 L897.10,59.46 L897.63,59.42 L898.16,59.39 L898.68,59.35 L899.21,59.32 L899.73,59.28 L900.26,59.25 L900.79,59.21 L901.31,59.18 L901.84,59.15 L902.36,59.11 L902.89,59.08 L903.41,59.04 L903.94,59.01 L904.46,58.97 L904.98,58.94 L905.51,58.90 L906.04,58.87 L906.56,58.84 L907.09,58.80 L907.61,58.77 L908.14,58.73 L908.67,58.70 L909.19,58.66 L909.72,58.63 L910.24,58.60 L910.77,58.56 L911.29,58.53 L911.81,58.49 L912.34,58.46 L912.86,58.42 L913.39,58.39 L913.92,58.36 L914.44,58.32 L914.97,58.29 L915.49,58.25 L916.02,58.22 L916.55,58.19 L917.07,58.15 L917.60,58.12 L918.12,58.08 L918.65,58.05 L919.17,58.01 L919.69,57.98 L920.22,57.95 L920.74,57.91 L921.27,57.88 L921.80,57.84 L922.32,57.81 L922.85,57.78 L923.38,57.74 L923.90,57.71 L924.43,57.67 L924.95,57.64 L925.48,57.61 L926.00,57.57 " fill="none" stroke="#cc7045" stroke-width="2.6"/><circle cx="86.00" cy="440.00" r="3.2" fill="#cc7045"/><circle cx="93.06" cy="214.21" r="3.2" fill="#cc7045"/><circle cx="100.12" cy="195.16" r="3.2" fill="#cc7045"/><circle cx="107.17" cy="183.94" r="3.2" fill="#cc7045"/><circle cx="114.23" cy="175.90" r="3.2" fill="#cc7045"/><circle cx="121.29" cy="169.61" r="3.2" fill="#cc7045"/><circle cx="128.35" cy="164.43" r="3.2" fill="#cc7045"/><circle cx="135.41" cy="160.02" r="3.2" fill="#cc7045"/><circle cx="142.47" cy="156.17" r="3.2" fill="#cc7045"/><circle cx="149.53" cy="152.75" r="3.2" fill="#cc7045"/><circle cx="156.59" cy="149.66" r="3.2" fill="#cc7045"/><circle cx="163.65" cy="146.84" r="3.2" fill="#cc7045"/><circle cx="170.71" cy="144.25" r="3.2" fill="#cc7045"/><circle cx="177.76" cy="141.85" r="3.2" fill="#cc7045"/><circle cx="184.82" cy="139.61" r="3.2" fill="#cc7045"/><circle cx="191.88" cy="137.51" r="3.2" fill="#cc7045"/><circle cx="198.94" cy="135.53" r="3.2" fill="#cc7045"/><circle cx="206.00" cy="133.66" r="3.2" fill="#cc7045"/><circle cx="213.06" cy="131.88" r="3.2" fill="#cc7045"/><circle cx="220.12" cy="130.18" r="3.2" fill="#cc7045"/><circle cx="227.18" cy="128.56" r="3.2" fill="#cc7045"/><circle cx="234.24" cy="127.01" r="3.2" fill="#cc7045"/><circle cx="241.30" cy="125.52" r="3.2" fill="#cc7045"/><circle cx="248.36" cy="124.08" r="3.2" fill="#cc7045"/><circle cx="255.41" cy="122.70" r="3.2" fill="#cc7045"/><circle cx="262.47" cy="121.36" r="3.2" fill="#cc7045"/><circle cx="269.53" cy="120.07" r="3.2" fill="#cc7045"/><circle cx="276.59" cy="118.82" r="3.2" fill="#cc7045"/><circle cx="283.65" cy="117.60" r="3.2" fill="#cc7045"/><circle cx="290.70" cy="116.42" r="3.2" fill="#cc7045"/><circle cx="297.76" cy="115.27" r="3.2" fill="#cc7045"/><circle cx="304.82" cy="114.16" r="3.2" fill="#cc7045"/><circle cx="311.88" cy="113.07" r="3.2" fill="#cc7045"/><circle cx="318.94" cy="112.00" r="3.2" fill="#cc7045"/><circle cx="326.00" cy="110.97" r="3.2" fill="#cc7045"/><circle cx="333.06" cy="109.95" r="3.2" fill="#cc7045"/><circle cx="340.12" cy="108.96" r="3.2" fill="#cc7045"/><circle cx="347.18" cy="107.99" r="3.2" fill="#cc7045"/><circle cx="354.24" cy="107.03" r="3.2" fill="#cc7045"/><circle cx="361.29" cy="106.10" r="3.2" fill="#cc7045"/><circle cx="368.35" cy="105.19" r="3.2" fill="#cc7045"/><circle cx="375.41" cy="104.29" r="3.2" fill="#cc7045"/><circle cx="382.47" cy="103.40" r="3.2" fill="#cc7045"/><circle cx="389.53" cy="102.54" r="3.2" fill="#cc7045"/><circle cx="396.59" cy="101.69" r="3.2" fill="#cc7045"/><circle cx="403.65" cy="100.85" r="3.2" fill="#cc7045"/><circle cx="410.71" cy="100.02" r="3.2" fill="#cc7045"/><circle cx="417.77" cy="99.21" r="3.2" fill="#cc7045"/><circle cx="424.82" cy="98.41" r="3.2" fill="#cc7045"/><circle cx="431.88" cy="97.62" r="3.2" fill="#cc7045"/><circle cx="438.94" cy="96.85" r="3.2" fill="#cc7045"/><circle cx="446.00" cy="96.08" r="3.2" fill="#cc7045"/><circle cx="453.06" cy="95.33" r="3.2" fill="#cc7045"/><circle cx="460.12" cy="94.58" r="3.2" fill="#cc7045"/><circle cx="467.18" cy="93.85" r="3.2" fill="#cc7045"/><circle cx="474.23" cy="93.12" r="3.2" fill="#cc7045"/><circle cx="481.29" cy="92.40" r="3.2" fill="#cc7045"/><circle cx="488.35" cy="91.69" r="3.2" fill="#cc7045"/><circle cx="495.41" cy="90.99" r="3.2" fill="#cc7045"/><circle cx="502.47" cy="90.30" r="3.2" fill="#cc7045"/><circle cx="509.53" cy="89.62" r="3.2" fill="#cc7045"/><circle cx="516.59" cy="88.94" r="3.2" fill="#cc7045"/><circle cx="523.65" cy="88.27" r="3.2" fill="#cc7045"/><circle cx="530.71" cy="87.61" r="3.2" fill="#cc7045"/><circle cx="537.77" cy="86.95" r="3.2" fill="#cc7045"/><circle cx="544.82" cy="86.30" r="3.2" fill="#cc7045"/><circle cx="551.88" cy="85.66" r="3.2" fill="#cc7045"/><circle cx="558.94" cy="85.03" r="3.2" fill="#cc7045"/><circle cx="566.00" cy="84.40" r="3.2" fill="#cc7045"/><circle cx="573.06" cy="83.77" r="3.2" fill="#cc7045"/><circle cx="580.12" cy="83.15" r="3.2" fill="#cc7045"/><circle cx="587.18" cy="82.54" r="3.2" fill="#cc7045"/><circle cx="594.23" cy="81.93" r="3.2" fill="#cc7045"/><circle cx="601.29" cy="81.33" r="3.2" fill="#cc7045"/><circle cx="608.35" cy="80.73" r="3.2" fill="#cc7045"/><circle cx="615.41" cy="80.14" r="3.2" fill="#cc7045"/><circle cx="622.47" cy="79.55" r="3.2" fill="#cc7045"/><circle cx="629.53" cy="78.97" r="3.2" fill="#cc7045"/><circle cx="636.59" cy="78.39" r="3.2" fill="#cc7045"/><circle cx="643.65" cy="77.82" r="3.2" fill="#cc7045"/><circle cx="650.71" cy="77.25" r="3.2" fill="#cc7045"/><circle cx="657.76" cy="76.68" r="3.2" fill="#cc7045"/><circle cx="664.82" cy="76.12" r="3.2" fill="#cc7045"/><circle cx="671.88" cy="75.56" r="3.2" fill="#cc7045"/><circle cx="678.94" cy="75.01" r="3.2" fill="#cc7045"/><circle cx="686.00" cy="74.46" r="3.2" fill="#cc7045"/><circle cx="693.06" cy="73.92" r="3.2" fill="#cc7045"/><circle cx="700.12" cy="73.37" r="3.2" fill="#cc7045"/><circle cx="707.18" cy="72.83" r="3.2" fill="#cc7045"/><circle cx="714.24" cy="72.30" r="3.2" fill="#cc7045"/><circle cx="721.30" cy="71.77" r="3.2" fill="#cc7045"/><circle cx="728.35" cy="71.24" r="3.2" fill="#cc7045"/><circle cx="735.41" cy="70.72" r="3.2" fill="#cc7045"/><circle cx="742.47" cy="70.19" r="3.2" fill="#cc7045"/><circle cx="749.53" cy="69.68" r="3.2" fill="#cc7045"/><circle cx="756.59" cy="69.16" r="3.2" fill="#cc7045"/><circle cx="763.64" cy="68.65" r="3.2" fill="#cc7045"/><circle cx="770.70" cy="68.14" r="3.2" fill="#cc7045"/><circle cx="777.76" cy="67.63" r="3.2" fill="#cc7045"/><circle cx="784.82" cy="67.13" r="3.2" fill="#cc7045"/><circle cx="791.88" cy="66.63" r="3.2" fill="#cc7045"/><circle cx="798.94" cy="66.13" r="3.2" fill="#cc7045"/><circle cx="806.00" cy="65.63" r="3.2" fill="#cc7045"/><circle cx="813.06" cy="65.14" r="3.2" fill="#cc7045"/><circle cx="820.12" cy="64.65" r="3.2" fill="#cc7045"/><circle cx="827.18" cy="64.16" r="3.2" fill="#cc7045"/><circle cx="834.24" cy="63.68" r="3.2" fill="#cc7045"/><circle cx="841.29" cy="63.19" r="3.2" fill="#cc7045"/><circle cx="848.35" cy="62.71" r="3.2" fill="#cc7045"/><circle cx="855.41" cy="62.24" r="3.2" fill="#cc7045"/><circle cx="862.47" cy="61.76" r="3.2" fill="#cc7045"/><circle cx="869.53" cy="61.29" r="3.2" fill="#cc7045"/><circle cx="876.59" cy="60.81" r="3.2" fill="#cc7045"/><circle cx="883.65" cy="60.35" r="3.2" fill="#cc7045"/><circle cx="890.71" cy="59.88" r="3.2" fill="#cc7045"/><circle cx="897.77" cy="59.41" r="3.2" fill="#cc7045"/><circle cx="904.83" cy="58.95" r="3.2" fill="#cc7045"/><circle cx="911.88" cy="58.49" r="3.2" fill="#cc7045"/><circle cx="918.94" cy="58.03" r="3.2" fill="#cc7045"/><circle cx="926.00" cy="57.57" r="3.2" fill="#cc7045"/><path d="M86.00,440.00 L128.00,276.29 L170.00,256.12 L212.00,243.76 L254.00,234.59 L296.00,227.18 L338.00,220.87 L380.00,215.33 L422.00,210.35 L464.00,205.80 L506.00,201.58 L548.00,197.64 L590.00,193.92 L632.00,190.39 L674.00,187.02 L716.00,183.79 L758.00,180.68 L800.00,177.68 L842.00,174.77 L884.00,171.94 L926.00,169.19 " fill="none" stroke="#2f5fa7" stroke-width="2.6"/><circle cx="86.00" cy="440.00" r="3.2" fill="#2f5fa7"/><circle cx="128.00" cy="276.29" r="3.2" fill="#2f5fa7"/><circle cx="170.00" cy="256.12" r="3.2" fill="#2f5fa7"/><circle cx="212.00" cy="243.76" r="3.2" fill="#2f5fa7"/><circle cx="254.00" cy="234.59" r="3.2" fill="#2f5fa7"/><circle cx="296.00" cy="227.18" r="3.2" fill="#2f5fa7"/><circle cx="338.00" cy="220.87" r="3.2" fill="#2f5fa7"/><circle cx="380.00" cy="215.33" r="3.2" fill="#2f5fa7"/><circle cx="422.00" cy="210.35" r="3.2" fill="#2f5fa7"/><circle cx="464.00" cy="205.80" r="3.2" fill="#2f5fa7"/><circle cx="506.00" cy="201.58" r="3.2" fill="#2f5fa7"/><circle cx="548.00" cy="197.64" r="3.2" fill="#2f5fa7"/><circle cx="590.00" cy="193.92" r="3.2" fill="#2f5fa7"/><circle cx="632.00" cy="190.39" r="3.2" fill="#2f5fa7"/><circle cx="674.00" cy="187.02" r="3.2" fill="#2f5fa7"/><circle cx="716.00" cy="183.79" r="3.2" fill="#2f5fa7"/><circle cx="758.00" cy="180.68" r="3.2" fill="#2f5fa7"/><circle cx="800.00" cy="177.68" r="3.2" fill="#2f5fa7"/><circle cx="842.00" cy="174.77" r="3.2" fill="#2f5fa7"/><circle cx="884.00" cy="171.94" r="3.2" fill="#2f5fa7"/><circle cx="926.00" cy="169.19" r="3.2" fill="#2f5fa7"/><path d="M86.00,440.00 L128.00,276.29 L170.00,256.12 L212.00,243.76 L254.00,323.92 L296.00,238.21 L338.00,218.68 L380.00,206.54 L422.00,197.48 L464.00,190.14 L506.00,183.87 L548.00,178.37 L590.00,173.41 L632.00,168.87 L674.00,164.67 L716.00,160.74 L758.00,157.03 L800.00,153.51 L842.00,150.15 L884.00,146.92 L926.00,143.82 " fill="none" stroke="#7c4fa0" stroke-width="2.6"/><circle cx="86.00" cy="440.00" r="3.2" fill="#7c4fa0"/><circle cx="128.00" cy="276.29" r="3.2" fill="#7c4fa0"/><circle cx="170.00" cy="256.12" r="3.2" fill="#7c4fa0"/><circle cx="212.00" cy="243.76" r="3.2" fill="#7c4fa0"/><circle cx="254.00" cy="323.92" r="3.2" fill="#7c4fa0"/><circle cx="296.00" cy="238.21" r="3.2" fill="#7c4fa0"/><circle cx="338.00" cy="218.68" r="3.2" fill="#7c4fa0"/><circle cx="380.00" cy="206.54" r="3.2" fill="#7c4fa0"/><circle cx="422.00" cy="197.48" r="3.2" fill="#7c4fa0"/><circle cx="464.00" cy="190.14" r="3.2" fill="#7c4fa0"/><circle cx="506.00" cy="183.87" r="3.2" fill="#7c4fa0"/><circle cx="548.00" cy="178.37" r="3.2" fill="#7c4fa0"/><circle cx="590.00" cy="173.41" r="3.2" fill="#7c4fa0"/><circle cx="632.00" cy="168.87" r="3.2" fill="#7c4fa0"/><circle cx="674.00" cy="164.67" r="3.2" fill="#7c4fa0"/><circle cx="716.00" cy="160.74" r="3.2" fill="#7c4fa0"/><circle cx="758.00" cy="157.03" r="3.2" fill="#7c4fa0"/><circle cx="800.00" cy="153.51" r="3.2" fill="#7c4fa0"/><circle cx="842.00" cy="150.15" r="3.2" fill="#7c4fa0"/><circle cx="884.00" cy="146.92" r="3.2" fill="#7c4fa0"/><circle cx="926.00" cy="143.82" r="3.2" fill="#7c4fa0"/><line x1="86" x2="110" y1="494" y2="494" stroke="#cc7045" stroke-width="3"/><text x="118" y="499">Метод Эйлера</text><line x1="546" x2="570" y1="494" y2="494" stroke="#2f5fa7" stroke-width="3"/><text x="578" y="499">Метод Рунге-Кутта 4-го порядка</text><line x1="86" x2="110" y1="514" y2="514" stroke="#7c4fa0" stroke-width="3"/><text x="118" y="519">Метод Адамса (предиктор-корректор)</text></svg>