<svg xmlns="http://www.w3.org/2000/svg" viewBox="0 0 960 545" role="img" aria-label="График решения задачи Коши">
  <rect width="960" height="545" fill="white"/><defs><clipPath id="plotClip"><rect x="76" y="40" width="850" height="400"/></clipPath></defs>
  <style>text{font-family:Arial,sans-serif;font-size:13px;fill:#526278}.grid{stroke:#e5ecf5;stroke-width:1}</style><path class="grid" d="M76 40V440 M76 440H926"/>
      <text x="76" y="466" text-anchor="middle">0</text>
      <text x="65" y="444" text-anchor="end">0.828</text><path class="grid" d="M217.66666666666666 40V440 M76 373.3333333333333H926"/>
      <text x="217.66666666666666" y="466" text-anchor="middle">0.167</text>
      <text x="65" y="377.3333333333333" text-anchor="end">1.172</text><path class="grid" d="M359.3333333333333 40V440 M76 306.66666666666663H926"/>
      <text x="359.3333333333333" y="466" text-anchor="middle">0.333</text>
      <text x="65" y="310.66666666666663" text-anchor="end">1.515</text><path class="grid" d="M501 40V440 M76 240H926"/>
      <text x="501" y="466" text-anchor="middle">0.5</text>
      <text x="65" y="244" text-anchor="end">1.859</text><path class="grid" d="M642.6666666666666 40V440 M76 173.33333333333326H926"/>
      <text x="642.6666666666666" y="466" text-anchor="middle">0.667</text>
      <text x="65" y="177.33333333333326" text-anchor="end">2.203</text><path class="grid" d="M784.3333333333334 40V440 M76 106.66666666666663H926"/>
      <text x="784.3333333333334" y="466" text-anchor="middle">0.833</text>
      <text x="65" y="110.66666666666663" text-anchor="end">2.546</text><path class="grid" d="M926 40V440 M76 40H926"/>
      <text x="926" y="466" text-anchor="middle">1</text>
      <text x="65" y="44" text-anchor="end">2.89</text><path d="M76 40V440H926" fill="none" stroke="#64748b"/><text x="940" y="444">x</text><text x="65" y="26">y</text><path d="M76.00,406.67 L78.13,406.18 L80.25,405.69 L82.38,405.21 L84.50,404.72 L86.63,404.23 L88.75,403.73 L90.88,403.24 L93.00,402.75 L95.13,402.25 L97.25,401.76 L99.38,401.26 L101.50,400.76 L103.63,400.26 L105.75,399.76 L107.88,399.25 L110.00,398.75 L112.13,398.24 L114.25,397.74 L116.38,397.23 L118.50,396.72 L120.63,396.21 L122.75,395.70 L124.88,395.19 L127.00,394.67 L129.13,394.16 L131.25,393.64 L133.38,393.12 L135.50,392.60 L137.63,392.08 L139.75,391.56 L141.88,391.03 L144.00,390.51 L146.13,389.98 L148.25,389.46 L150.38,388.93 L152.50,388.40 L154.63,387.87 L156.75,387.33 L158.88,386.80 L161.00,386.26 L163.13,385.73 L165.25,385.19 L167.38,384.65 L169.50,384.11 L171.63,383.57 L173.75,383.02 L175.88,382.48 L178.00,381.93 L180.13,381.39 L182.25,380.84 L184.38,380.29 L186.50,379.74 L188.63,379.18 L190.75,378.63 L192.88,378.07 L195.00,377.51 L197.13,376.96 L199.25,376.40 L201.38,375.83 L203.50,375.27 L205.63,374.71 L207.75,374.14 L209.88,373.58 L212.00,373.01 L214.13,372.44 L216.25,371.87 L218.38,371.29 L220.50,370.72 L222.63,370.14 L224.75,369.57 L226.88,368.99 L229.00,368.41 L231.13,367.83 L233.25,367.24 L235.38,366.66 L237.50,366.07 L239.63,365.49 L241.75,364.90 L243.88,364.31 L246.00,363.72 L248.13,363.12 L250.25,362.53 L252.38,361.93 L254.50,361.34 L256.63,360.74 L258.75,360.14 L260.88,359.53 L263.00,358.93 L265.13,358.32 L267.25,357.72 L269.38,357.11 L271.50,356.50 L273.63,355.89 L275.75,355.28 L277.88,354.66 L280.00,354.05 L282.13,353.43 L284.25,352.81 L286.38,352.19 L288.50,351.57 L290.63,350.94 L292.75,350.32 L294.88,349.69 L297.00,349.06 L299.13,348.43 L301.25,347.80 L303.38,347.17 L305.50,346.54 L307.63,345.90 L309.75,345.26 L311.88,344.62 L314.00,343.98 L316.13,343.34 L318.25,342.70 L320.38,342.05 L322.50,341.40 L324.63,340.75 L326.75,340.10 L328.88,339.45 L331.00,338.80 L333.13,338.14 L335.25,337.48 L337.38,336.83 L339.50,336.17 L341.63,335.50 L343.75,334.84 L345.88,334.17 L348.00,333.51 L350.13,332.84 L352.25,332.17 L354.38,331.50 L356.50,330.82 L358.63,330.15 L360.75,329.47 L362.88,328.79 L365.00,328.11 L367.13,327.43 L369.25,326.74 L371.38,326.06 L373.50,325.37 L375.63,324.68 L377.75,323.99 L379.88,323.30 L382.00,322.60 L384.13,321.91 L386.25,321.21 L388.38,320.51 L390.50,319.81 L392.63,319.11 L394.75,318.40 L396.88,317.70 L399.00,316.99 L401.13,316.28 L403.25,315.57 L405.38,314.85 L407.50,314.14 L409.63,313.42 L411.75,312.70 L413.88,311.98 L416.00,311.26 L418.13,310.53 L420.25,309.81 L422.38,309.08 L424.50,308.35 L426.63,307.62 L428.75,306.88 L430.88,306.15 L433.00,305.41 L435.13,304.67 L437.25,303.93 L439.38,303.19 L441.50,302.44 L443.63,301.70 L445.75,300.95 L447.88,300.20 L450.00,299.45 L452.13,298.69 L454.25,297.94 L456.38,297.18 L458.50,296.42 L460.63,295.66 L462.75,294.89 L464.88,294.13 L467.00,293.36 L469.13,292.59 L471.25,291.82 L473.38,291.05 L475.50,290.27 L477.63,289.50 L479.75,288.72 L481.88,287.94 L484.00,287.15 L486.13,286.37 L488.25,285.58 L490.38,284.79 L492.50,284.00 L494.63,283.21 L496.75,282.42 L498.88,281.62 L501.00,280.82 L503.12,280.02 L505.25,279.22 L507.37,278.41 L509.50,277.61 L511.62,276.80 L513.75,275.99 L515.88,275.17 L518.00,274.36 L520.13,273.54 L522.25,272.72 L524.38,271.90 L526.50,271.08 L528.63,270.25 L530.75,269.43 L532.88,268.60 L535.00,267.77 L537.13,266.93 L539.25,266.10 L541.38,265.26 L543.50,264.42 L545.63,263.58 L547.75,262.74 L549.88,261.89 L552.00,261.04 L554.13,260.19 L556.25,259.34 L558.38,258.49 L560.50,257.63 L562.63,256.77 L564.75,255.91 L566.88,255.05 L569.00,254.18 L571.13,253.31 L573.25,252.44 L575.38,251.57 L577.50,250.70 L579.63,249.82 L581.75,248.95 L583.88,248.06 L586.00,247.18 L588.13,246.30 L590.25,245.41 L592.38,244.52 L594.50,243.63 L596.63,242.74 L598.75,241.84 L600.88,240.94 L603.00,240.04 L605.13,239.14 L607.25,238.23 L609.38,237.33 L611.50,236.42 L613.63,235.51 L615.75,234.59 L617.88,233.68 L620.00,232.76 L622.13,231.84 L624.25,230.91 L626.38,229.99 L628.50,229.06 L630.63,228.13 L632.75,227.20 L634.88,226.26 L637.00,225.32 L639.13,224.39 L641.25,223.44 L643.38,222.50 L645.50,221.55 L647.63,220.60 L649.75,219.65 L651.88,218.70 L654.00,217.74 L656.13,216.78 L658.25,215.82 L660.38,214.86 L662.50,213.89 L664.63,212.93 L666.75,211.96 L668.88,210.98 L671.00,210.01 L673.13,209.03 L675.25,208.05 L677.38,207.07 L679.50,206.08 L681.63,205.09 L683.75,204.10 L685.88,203.11 L688.00,202.12 L690.13,201.12 L692.25,200.12 L694.38,199.11 L696.50,198.11 L698.63,197.10 L700.75,196.09 L702.88,195.08 L705.00,194.06 L707.13,193.05 L709.25,192.03 L711.38,191.00 L713.50,189.98 L715.63,188.95 L717.75,187.92 L719.88,186.89 L722.00,185.85 L724.13,184.81 L726.25,183.77 L728.38,182.73 L730.50,181.68 L732.63,180.63 L734.75,179.58 L736.88,178.53 L739.00,177.47 L741.13,176.41 L743.25,175.35 L745.38,174.28 L747.50,173.22 L749.63,172.15 L751.75,171.08 L753.88,170.00 L756.00,168.92 L758.13,167.84 L760.25,166.76 L762.38,165.67 L764.50,164.58 L766.63,163.49 L768.75,162.40 L770.88,161.30 L773.00,160.20 L775.13,159.10 L777.25,157.99 L779.38,156.88 L781.50,155.77 L783.63,154.66 L785.75,153.54 L787.88,152.42 L790.00,151.30 L792.13,150.18 L794.25,149.05 L796.38,147.92 L798.50,146.79 L800.63,145.65 L802.75,144.51 L804.88,143.37 L807.00,142.22 L809.13,141.08 L811.25,139.93 L813.38,138.77 L815.50,137.62 L817.63,136.46 L819.75,135.30 L821.88,134.13 L824.00,132.96 L826.13,131.79 L828.25,130.62 L830.38,129.44 L832.50,128.26 L834.63,127.08 L836.75,125.90 L838.88,124.71 L841.00,123.52 L843.13,122.32 L845.25,121.12 L847.38,119.92 L849.50,118.72 L851.63,117.51 L853.75,116.30 L855.88,115.09 L858.00,113.88 L860.13,112.66 L862.25,111.44 L864.38,110.21 L866.50,108.98 L868.63,107.75 L870.75,106.52 L872.88,105.28 L875.00,104.04 L877.13,102.80 L879.25,101.55 L881.38,100.30 L883.50,99.05 L885.63,97.80 L887.75,96.54 L889.88,95.28 L892.00,94.01 L894.13,92.74 L896.25,91.47 L898.38,90.20 L900.50,88.92 L902.63,87.64 L904.75,86.35 L906.88,85.07 L909.00,83.78 L911.13,82.48 L913.25,81.18 L915.38,79.88 L917.50,78.58 L919.63,77.27 L921.75,75.96 L923.88,74.65 L926.00,73.33 " fill="none" stroke="#3d7c55" stroke-width="3.5"  clip-path="url(#plotClip)"/><path d="M76.00,406.67 L161.00,387.27 L246.00,365.93 L331.00,342.46 L416.00,316.64 L501.00,288.23 L586.00,256.99 L671.00,222.62 L756.00,184.82 L841.00,143.24 L926.00,97.49 " fill="none" stroke="#cc7045" stroke-width="2.4" stroke-dasharray="8 6" clip-path="url(#plotClip)"/><path d="M76.00,406.67 L161.00,386.26 L246.00,363.72 L331.00,338.80 L416.00,311.26 L501.00,280.82 L586.00,247.18 L671.00,210.01 L756.00,168.92 L841.00,123.52 L926.00,73.33 " fill="none" stroke="#2f5fa7" stroke-width="2.4" stroke-dasharray="8 6" clip-path="url(#plotClip)"/><path d="M76.00,406.67 L161.00,386.26 L246.00,363.72 L331.00,338.80 L416.00,311.26 L501.00,280.82 L586.00,247.18 L671.00,210.01 L756.00,168.92 L841.00,123.52 L926.00,73.33 " fill="none" stroke="#7c4fa0" stroke-width="2.4" stroke-dasharray="8 6" clip-path="url(#plotClip)"/><g clip-path="url(#plotClip)"><circle cx="76.00" cy="406.67" r="3.4" fill="white" stroke="#cc7045" stroke-width="2"/><circle cx="161.00" cy="387.27" r="3.4" fill="white" stroke="#cc7045" stroke-width="2"/><circle cx="246.00" cy="365.93" r="3.4" fill="white" stroke="#cc7045" stroke-width="2"/><circle cx="331.00" cy="342.46" r="3.4" fill="white" stroke="#cc7045" stroke-width="2"/><circle cx="416.00" cy="316.64" r="3.4" fill="white" stroke="#cc7045" stroke-width="2"/><circle cx="501.00" cy="288.23" r="3.4" fill="white" stroke="#cc7045" stroke-width="2"/><circle cx="586.00" cy="256.99" r="3.4" fill="white" stroke="#cc7045" stroke-width="2"/><circle cx="671.00" cy="222.62" r="3.4" fill="white" stroke="#cc7045" stroke-width="2"/><circle cx="756.00" cy="184.82" r="3.4" fill="white" stroke="#cc7045" stroke-width="2"/><circle cx="841.00" cy="143.24" r="3.4" fill="white" stroke="#cc7045" stroke-width="2"/><circle cx="926.00" cy="97.49" r="3.4" fill="white" stroke="#cc7045" stroke-width="2"/><circle cx="76.00" cy="406.67" r="3.4" fill="white" stroke="#2f5fa7" stroke-width="2"/><circle cx="161.00" cy="386.26" r="3.4" fill="white" stroke="#2f5fa7" stroke-width="2"/><circle cx="246.00" cy="363.72" r="3.4" fill="white" stroke="#2f5fa7" stroke-width="2"/><circle cx="331.00" cy="338.80" r="3.4" fill="white" stroke="#2f5fa7" stroke-width="2"/><circle cx="416.00" cy="311.26" r="3.4" fill="white" stroke="#2f5fa7" stroke-width="2"/><circle cx="501.00" cy="280.82" r="3.4" fill="white" stroke="#2f5fa7" stroke-width="2"/><circle cx="586.00" cy="247.18" r="3.4" fill="white" stroke="#2f5fa7" stroke-width="2"/><circle cx="671.00" cy="210.01" r="3.4" fill="white" stroke="#2f5fa7" stroke-width="2"/><circle cx="756.00" cy="168.92" r="3.4" fill="white" stroke="#2f5fa7" stroke-width="2"/><circle cx="841.00" cy="123.52" r="3.4" fill="white" stroke="#2f5fa7" stroke-width="2"/><circle cx="926.00" cy="73.33" r="3.4" fill="white" stroke="#2f5fa7" stroke-width="2"/><circle cx="76.00" cy="406.67" r="3.4" fill="white" stroke="#7c4fa0" stroke-width="2"/><circle cx="161.00" cy="386.26" r="3.4" fill="white" stroke="#7c4fa0" stroke-width="2"/><circle cx="246.00" cy="363.72" r="3.4" fill="white" stroke="#7c4fa0" stroke-width="2"/><circle cx="331.00" cy="338.80" r="3.4" fill="white" stroke="#7c4fa0" stroke-width="2"/><circle cx="416.00" cy="311.26" r="3.4" fill="white" stroke="#7c4fa0" stroke-width="2"/><circle cx="501.00" cy="280.82" r="3.4" fill="white" stroke="#7c4fa0" stroke-width="2"/><circle cx="586.00" cy="247.18" r="3.4" fill="white" stroke="#7c4fa0" stroke-width="2"/><circle cx="671.00" cy="210.01" r="3.4" fill="white" stroke="#7c4fa0" stroke-width="2"/><circle cx="756.00" cy="168.92" r="3.4" fill="white" stroke="#7c4fa0" stroke-width="2"/><circle cx="841.00" cy="123.52" r="3.4" fill="white" stroke="#7c4fa0" stroke-width="2"/><circle cx="926.00" cy="73.33" r="3.4" fill="white" stroke="#7c4fa0" stroke-width="2"/></g><line x1="76" x2="100" y1="494" y2="494" stroke="#3d7c55" stroke-width="3"/><text x="108" y="499">Точное решение</text><line x1="536" x2="560" y1="494" y2="494" stroke="#cc7045" stroke-width="3"/><text x="568" y="499">Метод Эйлера</text><line x1="76" x2="100" y1="514" y2="514" stroke="#2f5fa7" stroke-width="3"/><text x="108" y="519">Метод Рунге-Кутта 4-го порядка</text><line x1="536" x2="560" y1="514" y2="514" stroke="#7c4fa0" stroke-width="3"/><text x="568" y="519">Метод Адамса (предиктор-корректор)</text></svg>