<svg xmlns="http://www.w3.org/2000/svg" viewBox="0 0 960 545" role="img" aria-label="График погрешности">
  <rect width="960" height="545" fill="white"/>
  <style>text{font-family:Arial,sans-serif;font-size:13px;fill:#526278}.grid{stroke:#e5ecf5;stroke-width:1}</style><path class="grid" d="M86 429.1891891891892H926"/><text x="76" y="433.1891891891892" text-anchor="end">1e-10</text><path class="grid" d="M86 375.13513513513516H926"/><text x="76" y="379.13513513513516" text-anchor="end">1e-9</text><path class="grid" d="M86 321.08108108108115H926"/><text x="76" y="325.08108108108115" text-anchor="end">1e-8</text><path class="grid" d="M86 267.0270270270271H926"/><text x="76" y="271.0270270270271" text-anchor="end">1e-7</text><path class="grid" d="M86 212.97297297297297H926"/><text x="76" y="216.97297297297297" text-anchor="end">1e-6</text><path class="grid" d="M86 158.91891891891896H926"/><text x="76" y="162.91891891891896" text-anchor="end">1e-5</text><path class="grid" d="M86 104.86486486486484H926"/><text x="76" y="108.86486486486484" text-anchor="end">1e-4</text><path class="grid" d="M86 50.810810810810835H926"/><text x="76" y="54.810810810810835" text-anchor="end">1e-3</text><path class="grid" d="M86 40V440"/><text x="86" y="466" text-anchor="middle">0</text><path class="grid" d="M226 40V440"/><text x="226" y="466" text-anchor="middle">0.333</text><path class="grid" d="M366 40V440"/><text x="366" y="466" text-anchor="middle">0.667</text><path class="grid" d="M506 40V440"/><text x="506" y="466" text-anchor="middle">1</text><path class="grid" d="M646 40V440"/><text x="646" y="466" text-anchor="middle">1.333</text><path class="grid" d="M786 40V440"/><text x="786" y="466" text-anchor="middle">1.667</text><path class="grid" d="M926 40V440"/><text x="926" y="466" text-anchor="middle">2</text><path d="M86 40V440H926" fill="none" stroke="#64748b"/><text x="940" y="444">x</text><text x="86" y="26">|y точн − y|</text><path d="M86.00,440.00 L86.52,311.22 L87.05,294.81 L87.57,285.30 L88.10,278.48 L88.63,273.23 L89.15,268.90 L89.68,265.27 L90.20,262.09 L90.73,259.31 L91.26,256.79 L91.78,254.53 L92.31,252.45 L92.83,250.55 L93.35,248.79 L93.88,247.13 L94.40,245.60 L94.93,244.14 L95.45,242.77 L95.98,241.46 L96.51,240.24 L97.03,239.06 L97.56,237.94 L98.08,236.86 L98.61,235.84 L99.14,234.84 L99.66,233.90 L100.19,232.98 L100.71,232.10 L101.23,231.25 L101.76,230.42 L102.28,229.63 L102.81,228.85 L103.33,228.10 L103.86,227.36 L104.39,226.66 L104.91,225.96 L105.44,225.29 L105.96,224.63 L106.49,224.00 L107.02,223.37 L107.54,222.77 L108.06,222.17 L108.59,221.59 L109.11,221.02 L109.64,220.46 L110.16,219.92 L110.69,219.38 L111.21,218.86 L111.74,218.34 L112.27,217.84 L112.79,217.35 L113.32,216.86 L113.84,216.38 L114.37,215.92 L114.90,215.46 L115.42,215.01 L115.94,214.56 L116.47,214.12 L116.99,213.69 L117.52,213.27 L118.04,212.85 L118.57,212.44 L119.09,212.04 L119.62,211.63 L120.15,211.24 L120.67,210.85 L121.20,210.47 L121.72,210.09 L122.25,209.72 L122.77,209.36 L123.30,208.99 L123.82,208.64 L124.35,208.28 L124.87,207.94 L125.40,207.59 L125.92,207.25 L126.45,206.91 L126.97,206.58 L127.50,206.25 L128.03,205.93 L128.55,205.61 L129.08,205.29 L129.60,204.97 L130.13,204.66 L130.65,204.36 L131.18,204.05 L131.70,203.75 L132.23,203.46 L132.75,203.16 L133.28,202.87 L133.80,202.58 L134.33,202.29 L134.85,202.01 L135.38,201.73 L135.91,201.45 L136.43,201.18 L136.96,200.91 L137.48,200.64 L138.01,200.37 L138.53,200.10 L139.06,199.84 L139.58,199.58 L140.11,199.32 L140.63,199.06 L141.16,198.81 L141.68,198.56 L142.21,198.31 L142.73,198.06 L143.26,197.81 L143.79,197.57 L144.31,197.33 L144.84,197.09 L145.36,196.85 L145.89,196.61 L146.41,196.38 L146.94,196.15 L147.46,195.92 L147.99,195.69 L148.51,195.46 L149.04,195.23 L149.56,195.01 L150.09,194.79 L150.61,194.57 L151.14,194.35 L151.67,194.13 L152.19,193.91 L152.72,193.70 L153.24,193.49 L153.77,193.27 L154.29,193.06 L154.82,192.85 L155.34,192.65 L155.87,192.44 L156.39,192.23 L156.92,192.03 L157.44,191.83 L157.97,191.62 L158.50,191.43 L159.02,191.23 L159.55,191.03 L160.07,190.83 L160.60,190.64 L161.12,190.44 L161.65,190.25 L162.17,190.06 L162.70,189.87 L163.22,189.68 L163.75,189.49 L164.27,189.30 L164.80,189.11 L165.32,188.93 L165.85,188.75 L166.38,188.56 L166.90,188.38 L167.43,188.20 L167.95,188.02 L168.48,187.84 L169.00,187.66 L169.53,187.48 L170.05,187.31 L170.58,187.13 L171.10,186.96 L171.63,186.78 L172.15,186.61 L172.68,186.44 L173.20,186.27 L173.73,186.10 L174.26,185.93 L174.78,185.76 L175.31,185.59 L175.83,185.42 L176.36,185.26 L176.88,185.09 L177.41,184.93 L177.93,184.76 L178.46,184.60 L178.98,184.44 L179.51,184.28 L180.03,184.11 L180.56,183.95 L181.08,183.80 L181.61,183.64 L182.14,183.48 L182.66,183.32 L183.19,183.16 L183.71,183.01 L184.24,182.85 L184.76,182.70 L185.29,182.54 L185.81,182.39 L186.34,182.24 L186.86,182.09 L187.39,181.94 L187.91,181.79 L188.44,181.64 L188.96,181.49 L189.49,181.34 L190.02,181.19 L190.54,181.04 L191.07,180.89 L191.59,180.75 L192.12,180.60 L192.64,180.46 L193.17,180.31 L193.69,180.17 L194.22,180.02 L194.74,179.88 L195.27,179.74 L195.79,179.60 L196.32,179.46 L196.84,179.31 L197.37,179.17 L197.90,179.03 L198.42,178.90 L198.95,178.76 L199.47,178.62 L200.00,178.48 L200.52,178.34 L201.05,178.21 L201.57,178.07 L202.10,177.93 L202.62,177.80 L203.15,177.66 L203.67,177.53 L204.20,177.40 L204.72,177.26 L205.25,177.13 L205.78,177.00 L206.30,176.86 L206.83,176.73 L207.35,176.60 L207.88,176.47 L208.40,176.34 L208.93,176.21 L209.45,176.08 L209.98,175.95 L210.50,175.82 L211.03,175.70 L211.55,175.57 L212.08,175.44 L212.60,175.31 L213.13,175.19 L213.66,175.06 L214.18,174.93 L214.71,174.81 L215.23,174.68 L215.76,174.56 L216.28,174.43 L216.81,174.31 L217.33,174.19 L217.85,174.07 L218.38,173.94 L218.91,173.82 L219.43,173.70 L219.96,173.58 L220.49,173.45 L221.01,173.33 L221.54,173.21 L222.06,173.09 L222.59,172.97 L223.11,172.85 L223.64,172.73 L224.16,172.62 L224.69,172.50 L225.21,172.38 L225.74,172.26 L226.26,172.14 L226.79,172.03 L227.31,171.91 L227.84,171.79 L228.37,171.68 L228.89,171.56 L229.42,171.45 L229.94,171.33 L230.47,171.22 L230.99,171.10 L231.52,170.99 L232.04,170.87 L232.56,170.76 L233.09,170.65 L233.62,170.53 L234.14,170.42 L234.67,170.31 L235.19,170.20 L235.72,170.08 L236.25,169.97 L236.77,169.86 L237.30,169.75 L237.82,169.64 L238.35,169.53 L238.87,169.42 L239.39,169.31 L239.92,169.20 L240.44,169.09 L240.97,168.98 L241.50,168.87 L242.02,168.76 L242.55,168.66 L243.07,168.55 L243.60,168.44 L244.13,168.33 L244.65,168.22 L245.18,168.12 L245.70,168.01 L246.23,167.90 L246.75,167.80 L247.27,167.69 L247.80,167.59 L248.32,167.48 L248.85,167.38 L249.38,167.27 L249.90,167.17 L250.43,167.06 L250.95,166.96 L251.48,166.85 L252.01,166.75 L252.53,166.65 L253.06,166.54 L253.58,166.44 L254.10,166.34 L254.63,166.23 L255.15,166.13 L255.68,166.03 L256.20,165.93 L256.73,165.83 L257.26,165.73 L257.78,165.62 L258.31,165.52 L258.83,165.42 L259.36,165.32 L259.89,165.22 L260.41,165.12 L260.94,165.02 L261.46,164.92 L261.98,164.82 L262.51,164.72 L263.03,164.62 L263.56,164.52 L264.08,164.43 L264.61,164.33 L265.14,164.23 L265.66,164.13 L266.19,164.03 L266.71,163.93 L267.24,163.84 L267.77,163.74 L268.29,163.64 L268.81,163.55 L269.34,163.45 L269.86,163.35 L270.39,163.26 L270.91,163.16 L271.44,163.06 L271.96,162.97 L272.49,162.87 L273.02,162.78 L273.54,162.68 L274.07,162.59 L274.59,162.49 L275.12,162.40 L275.65,162.30 L276.17,162.21 L276.69,162.12 L277.22,162.02 L277.74,161.93 L278.27,161.83 L278.79,161.74 L279.32,161.65 L279.84,161.55 L280.37,161.46 L280.90,161.37 L281.42,161.28 L281.95,161.18 L282.48,161.09 L283.00,161.00 L283.52,160.91 L284.05,160.82 L284.57,160.72 L285.10,160.63 L285.62,160.54 L286.15,160.45 L286.67,160.36 L287.20,160.27 L287.73,160.18 L288.25,160.09 L288.78,160.00 L289.30,159.91 L289.83,159.82 L290.36,159.73 L290.88,159.64 L291.40,159.55 L291.93,159.46 L292.45,159.37 L292.98,159.28 L293.50,159.19 L294.03,159.10 L294.55,159.01 L295.08,158.93 L295.61,158.84 L296.13,158.75 L296.66,158.66 L297.18,158.57 L297.71,158.49 L298.23,158.40 L298.76,158.31 L299.28,158.22 L299.81,158.14 L300.33,158.05 L300.86,157.96 L301.38,157.88 L301.91,157.79 L302.43,157.70 L302.96,157.62 L303.49,157.53 L304.01,157.44 L304.54,157.36 L305.06,157.27 L305.59,157.19 L306.11,157.10 L306.64,157.02 L307.16,156.93 L307.69,156.85 L308.21,156.76 L308.74,156.68 L309.26,156.59 L309.79,156.51 L310.31,156.42 L310.84,156.34 L311.37,156.26 L311.89,156.17 L312.42,156.09 L312.94,156.00 L313.47,155.92 L313.99,155.84 L314.52,155.75 L315.04,155.67 L315.57,155.59 L316.09,155.50 L316.62,155.42 L317.14,155.34 L317.67,155.25 L318.19,155.17 L318.72,155.09 L319.25,155.01 L319.77,154.93 L320.30,154.84 L320.82,154.76 L321.35,154.68 L321.87,154.60 L322.40,154.52 L322.92,154.44 L323.45,154.35 L323.97,154.27 L324.50,154.19 L325.02,154.11 L325.55,154.03 L326.07,153.95 L326.60,153.87 L327.13,153.79 L327.65,153.71 L328.18,153.63 L328.70,153.55 L329.23,153.47 L329.75,153.39 L330.28,153.31 L330.80,153.23 L331.33,153.15 L331.85,153.07 L332.38,152.99 L332.90,152.91 L333.43,152.83 L333.95,152.75 L334.48,152.67 L335.01,152.59 L335.53,152.51 L336.06,152.43 L336.58,152.36 L337.11,152.28 L337.63,152.20 L338.16,152.12 L338.68,152.04 L339.21,151.96 L339.73,151.89 L340.26,151.81 L340.78,151.73 L341.31,151.65 L341.83,151.58 L342.36,151.50 L342.89,151.42 L343.41,151.34 L343.94,151.27 L344.46,151.19 L344.99,151.11 L345.51,151.03 L346.04,150.96 L346.56,150.88 L347.09,150.80 L347.61,150.73 L348.14,150.65 L348.66,150.58 L349.19,150.50 L349.72,150.42 L350.24,150.35 L350.77,150.27 L351.29,150.19 L351.82,150.12 L352.34,150.04 L352.87,149.97 L353.39,149.89 L353.92,149.82 L354.44,149.74 L354.97,149.67 L355.49,149.59 L356.02,149.52 L356.54,149.44 L357.07,149.37 L357.60,149.29 L358.12,149.22 L358.65,149.14 L359.17,149.07 L359.70,148.99 L360.22,148.92 L360.75,148.84 L361.27,148.77 L361.80,148.70 L362.32,148.62 L362.85,148.55 L363.37,148.47 L363.90,148.40 L364.42,148.33 L364.95,148.25 L365.48,148.18 L366.00,148.11 L366.53,148.03 L367.05,147.96 L367.58,147.89 L368.10,147.81 L368.63,147.74 L369.15,147.67 L369.68,147.59 L370.20,147.52 L370.73,147.45 L371.25,147.38 L371.78,147.30 L372.30,147.23 L372.83,147.16 L373.36,147.09 L373.88,147.01 L374.41,146.94 L374.93,146.87 L375.46,146.80 L375.98,146.73 L376.51,146.65 L377.03,146.58 L377.56,146.51 L378.08,146.44 L378.61,146.37 L379.13,146.30 L379.66,146.22 L380.18,146.15 L380.71,146.08 L381.24,146.01 L381.76,145.94 L382.29,145.87 L382.81,145.80 L383.34,145.73 L383.86,145.66 L384.39,145.58 L384.91,145.51 L385.44,145.44 L385.96,145.37 L386.49,145.30 L387.01,145.23 L387.54,145.16 L388.06,145.09 L388.59,145.02 L389.12,144.95 L389.64,144.88 L390.17,144.81 L390.69,144.74 L391.22,144.67 L391.74,144.60 L392.27,144.53 L392.79,144.46 L393.31,144.39 L393.84,144.32 L394.37,144.25 L394.89,144.19 L395.42,144.12 L395.94,144.05 L396.47,143.98 L397.00,143.91 L397.52,143.84 L398.05,143.77 L398.57,143.70 L399.10,143.63 L399.62,143.56 L400.14,143.50 L400.67,143.43 L401.19,143.36 L401.72,143.29 L402.25,143.22 L402.77,143.15 L403.30,143.09 L403.82,143.02 L404.35,142.95 L404.88,142.88 L405.40,142.81 L405.93,142.74 L406.45,142.68 L406.98,142.61 L407.50,142.54 L408.02,142.47 L408.55,142.41 L409.07,142.34 L409.60,142.27 L410.13,142.20 L410.65,142.14 L411.18,142.07 L411.71,142.00 L412.23,141.93 L412.76,141.87 L413.28,141.80 L413.81,141.73 L414.33,141.67 L414.85,141.60 L415.38,141.53 L415.90,141.47 L416.43,141.40 L416.96,141.33 L417.48,141.27 L418.01,141.20 L418.53,141.13 L419.06,141.07 L419.59,141.00 L420.11,140.93 L420.64,140.87 L421.16,140.80 L421.69,140.73 L422.21,140.67 L422.73,140.60 L423.26,140.54 L423.78,140.47 L424.31,140.41 L424.84,140.34 L425.36,140.27 L425.89,140.21 L426.41,140.14 L426.94,140.08 L427.47,140.01 L427.99,139.95 L428.52,139.88 L429.04,139.82 L429.56,139.75 L430.09,139.68 L430.61,139.62 L431.14,139.55 L431.66,139.49 L432.19,139.42 L432.72,139.36 L433.24,139.29 L433.77,139.23 L434.29,139.16 L434.82,139.10 L435.35,139.04 L435.87,138.97 L436.40,138.91 L436.92,138.84 L437.44,138.78 L437.97,138.71 L438.49,138.65 L439.02,138.58 L439.54,138.52 L440.07,138.46 L440.60,138.39 L441.12,138.33 L441.65,138.26 L442.17,138.20 L442.70,138.14 L443.23,138.07 L443.75,138.01 L444.27,137.94 L444.80,137.88 L445.32,137.82 L445.85,137.75 L446.37,137.69 L446.90,137.63 L447.42,137.56 L447.95,137.50 L448.48,137.44 L449.00,137.37 L449.53,137.31 L450.05,137.24 L450.58,137.18 L451.11,137.12 L451.63,137.06 L452.15,136.99 L452.68,136.93 L453.20,136.87 L453.73,136.80 L454.25,136.74 L454.78,136.68 L455.30,136.62 L455.83,136.55 L456.36,136.49 L456.88,136.43 L457.41,136.36 L457.93,136.30 L458.46,136.24 L458.98,136.18 L459.51,136.11 L460.03,136.05 L460.56,135.99 L461.08,135.93 L461.61,135.87 L462.13,135.80 L462.66,135.74 L463.18,135.68 L463.71,135.62 L464.24,135.56 L464.76,135.49 L465.29,135.43 L465.81,135.37 L466.34,135.31 L466.86,135.25 L467.39,135.18 L467.91,135.12 L468.44,135.06 L468.96,135.00 L469.49,134.94 L470.01,134.88 L470.54,134.81 L471.06,134.75 L471.59,134.69 L472.12,134.63 L472.64,134.57 L473.17,134.51 L473.69,134.45 L474.22,134.39 L474.74,134.32 L475.27,134.26 L475.79,134.20 L476.32,134.14 L476.84,134.08 L477.37,134.02 L477.89,133.96 L478.42,133.90 L478.95,133.84 L479.47,133.78 L480.00,133.72 L480.52,133.66 L481.05,133.59 L481.57,133.53 L482.10,133.47 L482.62,133.41 L483.15,133.35 L483.67,133.29 L484.20,133.23 L484.72,133.17 L485.25,133.11 L485.77,133.05 L486.30,132.99 L486.83,132.93 L487.35,132.87 L487.88,132.81 L488.40,132.75 L488.93,132.69 L489.45,132.63 L489.98,132.57 L490.50,132.51 L491.03,132.45 L491.55,132.39 L492.08,132.33 L492.60,132.27 L493.13,132.21 L493.65,132.15 L494.18,132.09 L494.71,132.03 L495.23,131.97 L495.76,131.91 L496.28,131.86 L496.81,131.80 L497.33,131.74 L497.86,131.68 L498.38,131.62 L498.91,131.56 L499.43,131.50 L499.96,131.44 L500.48,131.38 L501.01,131.32 L501.53,131.26 L502.06,131.20 L502.59,131.14 L503.11,131.09 L503.64,131.03 L504.16,130.97 L504.69,130.91 L505.21,130.85 L505.74,130.79 L506.26,130.73 L506.79,130.67 L507.31,130.62 L507.84,130.56 L508.36,130.50 L508.89,130.44 L509.41,130.38 L509.94,130.32 L510.47,130.26 L510.99,130.21 L511.52,130.15 L512.04,130.09 L512.57,130.03 L513.09,129.97 L513.62,129.91 L514.14,129.86 L514.67,129.80 L515.19,129.74 L515.72,129.68 L516.24,129.62 L516.77,129.57 L517.29,129.51 L517.82,129.45 L518.35,129.39 L518.87,129.33 L519.40,129.28 L519.92,129.22 L520.45,129.16 L520.97,129.10 L521.50,129.05 L522.02,128.99 L522.55,128.93 L523.07,128.87 L523.60,128.81 L524.12,128.76 L524.65,128.70 L525.17,128.64 L525.70,128.59 L526.23,128.53 L526.75,128.47 L527.28,128.41 L527.80,128.36 L528.33,128.30 L528.85,128.24 L529.38,128.18 L529.90,128.13 L530.43,128.07 L530.95,128.01 L531.48,127.96 L532.00,127.90 L532.53,127.84 L533.05,127.78 L533.58,127.73 L534.11,127.67 L534.63,127.61 L535.16,127.56 L535.68,127.50 L536.21,127.44 L536.73,127.39 L537.26,127.33 L537.78,127.27 L538.31,127.22 L538.83,127.16 L539.36,127.10 L539.88,127.05 L540.41,126.99 L540.94,126.93 L541.46,126.88 L541.99,126.82 L542.51,126.76 L543.04,126.71 L543.56,126.65 L544.09,126.60 L544.61,126.54 L545.14,126.48 L545.66,126.43 L546.19,126.37 L546.71,126.31 L547.24,126.26 L547.76,126.20 L548.29,126.15 L548.82,126.09 L549.34,126.03 L549.87,125.98 L550.39,125.92 L550.92,125.87 L551.44,125.81 L551.97,125.75 L552.49,125.70 L553.02,125.64 L553.54,125.59 L554.07,125.53 L554.59,125.48 L555.12,125.42 L555.64,125.36 L556.17,125.31 L556.70,125.25 L557.22,125.20 L557.75,125.14 L558.27,125.09 L558.80,125.03 L559.32,124.98 L559.85,124.92 L560.37,124.87 L560.89,124.81 L561.42,124.75 L561.95,124.70 L562.47,124.64 L563.00,124.59 L563.52,124.53 L564.05,124.48 L564.58,124.42 L565.10,124.37 L565.63,124.31 L566.15,124.26 L566.68,124.20 L567.20,124.15 L567.73,124.09 L568.25,124.04 L568.77,123.98 L569.30,123.93 L569.83,123.87 L570.35,123.82 L570.88,123.76 L571.40,123.71 L571.93,123.65 L572.46,123.60 L572.98,123.54 L573.51,123.49 L574.03,123.44 L574.56,123.38 L575.08,123.33 L575.60,123.27 L576.13,123.22 L576.65,123.16 L577.18,123.11 L577.71,123.05 L578.23,123.00 L578.76,122.95 L579.28,122.89 L579.81,122.84 L580.34,122.78 L580.86,122.73 L581.39,122.67 L581.91,122.62 L582.44,122.56 L582.96,122.51 L583.48,122.46 L584.01,122.40 L584.53,122.35 L585.06,122.29 L585.59,122.24 L586.11,122.19 L586.64,122.13 L587.16,122.08 L587.69,122.02 L588.22,121.97 L588.74,121.92 L589.27,121.86 L589.79,121.81 L590.31,121.76 L590.84,121.70 L591.36,121.65 L591.89,121.59 L592.41,121.54 L592.94,121.49 L593.47,121.43 L593.99,121.38 L594.52,121.33 L595.04,121.27 L595.57,121.22 L596.10,121.16 L596.62,121.11 L597.15,121.06 L597.67,121.00 L598.19,120.95 L598.72,120.90 L599.24,120.84 L599.77,120.79 L600.29,120.74 L600.82,120.68 L601.35,120.63 L601.87,120.58 L602.40,120.52 L602.93,120.47 L603.45,120.42 L603.98,120.36 L604.50,120.31 L605.02,120.26 L605.55,120.20 L606.07,120.15 L606.60,120.10 L607.12,120.05 L607.65,119.99 L608.18,119.94 L608.70,119.89 L609.23,119.83 L609.75,119.78 L610.28,119.73 L610.81,119.67 L611.33,119.62 L611.86,119.57 L612.38,119.52 L612.90,119.46 L613.43,119.41 L613.95,119.36 L614.48,119.31 L615.00,119.25 L615.53,119.20 L616.06,119.15 L616.58,119.09 L617.11,119.04 L617.63,118.99 L618.16,118.94 L618.69,118.88 L619.21,118.83 L619.73,118.78 L620.26,118.73 L620.78,118.67 L621.31,118.62 L621.83,118.57 L622.36,118.52 L622.88,118.47 L623.41,118.41 L623.94,118.36 L624.46,118.31 L624.99,118.26 L625.51,118.20 L626.04,118.15 L626.56,118.10 L627.09,118.05 L627.61,118.00 L628.14,117.94 L628.66,117.89 L629.19,117.84 L629.71,117.79 L630.24,117.73 L630.76,117.68 L631.29,117.63 L631.82,117.58 L632.34,117.53 L632.87,117.47 L633.39,117.42 L633.92,117.37 L634.44,117.32 L634.97,117.27 L635.49,117.22 L636.02,117.16 L636.54,117.11 L637.07,117.06 L637.59,117.01 L638.12,116.96 L638.64,116.91 L639.17,116.85 L639.70,116.80 L640.22,116.75 L640.75,116.70 L641.27,116.65 L641.80,116.60 L642.32,116.54 L642.85,116.49 L643.37,116.44 L643.90,116.39 L644.42,116.34 L644.95,116.29 L645.47,116.24 L646.00,116.18 L646.52,116.13 L647.05,116.08 L647.58,116.03 L648.10,115.98 L648.63,115.93 L649.15,115.88 L649.68,115.82 L650.20,115.77 L650.73,115.72 L651.25,115.67 L651.78,115.62 L652.30,115.57 L652.83,115.52 L653.35,115.47 L653.88,115.41 L654.40,115.36 L654.93,115.31 L655.46,115.26 L655.98,115.21 L656.51,115.16 L657.03,115.11 L657.56,115.06 L658.08,115.01 L658.61,114.96 L659.13,114.91 L659.66,114.85 L660.18,114.80 L660.71,114.75 L661.23,114.70 L661.76,114.65 L662.28,114.60 L662.81,114.55 L663.34,114.50 L663.86,114.45 L664.39,114.40 L664.91,114.35 L665.44,114.30 L665.96,114.25 L666.49,114.19 L667.01,114.14 L667.54,114.09 L668.06,114.04 L668.59,113.99 L669.11,113.94 L669.64,113.89 L670.17,113.84 L670.69,113.79 L671.22,113.74 L671.74,113.69 L672.27,113.64 L672.79,113.59 L673.32,113.54 L673.84,113.49 L674.37,113.44 L674.89,113.39 L675.42,113.34 L675.94,113.29 L676.47,113.24 L676.99,113.19 L677.52,113.14 L678.05,113.09 L678.57,113.04 L679.10,112.99 L679.62,112.94 L680.15,112.89 L680.67,112.84 L681.20,112.79 L681.72,112.74 L682.25,112.69 L682.77,112.64 L683.30,112.59 L683.82,112.54 L684.35,112.49 L684.87,112.44 L685.40,112.39 L685.93,112.34 L686.45,112.29 L686.98,112.24 L687.50,112.19 L688.03,112.14 L688.55,112.09 L689.08,112.04 L689.60,111.99 L690.13,111.94 L690.65,111.89 L691.18,111.84 L691.70,111.79 L692.23,111.74 L692.75,111.69 L693.28,111.64 L693.81,111.59 L694.33,111.54 L694.86,111.49 L695.38,111.44 L695.91,111.39 L696.43,111.34 L696.96,111.29 L697.48,111.24 L698.01,111.19 L698.53,111.14 L699.06,111.09 L699.58,111.04 L700.11,110.99 L700.63,110.94 L701.16,110.90 L701.69,110.85 L702.21,110.80 L702.74,110.75 L703.26,110.70 L703.79,110.65 L704.31,110.60 L704.84,110.55 L705.36,110.50 L705.89,110.45 L706.41,110.40 L706.94,110.35 L707.46,110.30 L707.99,110.25 L708.51,110.21 L709.04,110.16 L709.57,110.11 L710.09,110.06 L710.62,110.01 L711.14,109.96 L711.67,109.91 L712.19,109.86 L712.72,109.81 L713.24,109.76 L713.77,109.71 L714.29,109.67 L714.82,109.62 L715.34,109.57 L715.87,109.52 L716.39,109.47 L716.92,109.42 L717.45,109.37 L717.97,109.32 L718.50,109.27 L719.02,109.23 L719.55,109.18 L720.07,109.13 L720.60,109.08 L721.12,109.03 L721.64,108.98 L722.17,108.93 L722.70,108.88 L723.22,108.83 L723.75,108.79 L724.27,108.74 L724.80,108.69 L725.33,108.64 L725.85,108.59 L726.38,108.54 L726.90,108.49 L727.43,108.45 L727.95,108.40 L728.48,108.35 L729.00,108.30 L729.52,108.25 L730.05,108.20 L730.58,108.15 L731.10,108.11 L731.63,108.06 L732.16,108.01 L732.68,107.96 L733.21,107.91 L733.73,107.86 L734.26,107.81 L734.78,107.77 L735.31,107.72 L735.83,107.67 L736.35,107.62 L736.88,107.57 L737.41,107.53 L737.93,107.48 L738.46,107.43 L738.98,107.38 L739.51,107.33 L740.04,107.28 L740.56,107.24 L741.09,107.19 L741.61,107.14 L742.14,107.09 L742.66,107.04 L743.19,106.99 L743.71,106.95 L744.23,106.90 L744.76,106.85 L745.29,106.80 L745.81,106.75 L746.34,106.71 L746.86,106.66 L747.39,106.61 L747.92,106.56 L748.44,106.51 L748.97,106.47 L749.49,106.42 L750.02,106.37 L750.54,106.32 L751.06,106.27 L751.59,106.23 L752.11,106.18 L752.64,106.13 L753.17,106.08 L753.69,106.04 L754.22,105.99 L754.74,105.94 L755.27,105.89 L755.80,105.84 L756.32,105.80 L756.85,105.75 L757.37,105.70 L757.90,105.65 L758.42,105.61 L758.94,105.56 L759.47,105.51 L759.99,105.46 L760.52,105.41 L761.05,105.37 L761.57,105.32 L762.10,105.27 L762.62,105.22 L763.15,105.18 L763.68,105.13 L764.20,105.08 L764.73,105.03 L765.25,104.99 L765.77,104.94 L766.30,104.89 L766.82,104.84 L767.35,104.80 L767.87,104.75 L768.40,104.70 L768.93,104.65 L769.45,104.61 L769.98,104.56 L770.50,104.51 L771.03,104.46 L771.56,104.42 L772.08,104.37 L772.61,104.32 L773.13,104.28 L773.65,104.23 L774.18,104.18 L774.70,104.13 L775.23,104.09 L775.75,104.04 L776.28,103.99 L776.81,103.94 L777.33,103.90 L777.86,103.85 L778.38,103.80 L778.91,103.76 L779.44,103.71 L779.96,103.66 L780.48,103.61 L781.01,103.57 L781.53,103.52 L782.06,103.47 L782.58,103.43 L783.11,103.38 L783.63,103.33 L784.16,103.28 L784.69,103.24 L785.21,103.19 L785.74,103.14 L786.26,103.10 L786.79,103.05 L787.31,103.00 L787.84,102.96 L788.36,102.91 L788.89,102.86 L789.41,102.82 L789.94,102.77 L790.46,102.72 L790.99,102.67 L791.51,102.63 L792.04,102.58 L792.57,102.53 L793.09,102.49 L793.62,102.44 L794.15,102.39 L794.67,102.35 L795.19,102.30 L795.72,102.25 L796.24,102.21 L796.77,102.16 L797.29,102.11 L797.82,102.07 L798.34,102.02 L798.87,101.97 L799.40,101.93 L799.92,101.88 L800.45,101.83 L800.97,101.79 L801.50,101.74 L802.02,101.69 L802.55,101.65 L803.07,101.60 L803.60,101.55 L804.12,101.51 L804.65,101.46 L805.17,101.41 L805.70,101.37 L806.22,101.32 L806.75,101.27 L807.28,101.23 L807.80,101.18 L808.33,101.14 L808.85,101.09 L809.38,101.04 L809.90,101.00 L810.43,100.95 L810.95,100.90 L811.48,100.86 L812.00,100.81 L812.53,100.76 L813.05,100.72 L813.58,100.67 L814.10,100.63 L814.63,100.58 L815.16,100.53 L815.68,100.49 L816.21,100.44 L816.73,100.39 L817.26,100.35 L817.78,100.30 L818.31,100.26 L818.83,100.21 L819.36,100.16 L819.88,100.12 L820.41,100.07 L820.93,100.02 L821.46,99.98 L821.98,99.93 L822.51,99.89 L823.04,99.84 L823.56,99.79 L824.09,99.75 L824.61,99.70 L825.14,99.66 L825.66,99.61 L826.19,99.56 L826.71,99.52 L827.24,99.47 L827.76,99.43 L828.29,99.38 L828.81,99.33 L829.34,99.29 L829.86,99.24 L830.39,99.20 L830.92,99.15 L831.44,99.10 L831.97,99.06 L832.49,99.01 L833.02,98.97 L833.54,98.92 L834.07,98.87 L834.59,98.83 L835.12,98.78 L835.64,98.74 L836.17,98.69 L836.69,98.65 L837.22,98.60 L837.74,98.55 L838.27,98.51 L838.80,98.46 L839.32,98.42 L839.85,98.37 L840.37,98.33 L840.90,98.28 L841.42,98.23 L841.95,98.19 L842.47,98.14 L843.00,98.10 L843.52,98.05 L844.05,98.01 L844.57,97.96 L845.10,97.91 L845.62,97.87 L846.15,97.82 L846.68,97.78 L847.20,97.73 L847.73,97.69 L848.25,97.64 L848.78,97.60 L849.30,97.55 L849.83,97.50 L850.35,97.46 L850.88,97.41 L851.40,97.37 L851.93,97.32 L852.45,97.28 L852.98,97.23 L853.50,97.19 L854.03,97.14 L854.56,97.09 L855.08,97.05 L855.61,97.00 L856.13,96.96 L856.66,96.91 L857.18,96.87 L857.71,96.82 L858.23,96.78 L858.76,96.73 L859.28,96.69 L859.81,96.64 L860.33,96.60 L860.86,96.55 L861.39,96.51 L861.91,96.46 L862.44,96.42 L862.96,96.37 L863.49,96.32 L864.01,96.28 L864.54,96.23 L865.06,96.19 L865.59,96.14 L866.11,96.10 L866.64,96.05 L867.16,96.01 L867.69,95.96 L868.21,95.92 L868.74,95.87 L869.27,95.83 L869.79,95.78 L870.32,95.74 L870.84,95.69 L871.37,95.65 L871.89,95.60 L872.42,95.56 L872.94,95.51 L873.47,95.47 L873.99,95.42 L874.52,95.38 L875.04,95.33 L875.57,95.29 L876.09,95.24 L876.62,95.20 L877.15,95.15 L877.67,95.11 L878.20,95.06 L878.72,95.02 L879.25,94.97 L879.77,94.93 L880.30,94.88 L880.82,94.84 L881.35,94.79 L881.87,94.75 L882.40,94.70 L882.92,94.66 L883.45,94.61 L883.97,94.57 L884.50,94.52 L885.03,94.48 L885.55,94.43 L886.08,94.39 L886.60,94.35 L887.13,94.30 L887.65,94.26 L888.18,94.21 L888.70,94.17 L889.23,94.12 L889.75,94.08 L890.28,94.03 L890.80,93.99 L891.33,93.94 L891.85,93.90 L892.38,93.85 L892.91,93.81 L893.43,93.76 L893.96,93.72 L894.48,93.67 L895.01,93.63 L895.53,93.59 L896.06,93.54 L896.58,93.50 L897.10,93.45 L897.63,93.41 L898.16,93.36 L898.68,93.32 L899.21,93.27 L899.73,93.23 L900.26,93.18 L900.79,93.14 L901.31,93.10 L901.84,93.05 L902.36,93.01 L902.89,92.96 L903.41,92.92 L903.94,92.87 L904.46,92.83 L904.98,92.78 L905.51,92.74 L906.04,92.70 L906.56,92.65 L907.09,92.61 L907.61,92.56 L908.14,92.52 L908.67,92.47 L909.19,92.43 L909.72,92.38 L910.24,92.34 L910.77,92.30 L911.29,92.25 L911.81,92.21 L912.34,92.16 L912.86,92.12 L913.39,92.07 L913.92,92.03 L914.44,91.99 L914.97,91.94 L915.49,91.90 L916.02,91.85 L916.55,91.81 L917.07,91.77 L917.60,91.72 L918.12,91.68 L918.65,91.63 L919.17,91.59 L919.69,91.54 L920.22,91.50 L920.74,91.46 L921.27,91.41 L921.80,91.37 L922.32,91.32 L922.85,91.28 L923.38,91.24 L923.90,91.19 L924.43,91.15 L924.95,91.10 L925.48,91.06 L926.00,91.01 " fill="none" stroke="#cc7045" stroke-width="2.6"/><circle cx="86.00" cy="440.00" r="3.2" fill="#cc7045"/><circle cx="93.06" cy="249.76" r="3.2" fill="#cc7045"/><circle cx="100.12" cy="233.09" r="3.2" fill="#cc7045"/><circle cx="107.17" cy="223.19" r="3.2" fill="#cc7045"/><circle cx="114.23" cy="216.04" r="3.2" fill="#cc7045"/><circle cx="121.29" cy="210.40" r="3.2" fill="#cc7045"/><circle cx="128.35" cy="205.73" r="3.2" fill="#cc7045"/><circle cx="135.41" cy="201.71" r="3.2" fill="#cc7045"/><circle cx="142.47" cy="198.19" r="3.2" fill="#cc7045"/><circle cx="149.53" cy="195.03" r="3.2" fill="#cc7045"/><circle cx="156.59" cy="192.16" r="3.2" fill="#cc7045"/><circle cx="163.65" cy="189.53" r="3.2" fill="#cc7045"/><circle cx="170.71" cy="187.09" r="3.2" fill="#cc7045"/><circle cx="177.76" cy="184.82" r="3.2" fill="#cc7045"/><circle cx="184.82" cy="182.68" r="3.2" fill="#cc7045"/><circle cx="191.88" cy="180.67" r="3.2" fill="#cc7045"/><circle cx="198.94" cy="178.76" r="3.2" fill="#cc7045"/><circle cx="206.00" cy="176.94" r="3.2" fill="#cc7045"/><circle cx="213.06" cy="175.20" r="3.2" fill="#cc7045"/><circle cx="220.12" cy="173.54" r="3.2" fill="#cc7045"/><circle cx="227.18" cy="171.94" r="3.2" fill="#cc7045"/><circle cx="234.24" cy="170.40" r="3.2" fill="#cc7045"/><circle cx="241.30" cy="168.91" r="3.2" fill="#cc7045"/><circle cx="248.36" cy="167.48" r="3.2" fill="#cc7045"/><circle cx="255.41" cy="166.08" r="3.2" fill="#cc7045"/><circle cx="262.47" cy="164.73" r="3.2" fill="#cc7045"/><circle cx="269.53" cy="163.41" r="3.2" fill="#cc7045"/><circle cx="276.59" cy="162.13" r="3.2" fill="#cc7045"/><circle cx="283.65" cy="160.88" r="3.2" fill="#cc7045"/><circle cx="290.70" cy="159.67" r="3.2" fill="#cc7045"/><circle cx="297.76" cy="158.48" r="3.2" fill="#cc7045"/><circle cx="304.82" cy="157.31" r="3.2" fill="#cc7045"/><circle cx="311.88" cy="156.17" r="3.2" fill="#cc7045"/><circle cx="318.94" cy="155.06" r="3.2" fill="#cc7045"/><circle cx="326.00" cy="153.96" r="3.2" fill="#cc7045"/><circle cx="333.06" cy="152.89" r="3.2" fill="#cc7045"/><circle cx="340.12" cy="151.83" r="3.2" fill="#cc7045"/><circle cx="347.18" cy="150.79" r="3.2" fill="#cc7045"/><circle cx="354.24" cy="149.77" r="3.2" fill="#cc7045"/><circle cx="361.29" cy="148.77" r="3.2" fill="#cc7045"/><circle cx="368.35" cy="147.78" r="3.2" fill="#cc7045"/><circle cx="375.41" cy="146.80" r="3.2" fill="#cc7045"/><circle cx="382.47" cy="145.84" r="3.2" fill="#cc7045"/><circle cx="389.53" cy="144.90" r="3.2" fill="#cc7045"/><circle cx="396.59" cy="143.96" r="3.2" fill="#cc7045"/><circle cx="403.65" cy="143.04" r="3.2" fill="#cc7045"/><circle cx="410.71" cy="142.13" r="3.2" fill="#cc7045"/><circle cx="417.77" cy="141.23" r="3.2" fill="#cc7045"/><circle cx="424.82" cy="140.34" r="3.2" fill="#cc7045"/><circle cx="431.88" cy="139.46" r="3.2" fill="#cc7045"/><circle cx="438.94" cy="138.59" r="3.2" fill="#cc7045"/><circle cx="446.00" cy="137.73" r="3.2" fill="#cc7045"/><circle cx="453.06" cy="136.88" r="3.2" fill="#cc7045"/><circle cx="460.12" cy="136.04" r="3.2" fill="#cc7045"/><circle cx="467.18" cy="135.21" r="3.2" fill="#cc7045"/><circle cx="474.23" cy="134.38" r="3.2" fill="#cc7045"/><circle cx="481.29" cy="133.57" r="3.2" fill="#cc7045"/><circle cx="488.35" cy="132.76" r="3.2" fill="#cc7045"/><circle cx="495.41" cy="131.95" r="3.2" fill="#cc7045"/><circle cx="502.47" cy="131.16" r="3.2" fill="#cc7045"/><circle cx="509.53" cy="130.37" r="3.2" fill="#cc7045"/><circle cx="516.59" cy="129.59" r="3.2" fill="#cc7045"/><circle cx="523.65" cy="128.81" r="3.2" fill="#cc7045"/><circle cx="530.71" cy="128.04" r="3.2" fill="#cc7045"/><circle cx="537.77" cy="127.28" r="3.2" fill="#cc7045"/><circle cx="544.82" cy="126.52" r="3.2" fill="#cc7045"/><circle cx="551.88" cy="125.76" r="3.2" fill="#cc7045"/><circle cx="558.94" cy="125.02" r="3.2" fill="#cc7045"/><circle cx="566.00" cy="124.27" r="3.2" fill="#cc7045"/><circle cx="573.06" cy="123.54" r="3.2" fill="#cc7045"/><circle cx="580.12" cy="122.80" r="3.2" fill="#cc7045"/><circle cx="587.18" cy="122.08" r="3.2" fill="#cc7045"/><circle cx="594.23" cy="121.35" r="3.2" fill="#cc7045"/><circle cx="601.29" cy="120.64" r="3.2" fill="#cc7045"/><circle cx="608.35" cy="119.92" r="3.2" fill="#cc7045"/><circle cx="615.41" cy="119.21" r="3.2" fill="#cc7045"/><circle cx="622.47" cy="118.51" r="3.2" fill="#cc7045"/><circle cx="629.53" cy="117.81" r="3.2" fill="#cc7045"/><circle cx="636.59" cy="117.11" r="3.2" fill="#cc7045"/><circle cx="643.65" cy="116.41" r="3.2" fill="#cc7045"/><circle cx="650.71" cy="115.72" r="3.2" fill="#cc7045"/><circle cx="657.76" cy="115.04" r="3.2" fill="#cc7045"/><circle cx="664.82" cy="114.36" r="3.2" fill="#cc7045"/><circle cx="671.88" cy="113.68" r="3.2" fill="#cc7045"/><circle cx="678.94" cy="113.00" r="3.2" fill="#cc7045"/><circle cx="686.00" cy="112.33" r="3.2" fill="#cc7045"/><circle cx="693.06" cy="111.66" r="3.2" fill="#cc7045"/><circle cx="700.12" cy="110.99" r="3.2" fill="#cc7045"/><circle cx="707.18" cy="110.33" r="3.2" fill="#cc7045"/><circle cx="714.24" cy="109.67" r="3.2" fill="#cc7045"/><circle cx="721.30" cy="109.01" r="3.2" fill="#cc7045"/><circle cx="728.35" cy="108.36" r="3.2" fill="#cc7045"/><circle cx="735.41" cy="107.71" r="3.2" fill="#cc7045"/><circle cx="742.47" cy="107.06" r="3.2" fill="#cc7045"/><circle cx="749.53" cy="106.41" r="3.2" fill="#cc7045"/><circle cx="756.59" cy="105.77" r="3.2" fill="#cc7045"/><circle cx="763.64" cy="105.13" r="3.2" fill="#cc7045"/><circle cx="770.70" cy="104.49" r="3.2" fill="#cc7045"/><circle cx="777.76" cy="103.86" r="3.2" fill="#cc7045"/><circle cx="784.82" cy="103.23" r="3.2" fill="#cc7045"/><circle cx="791.88" cy="102.59" r="3.2" fill="#cc7045"/><circle cx="798.94" cy="101.97" r="3.2" fill="#cc7045"/><circle cx="806.00" cy="101.34" r="3.2" fill="#cc7045"/><circle cx="813.06" cy="100.72" r="3.2" fill="#cc7045"/><circle cx="820.12" cy="100.10" r="3.2" fill="#cc7045"/><circle cx="827.18" cy="99.48" r="3.2" fill="#cc7045"/><circle cx="834.24" cy="98.86" r="3.2" fill="#cc7045"/><circle cx="841.29" cy="98.24" r="3.2" fill="#cc7045"/><circle cx="848.35" cy="97.63" r="3.2" fill="#cc7045"/><circle cx="855.41" cy="97.02" r="3.2" fill="#cc7045"/><circle cx="862.47" cy="96.41" r="3.2" fill="#cc7045"/><circle cx="869.53" cy="95.80" r="3.2" fill="#cc7045"/><circle cx="876.59" cy="95.20" r="3.2" fill="#cc7045"/><circle cx="883.65" cy="94.60" r="3.2" fill="#cc7045"/><circle cx="890.71" cy="94.00" r="3.2" fill="#cc7045"/><circle cx="897.77" cy="93.40" r="3.2" fill="#cc7045"/><circle cx="904.83" cy="92.80" r="3.2" fill="#cc7045"/><circle cx="911.88" cy="92.20" r="3.2" fill="#cc7045"/><circle cx="918.94" cy="91.61" r="3.2" fill="#cc7045"/><circle cx="926.00" cy="91.01" r="3.2" fill="#cc7045"/><path d="M86.00,440.00 L107.00,336.20 L128.00,318.75 L149.00,308.06 L170.00,300.13 L191.00,293.72 L212.00,288.27 L233.00,283.47 L254.00,279.17 L275.00,275.23 L296.00,271.58 L317.00,268.17 L338.00,264.95 L359.00,261.90 L380.00,258.99 L401.00,256.19 L422.00,253.50 L443.00,250.91 L464.00,248.39 L485.00,245.95 L506.00,243.57 L527.00,241.25 L548.00,238.99 L569.00,236.77 L590.00,234.60 L611.00,232.46 L632.00,230.37 L653.00,228.31 L674.00,226.28 L695.00,224.28 L716.00,222.31 L737.00,220.37 L758.00,218.45 L779.00,216.56 L800.00,214.68 L821.00,212.83 L842.00,210.99 L863.00,209.18 L884.00,207.38 L905.00,205.59 L926.00,203.82 " fill="none" stroke="#2f5fa7" stroke-width="2.6"/><circle cx="86.00" cy="440.00" r="3.2" fill="#2f5fa7"/><circle cx="107.00" cy="336.20" r="3.2" fill="#2f5fa7"/><circle cx="128.00" cy="318.75" r="3.2" fill="#2f5fa7"/><circle cx="149.00" cy="308.06" r="3.2" fill="#2f5fa7"/><circle cx="170.00" cy="300.13" r="3.2" fill="#2f5fa7"/><circle cx="191.00" cy="293.72" r="3.2" fill="#2f5fa7"/><circle cx="212.00" cy="288.27" r="3.2" fill="#2f5fa7"/><circle cx="233.00" cy="283.47" r="3.2" fill="#2f5fa7"/><circle cx="254.00" cy="279.17" r="3.2" fill="#2f5fa7"/><circle cx="275.00" cy="275.23" r="3.2" fill="#2f5fa7"/><circle cx="296.00" cy="271.58" r="3.2" fill="#2f5fa7"/><circle cx="317.00" cy="268.17" r="3.2" fill="#2f5fa7"/><circle cx="338.00" cy="264.95" r="3.2" fill="#2f5fa7"/><circle cx="359.00" cy="261.90" r="3.2" fill="#2f5fa7"/><circle cx="380.00" cy="258.99" r="3.2" fill="#2f5fa7"/><circle cx="401.00" cy="256.19" r="3.2" fill="#2f5fa7"/><circle cx="422.00" cy="253.50" r="3.2" fill="#2f5fa7"/><circle cx="443.00" cy="250.91" r="3.2" fill="#2f5fa7"/><circle cx="464.00" cy="248.39" r="3.2" fill="#2f5fa7"/><circle cx="485.00" cy="245.95" r="3.2" fill="#2f5fa7"/><circle cx="506.00" cy="243.57" r="3.2" fill="#2f5fa7"/><circle cx="527.00" cy="241.25" r="3.2" fill="#2f5fa7"/><circle cx="548.00" cy="238.99" r="3.2" fill="#2f5fa7"/><circle cx="569.00" cy="236.77" r="3.2" fill="#2f5fa7"/><circle cx="590.00" cy="234.60" r="3.2" fill="#2f5fa7"/><circle cx="611.00" cy="232.46" r="3.2" fill="#2f5fa7"/><circle cx="632.00" cy="230.37" r="3.2" fill="#2f5fa7"/><circle cx="653.00" cy="228.31" r="3.2" fill="#2f5fa7"/><circle cx="674.00" cy="226.28" r="3.2" fill="#2f5fa7"/><circle cx="695.00" cy="224.28" r="3.2" fill="#2f5fa7"/><circle cx="716.00" cy="222.31" r="3.2" fill="#2f5fa7"/><circle cx="737.00" cy="220.37" r="3.2" fill="#2f5fa7"/><circle cx="758.00" cy="218.45" r="3.2" fill="#2f5fa7"/><circle cx="779.00" cy="216.56" r="3.2" fill="#2f5fa7"/><circle cx="800.00" cy="214.68" r="3.2" fill="#2f5fa7"/><circle cx="821.00" cy="212.83" r="3.2" fill="#2f5fa7"/><circle cx="842.00" cy="210.99" r="3.2" fill="#2f5fa7"/><circle cx="863.00" cy="209.18" r="3.2" fill="#2f5fa7"/><circle cx="884.00" cy="207.38" r="3.2" fill="#2f5fa7"/><circle cx="905.00" cy="205.59" r="3.2" fill="#2f5fa7"/><circle cx="926.00" cy="203.82" r="3.2" fill="#2f5fa7"/><path d="M86.00,440.00 L107.00,336.20 L128.00,318.75 L149.00,308.06 L170.00,377.39 L191.00,303.26 L212.00,286.37 L233.00,275.87 L254.00,268.04 L275.00,261.68 L296.00,256.27 L317.00,251.50 L338.00,247.21 L359.00,243.29 L380.00,239.66 L401.00,236.26 L422.00,233.05 L443.00,230.00 L464.00,227.10 L485.00,224.31 L506.00,221.62 L527.00,219.03 L548.00,216.52 L569.00,214.08 L590.00,211.70 L611.00,209.39 L632.00,207.12 L653.00,204.91 L674.00,202.74 L695.00,200.61 L716.00,198.52 L737.00,196.46 L758.00,194.43 L779.00,192.44 L800.00,190.47 L821.00,188.53 L842.00,186.61 L863.00,184.71 L884.00,182.84 L905.00,180.99 L926.00,179.15 " fill="none" stroke="#7c4fa0" stroke-width="2.6"/><circle cx="86.00" cy="440.00" r="3.2" fill="#7c4fa0"/><circle cx="107.00" cy="336.20" r="3.2" fill="#7c4fa0"/><circle cx="128.00" cy="318.75" r="3.2" fill="#7c4fa0"/><circle cx="149.00" cy="308.06" r="3.2" fill="#7c4fa0"/><circle cx="170.00" cy="377.39" r="3.2" fill="#7c4fa0"/><circle cx="191.00" cy="303.26" r="3.2" fill="#7c4fa0"/><circle cx="212.00" cy="286.37" r="3.2" fill="#7c4fa0"/><circle cx="233.00" cy="275.87" r="3.2" fill="#7c4fa0"/><circle cx="254.00" cy="268.04" r="3.2" fill="#7c4fa0"/><circle cx="275.00" cy="261.68" r="3.2" fill="#7c4fa0"/><circle cx="296.00" cy="256.27" r="3.2" fill="#7c4fa0"/><circle cx="317.00" cy="251.50" r="3.2" fill="#7c4fa0"/><circle cx="338.00" cy="247.21" r="3.2" fill="#7c4fa0"/><circle cx="359.00" cy="243.29" r="3.2" fill="#7c4fa0"/><circle cx="380.00" cy="239.66" r="3.2" fill="#7c4fa0"/><circle cx="401.00" cy="236.26" r="3.2" fill="#7c4fa0"/><circle cx="422.00" cy="233.05" r="3.2" fill="#7c4fa0"/><circle cx="443.00" cy="230.00" r="3.2" fill="#7c4fa0"/><circle cx="464.00" cy="227.10" r="3.2" fill="#7c4fa0"/><circle cx="485.00" cy="224.31" r="3.2" fill="#7c4fa0"/><circle cx="506.00" cy="221.62" r="3.2" fill="#7c4fa0"/><circle cx="527.00" cy="219.03" r="3.2" fill="#7c4fa0"/><circle cx="548.00" cy="216.52" r="3.2" fill="#7c4fa0"/><circle cx="569.00" cy="214.08" r="3.2" fill="#7c4fa0"/><circle cx="590.00" cy="211.70" r="3.2" fill="#7c4fa0"/><circle cx="611.00" cy="209.39" r="3.2" fill="#7c4fa0"/><circle cx="632.00" cy="207.12" r="3.2" fill="#7c4fa0"/><circle cx="653.00" cy="204.91" r="3.2" fill="#7c4fa0"/><circle cx="674.00" cy="202.74" r="3.2" fill="#7c4fa0"/><circle cx="695.00" cy="200.61" r="3.2" fill="#7c4fa0"/><circle cx="716.00" cy="198.52" r="3.2" fill="#7c4fa0"/><circle cx="737.00" cy="196.46" r="3.2" fill="#7c4fa0"/><circle cx="758.00" cy="194.43" r="3.2" fill="#7c4fa0"/><circle cx="779.00" cy="192.44" r="3.2" fill="#7c4fa0"/><circle cx="800.00" cy="190.47" r="3.2" fill="#7c4fa0"/><circle cx="821.00" cy="188.53" r="3.2" fill="#7c4fa0"/><circle cx="842.00" cy="186.61" r="3.2" fill="#7c4fa0"/><circle cx="863.00" cy="184.71" r="3.2" fill="#7c4fa0"/><circle cx="884.00" cy="182.84" r="3.2" fill="#7c4fa0"/><circle cx="905.00" cy="180.99" r="3.2" fill="#7c4fa0"/><circle cx="926.00" cy="179.15" r="3.2" fill="#7c4fa0"/><line x1="86" x2="110" y1="494" y2="494" stroke="#cc7045" stroke-width="3"/><text x="118" y="499">Метод Эйлера</text><line x1="546" x2="570" y1="494" y2="494" stroke="#2f5fa7" stroke-width="3"/><text x="578" y="499">Метод Рунге-Кутта 4-го порядка</text><line x1="86" x2="110" y1="514" y2="514" stroke="#7c4fa0" stroke-width="3"/><text x="118" y="519">Метод Адамса (предиктор-корректор)</text></svg>