<svg xmlns="http://www.w3.org/2000/svg" viewBox="0 0 960 545" role="img" aria-label="График решения задачи Коши">
  <rect width="960" height="545" fill="white"/><defs><clipPath id="plotClip"><rect x="76" y="40" width="850" height="400"/></clipPath></defs>
  <style>text{font-family:Arial,sans-serif;font-size:13px;fill:#526278}.grid{stroke:#e5ecf5;stroke-width:1}</style><path class="grid" d="M76 40V440 M76 440H926"/>
      <text x="76" y="466" text-anchor="middle">0</text>
      <text x="65" y="444" text-anchor="end">-0.078</text><path class="grid" d="M217.66666666666666 40V440 M76 373.33333333333337H926"/>
      <text x="217.66666666666666" y="466" text-anchor="middle">0.333</text>
      <text x="65" y="377.33333333333337" text-anchor="end">2.078</text><path class="grid" d="M359.3333333333333 40V440 M76 306.6666666666667H926"/>
      <text x="359.3333333333333" y="466" text-anchor="middle">0.667</text>
      <text x="65" y="310.6666666666667" text-anchor="end">4.233</text><path class="grid" d="M501 40V440 M76 240.00000000000006H926"/>
      <text x="501" y="466" text-anchor="middle">1</text>
      <text x="65" y="244.00000000000006" text-anchor="end">6.389</text><path class="grid" d="M642.6666666666666 40V440 M76 173.33333333333337H926"/>
      <text x="642.6666666666666" y="466" text-anchor="middle">1.333</text>
      <text x="65" y="177.33333333333337" text-anchor="end">8.545</text><path class="grid" d="M784.3333333333334 40V440 M76 106.66666666666663H926"/>
      <text x="784.3333333333334" y="466" text-anchor="middle">1.667</text>
      <text x="65" y="110.66666666666663" text-anchor="end">10.7</text><path class="grid" d="M926 40V440 M76 40.00000000000006H926"/>
      <text x="926" y="466" text-anchor="middle">2</text>
      <text x="65" y="44.00000000000006" text-anchor="end">12.856</text><path d="M76 40V440H926" fill="none" stroke="#64748b"/><text x="940" y="444">x</text><text x="65" y="26">y</text><path d="M76.00,406.67 L78.13,406.51 L80.25,406.35 L82.38,406.20 L84.50,406.04 L86.63,405.87 L88.75,405.71 L90.88,405.55 L93.00,405.38 L95.13,405.21 L97.25,405.04 L99.38,404.87 L101.50,404.70 L103.63,404.52 L105.75,404.35 L107.88,404.17 L110.00,403.99 L112.13,403.81 L114.25,403.63 L116.38,403.44 L118.50,403.25 L120.63,403.07 L122.75,402.88 L124.88,402.68 L127.00,402.49 L129.13,402.30 L131.25,402.10 L133.38,401.90 L135.50,401.70 L137.63,401.50 L139.75,401.30 L141.88,401.09 L144.00,400.88 L146.13,400.67 L148.25,400.46 L150.38,400.25 L152.50,400.03 L154.63,399.82 L156.75,399.60 L158.88,399.38 L161.00,399.16 L163.13,398.93 L165.25,398.71 L167.38,398.48 L169.50,398.25 L171.63,398.02 L173.75,397.78 L175.88,397.55 L178.00,397.31 L180.13,397.07 L182.25,396.83 L184.38,396.59 L186.50,396.34 L188.63,396.09 L190.75,395.84 L192.88,395.59 L195.00,395.34 L197.13,395.08 L199.25,394.83 L201.38,394.57 L203.50,394.30 L205.63,394.04 L207.75,393.77 L209.88,393.51 L212.00,393.24 L214.13,392.96 L216.25,392.69 L218.38,392.41 L220.50,392.13 L222.63,391.85 L224.75,391.57 L226.88,391.28 L229.00,391.00 L231.13,390.71 L233.25,390.42 L235.38,390.12 L237.50,389.82 L239.63,389.53 L241.75,389.23 L243.88,388.92 L246.00,388.62 L248.13,388.31 L250.25,388.00 L252.38,387.69 L254.50,387.37 L256.63,387.05 L258.75,386.73 L260.88,386.41 L263.00,386.09 L265.13,385.76 L267.25,385.43 L269.38,385.10 L271.50,384.77 L273.63,384.43 L275.75,384.09 L277.88,383.75 L280.00,383.41 L282.13,383.06 L284.25,382.71 L286.38,382.36 L288.50,382.00 L290.63,381.65 L292.75,381.29 L294.88,380.93 L297.00,380.56 L299.13,380.20 L301.25,379.83 L303.38,379.45 L305.50,379.08 L307.63,378.70 L309.75,378.32 L311.88,377.94 L314.00,377.55 L316.13,377.17 L318.25,376.77 L320.38,376.38 L322.50,375.98 L324.63,375.59 L326.75,375.18 L328.88,374.78 L331.00,374.37 L333.13,373.96 L335.25,373.55 L337.38,373.13 L339.50,372.71 L341.63,372.29 L343.75,371.87 L345.88,371.44 L348.00,371.01 L350.13,370.58 L352.25,370.14 L354.38,369.70 L356.50,369.26 L358.63,368.81 L360.75,368.36 L362.88,367.91 L365.00,367.46 L367.13,367.00 L369.25,366.54 L371.38,366.08 L373.50,365.61 L375.63,365.14 L377.75,364.67 L379.88,364.19 L382.00,363.71 L384.13,363.23 L386.25,362.75 L388.38,362.26 L390.50,361.76 L392.63,361.27 L394.75,360.77 L396.88,360.27 L399.00,359.76 L401.13,359.26 L403.25,358.74 L405.38,358.23 L407.50,357.71 L409.63,357.19 L411.75,356.66 L413.88,356.14 L416.00,355.60 L418.13,355.07 L420.25,354.53 L422.38,353.99 L424.50,353.44 L426.63,352.89 L428.75,352.34 L430.88,351.78 L433.00,351.22 L435.13,350.66 L437.25,350.09 L439.38,349.52 L441.50,348.95 L443.63,348.37 L445.75,347.79 L447.88,347.20 L450.00,346.61 L452.13,346.02 L454.25,345.42 L456.38,344.82 L458.50,344.22 L460.63,343.61 L462.75,343.00 L464.88,342.38 L467.00,341.76 L469.13,341.14 L471.25,340.51 L473.38,339.88 L475.50,339.25 L477.63,338.61 L479.75,337.97 L481.88,337.32 L484.00,336.67 L486.13,336.01 L488.25,335.35 L490.38,334.69 L492.50,334.02 L494.63,333.35 L496.75,332.68 L498.88,332.00 L501.00,331.31 L503.12,330.62 L505.25,329.93 L507.37,329.23 L509.50,328.53 L511.62,327.83 L513.75,327.12 L515.88,326.40 L518.00,325.69 L520.13,324.96 L522.25,324.24 L524.38,323.51 L526.50,322.77 L528.63,322.03 L530.75,321.29 L532.88,320.54 L535.00,319.78 L537.13,319.02 L539.25,318.26 L541.38,317.49 L543.50,316.72 L545.63,315.94 L547.75,315.16 L549.88,314.38 L552.00,313.59 L554.13,312.79 L556.25,311.99 L558.38,311.18 L560.50,310.37 L562.63,309.56 L564.75,308.74 L566.88,307.92 L569.00,307.09 L571.13,306.25 L573.25,305.41 L575.38,304.57 L577.50,303.72 L579.63,302.86 L581.75,302.01 L583.88,301.14 L586.00,300.27 L588.13,299.40 L590.25,298.52 L592.38,297.63 L594.50,296.74 L596.63,295.85 L598.75,294.94 L600.88,294.04 L603.00,293.13 L605.13,292.21 L607.25,291.29 L609.38,290.36 L611.50,289.43 L613.63,288.49 L615.75,287.55 L617.88,286.60 L620.00,285.64 L622.13,284.68 L624.25,283.71 L626.38,282.74 L628.50,281.77 L630.63,280.78 L632.75,279.79 L634.88,278.80 L637.00,277.80 L639.13,276.79 L641.25,275.78 L643.38,274.76 L645.50,273.74 L647.63,272.71 L649.75,271.68 L651.88,270.63 L654.00,269.59 L656.13,268.53 L658.25,267.47 L660.38,266.41 L662.50,265.34 L664.63,264.26 L666.75,263.18 L668.88,262.09 L671.00,260.99 L673.13,259.89 L675.25,258.78 L677.38,257.66 L679.50,256.54 L681.63,255.41 L683.75,254.28 L685.88,253.14 L688.00,251.99 L690.13,250.84 L692.25,249.67 L694.38,248.51 L696.50,247.33 L698.63,246.15 L700.75,244.97 L702.88,243.77 L705.00,242.57 L707.13,241.36 L709.25,240.15 L711.38,238.93 L713.50,237.70 L715.63,236.47 L717.75,235.22 L719.88,233.98 L722.00,232.72 L724.13,231.46 L726.25,230.19 L728.38,228.91 L730.50,227.63 L732.63,226.33 L734.75,225.04 L736.88,223.73 L739.00,222.42 L741.13,221.09 L743.25,219.77 L745.38,218.43 L747.50,217.09 L749.63,215.74 L751.75,214.38 L753.88,213.01 L756.00,211.64 L758.13,210.26 L760.25,208.87 L762.38,207.47 L764.50,206.07 L766.63,204.66 L768.75,203.24 L770.88,201.81 L773.00,200.37 L775.13,198.93 L777.25,197.48 L779.38,196.02 L781.50,194.55 L783.63,193.08 L785.75,191.59 L787.88,190.10 L790.00,188.60 L792.13,187.09 L794.25,185.57 L796.38,184.05 L798.50,182.51 L800.63,180.97 L802.75,179.42 L804.88,177.86 L807.00,176.29 L809.13,174.71 L811.25,173.13 L813.38,171.53 L815.50,169.93 L817.63,168.32 L819.75,166.70 L821.88,165.07 L824.00,163.43 L826.13,161.78 L828.25,160.13 L830.38,158.46 L832.50,156.79 L834.63,155.10 L836.75,153.41 L838.88,151.71 L841.00,150.00 L843.13,148.27 L845.25,146.54 L847.38,144.80 L849.50,143.05 L851.63,141.30 L853.75,139.53 L855.88,137.75 L858.00,135.96 L860.13,134.16 L862.25,132.36 L864.38,130.54 L866.50,128.71 L868.63,126.88 L870.75,125.03 L872.88,123.17 L875.00,121.30 L877.13,119.43 L879.25,117.54 L881.38,115.64 L883.50,113.73 L885.63,111.82 L887.75,109.89 L889.88,107.95 L892.00,106.00 L894.13,104.04 L896.25,102.07 L898.38,100.09 L900.50,98.09 L902.63,96.09 L904.75,94.08 L906.88,92.05 L909.00,90.02 L911.13,87.97 L913.25,85.91 L915.38,83.84 L917.50,81.76 L919.63,79.67 L921.75,77.57 L923.88,75.46 L926.00,73.33 " fill="none" stroke="#3d7c55" stroke-width="3.5"  clip-path="url(#plotClip)"/><path d="M76.00,406.67 L76.53,406.63 L77.06,406.59 L77.59,406.55 L78.13,406.51 L78.66,406.47 L79.19,406.43 L79.72,406.39 L80.25,406.35 L80.78,406.31 L81.32,406.27 L81.85,406.24 L82.38,406.20 L82.91,406.16 L83.44,406.12 L83.97,406.08 L84.50,406.04 L85.04,405.99 L85.57,405.95 L86.10,405.91 L86.63,405.87 L87.16,405.83 L87.69,405.79 L88.23,405.75 L88.76,405.71 L89.29,405.67 L89.82,405.63 L90.36,405.59 L90.88,405.55 L91.41,405.50 L91.95,405.46 L92.48,405.42 L93.01,405.38 L93.54,405.34 L94.07,405.29 L94.60,405.25 L95.14,405.21 L95.67,405.17 L96.20,405.13 L96.73,405.08 L97.27,405.04 L97.79,405.00 L98.32,404.96 L98.86,404.91 L99.39,404.87 L99.92,404.83 L100.45,404.78 L100.99,404.74 L101.51,404.70 L102.05,404.65 L102.58,404.61 L103.11,404.57 L103.64,404.52 L104.18,404.48 L104.71,404.43 L105.24,404.39 L105.77,404.35 L106.30,404.30 L106.83,404.26 L107.36,404.21 L107.90,404.17 L108.42,404.12 L108.96,404.08 L109.49,404.03 L110.02,403.99 L110.55,403.94 L111.09,403.90 L111.62,403.85 L112.15,403.81 L112.68,403.76 L113.21,403.71 L113.74,403.67 L114.27,403.62 L114.81,403.58 L115.34,403.53 L115.87,403.48 L116.40,403.44 L116.93,403.39 L117.46,403.35 L118.00,403.30 L118.53,403.25 L119.06,403.20 L119.59,403.16 L120.12,403.11 L120.65,403.06 L121.18,403.02 L121.72,402.97 L122.25,402.92 L122.78,402.87 L123.31,402.83 L123.84,402.78 L124.37,402.73 L124.91,402.68 L125.44,402.63 L125.97,402.59 L126.50,402.54 L127.03,402.49 L127.56,402.44 L128.09,402.39 L128.63,402.34 L129.16,402.29 L129.69,402.24 L130.22,402.20 L130.75,402.15 L131.28,402.10 L131.82,402.05 L132.35,402.00 L132.88,401.95 L133.41,401.90 L133.94,401.85 L134.47,401.80 L135.01,401.75 L135.54,401.70 L136.07,401.65 L136.60,401.60 L137.13,401.55 L137.66,401.50 L138.19,401.45 L138.73,401.39 L139.26,401.34 L139.79,401.29 L140.32,401.24 L140.86,401.19 L141.38,401.14 L141.92,401.09 L142.45,401.03 L142.98,400.98 L143.51,400.93 L144.04,400.88 L144.57,400.83 L145.10,400.77 L145.64,400.72 L146.17,400.67 L146.70,400.62 L147.23,400.56 L147.77,400.51 L148.29,400.46 L148.83,400.40 L149.36,400.35 L149.89,400.30 L150.42,400.24 L150.95,400.19 L151.49,400.14 L152.01,400.08 L152.55,400.03 L153.08,399.98 L153.61,399.92 L154.14,399.87 L154.68,399.81 L155.21,399.76 L155.74,399.70 L156.27,399.65 L156.80,399.59 L157.33,399.54 L157.86,399.49 L158.40,399.43 L158.92,399.37 L159.46,399.32 L159.99,399.26 L160.52,399.21 L161.05,399.15 L161.59,399.10 L162.12,399.04 L162.65,398.98 L163.18,398.93 L163.71,398.87 L164.24,398.81 L164.77,398.76 L165.31,398.70 L165.84,398.64 L166.37,398.59 L166.90,398.53 L167.43,398.47 L167.96,398.42 L168.50,398.36 L169.03,398.30 L169.56,398.24 L170.09,398.19 L170.62,398.13 L171.15,398.07 L171.69,398.01 L172.22,397.95 L172.75,397.90 L173.28,397.84 L173.81,397.78 L174.34,397.72 L174.87,397.66 L175.41,397.60 L175.94,397.54 L176.47,397.48 L177.00,397.42 L177.53,397.36 L178.06,397.30 L178.60,397.24 L179.13,397.18 L179.66,397.12 L180.19,397.06 L180.72,397.00 L181.25,396.94 L181.78,396.88 L182.32,396.82 L182.85,396.76 L183.38,396.70 L183.91,396.64 L184.44,396.58 L184.97,396.52 L185.51,396.46 L186.04,396.40 L186.57,396.33 L187.10,396.27 L187.63,396.21 L188.16,396.15 L188.69,396.09 L189.23,396.02 L189.76,395.96 L190.29,395.90 L190.82,395.84 L191.35,395.77 L191.88,395.71 L192.42,395.65 L192.95,395.58 L193.48,395.52 L194.01,395.46 L194.54,395.39 L195.07,395.33 L195.60,395.27 L196.14,395.20 L196.67,395.14 L197.20,395.07 L197.73,395.01 L198.27,394.95 L198.79,394.88 L199.33,394.82 L199.86,394.75 L200.39,394.69 L200.92,394.62 L201.46,394.56 L201.99,394.49 L202.51,394.43 L203.05,394.36 L203.58,394.30 L204.11,394.23 L204.64,394.16 L205.18,394.10 L205.70,394.03 L206.24,393.96 L206.77,393.90 L207.30,393.83 L207.83,393.76 L208.37,393.70 L208.90,393.63 L209.42,393.56 L209.96,393.50 L210.49,393.43 L211.02,393.36 L211.55,393.29 L212.09,393.23 L212.62,393.16 L213.15,393.09 L213.68,393.02 L214.21,392.95 L214.74,392.88 L215.28,392.82 L215.81,392.75 L216.34,392.68 L216.87,392.61 L217.40,392.54 L217.93,392.47 L218.46,392.40 L219.00,392.33 L219.53,392.26 L220.06,392.19 L220.59,392.12 L221.12,392.05 L221.65,391.98 L222.19,391.91 L222.72,391.84 L223.25,391.77 L223.78,391.70 L224.31,391.63 L224.84,391.56 L225.37,391.49 L225.91,391.42 L226.44,391.34 L226.97,391.27 L227.50,391.20 L228.03,391.13 L228.56,391.06 L229.10,390.98 L229.63,390.91 L230.16,390.84 L230.69,390.77 L231.22,390.69 L231.75,390.62 L232.28,390.55 L232.82,390.48 L233.35,390.40 L233.88,390.33 L234.41,390.26 L234.94,390.18 L235.47,390.11 L236.01,390.03 L236.54,389.96 L237.07,389.89 L237.60,389.81 L238.14,389.74 L238.66,389.66 L239.19,389.59 L239.73,389.51 L240.26,389.44 L240.79,389.36 L241.32,389.29 L241.85,389.21 L242.38,389.14 L242.92,389.06 L243.45,388.98 L243.98,388.91 L244.51,388.83 L245.05,388.75 L245.57,388.68 L246.10,388.60 L246.64,388.52 L247.17,388.45 L247.70,388.37 L248.23,388.29 L248.77,388.22 L249.29,388.14 L249.83,388.06 L250.36,387.98 L250.89,387.90 L251.42,387.83 L251.96,387.75 L252.48,387.67 L253.02,387.59 L253.55,387.51 L254.08,387.43 L254.61,387.35 L255.14,387.28 L255.68,387.20 L256.20,387.12 L256.74,387.04 L257.27,386.96 L257.80,386.88 L258.33,386.80 L258.87,386.72 L259.40,386.64 L259.93,386.56 L260.46,386.48 L260.99,386.39 L261.52,386.31 L262.05,386.23 L262.59,386.15 L263.12,386.07 L263.65,385.99 L264.18,385.91 L264.71,385.82 L265.24,385.74 L265.78,385.66 L266.31,385.58 L266.84,385.50 L267.37,385.41 L267.90,385.33 L268.43,385.25 L268.96,385.16 L269.50,385.08 L270.03,385.00 L270.56,384.91 L271.09,384.83 L271.62,384.75 L272.15,384.66 L272.69,384.58 L273.22,384.49 L273.75,384.41 L274.28,384.33 L274.81,384.24 L275.34,384.16 L275.87,384.07 L276.41,383.99 L276.94,383.90 L277.47,383.81 L278.00,383.73 L278.53,383.64 L279.06,383.56 L279.60,383.47 L280.13,383.38 L280.66,383.30 L281.19,383.21 L281.72,383.12 L282.25,383.04 L282.79,382.95 L283.32,382.86 L283.85,382.78 L284.38,382.69 L284.91,382.60 L285.44,382.51 L285.97,382.43 L286.51,382.34 L287.04,382.25 L287.57,382.16 L288.10,382.07 L288.63,381.98 L289.16,381.89 L289.70,381.80 L290.23,381.71 L290.76,381.63 L291.29,381.54 L291.82,381.45 L292.35,381.36 L292.88,381.27 L293.42,381.18 L293.95,381.09 L294.48,380.99 L295.01,380.90 L295.55,380.81 L296.07,380.72 L296.61,380.63 L297.14,380.54 L297.67,380.45 L298.20,380.36 L298.73,380.26 L299.27,380.17 L299.79,380.08 L300.33,379.99 L300.86,379.90 L301.39,379.80 L301.92,379.71 L302.46,379.62 L302.98,379.52 L303.52,379.43 L304.05,379.34 L304.58,379.24 L305.11,379.15 L305.64,379.05 L306.18,378.96 L306.70,378.87 L307.24,378.77 L307.77,378.68 L308.30,378.58 L308.83,378.49 L309.37,378.39 L309.90,378.30 L310.43,378.20 L310.96,378.10 L311.49,378.01 L312.02,377.91 L312.55,377.82 L313.09,377.72 L313.62,377.62 L314.15,377.53 L314.68,377.43 L315.21,377.33 L315.74,377.24 L316.28,377.14 L316.81,377.04 L317.34,376.94 L317.87,376.85 L318.40,376.75 L318.93,376.65 L319.47,376.55 L320.00,376.45 L320.53,376.35 L321.06,376.25 L321.59,376.16 L322.12,376.06 L322.65,375.96 L323.19,375.86 L323.72,375.76 L324.25,375.66 L324.78,375.56 L325.31,375.46 L325.84,375.36 L326.38,375.25 L326.91,375.15 L327.44,375.05 L327.97,374.95 L328.50,374.85 L329.03,374.75 L329.56,374.65 L330.10,374.55 L330.63,374.44 L331.16,374.34 L331.69,374.24 L332.22,374.14 L332.75,374.03 L333.29,373.93 L333.82,373.83 L334.35,373.72 L334.88,373.62 L335.41,373.52 L335.94,373.41 L336.47,373.31 L337.01,373.20 L337.54,373.10 L338.07,373.00 L338.60,372.89 L339.13,372.79 L339.66,372.68 L340.20,372.58 L340.73,372.47 L341.26,372.36 L341.79,372.26 L342.32,372.15 L342.85,372.05 L343.38,371.94 L343.92,371.83 L344.45,371.73 L344.98,371.62 L345.51,371.51 L346.05,371.41 L346.57,371.30 L347.11,371.19 L347.64,371.08 L348.17,370.97 L348.70,370.87 L349.24,370.76 L349.76,370.65 L350.29,370.54 L350.83,370.43 L351.36,370.32 L351.89,370.21 L352.42,370.10 L352.96,369.99 L353.48,369.89 L354.02,369.77 L354.55,369.66 L355.08,369.55 L355.61,369.44 L356.15,369.33 L356.68,369.22 L357.20,369.11 L357.74,369.00 L358.27,368.89 L358.80,368.78 L359.33,368.66 L359.87,368.55 L360.40,368.44 L360.93,368.33 L361.46,368.21 L361.99,368.10 L362.52,367.99 L363.06,367.88 L363.59,367.76 L364.12,367.65 L364.65,367.53 L365.18,367.42 L365.71,367.31 L366.24,367.19 L366.78,367.08 L367.31,366.96 L367.84,366.85 L368.37,366.73 L368.90,366.62 L369.43,366.50 L369.97,366.39 L370.50,366.27 L371.03,366.15 L371.56,366.04 L372.09,365.92 L372.62,365.80 L373.15,365.69 L373.69,365.57 L374.22,365.45 L374.75,365.34 L375.28,365.22 L375.81,365.10 L376.34,364.98 L376.88,364.86 L377.41,364.75 L377.94,364.63 L378.47,364.51 L379.00,364.39 L379.53,364.27 L380.06,364.15 L380.60,364.03 L381.13,363.91 L381.66,363.79 L382.19,363.67 L382.72,363.55 L383.25,363.43 L383.79,363.31 L384.32,363.19 L384.85,363.07 L385.38,362.95 L385.91,362.82 L386.44,362.70 L386.97,362.58 L387.51,362.46 L388.04,362.34 L388.57,362.21 L389.10,362.09 L389.63,361.97 L390.16,361.84 L390.70,361.72 L391.23,361.60 L391.76,361.47 L392.29,361.35 L392.83,361.22 L393.35,361.10 L393.88,360.98 L394.42,360.85 L394.95,360.73 L395.48,360.60 L396.01,360.47 L396.55,360.35 L397.07,360.22 L397.61,360.10 L398.14,359.97 L398.67,359.84 L399.20,359.72 L399.74,359.59 L400.26,359.46 L400.80,359.33 L401.33,359.21 L401.86,359.08 L402.39,358.95 L402.92,358.82 L403.46,358.70 L403.98,358.57 L404.52,358.44 L405.05,358.31 L405.58,358.18 L406.11,358.05 L406.65,357.92 L407.18,357.79 L407.71,357.66 L408.24,357.53 L408.77,357.40 L409.30,357.27 L409.83,357.14 L410.37,357.01 L410.90,356.88 L411.43,356.74 L411.96,356.61 L412.49,356.48 L413.02,356.35 L413.56,356.22 L414.09,356.08 L414.62,355.95 L415.15,355.82 L415.68,355.68 L416.21,355.55 L416.74,355.42 L417.28,355.28 L417.81,355.15 L418.34,355.01 L418.87,354.88 L419.40,354.75 L419.93,354.61 L420.47,354.48 L421.00,354.34 L421.53,354.20 L422.06,354.07 L422.59,353.93 L423.12,353.80 L423.65,353.66 L424.19,353.52 L424.72,353.39 L425.25,353.25 L425.78,353.11 L426.31,352.97 L426.84,352.84 L427.38,352.70 L427.91,352.56 L428.44,352.42 L428.97,352.28 L429.50,352.14 L430.03,352.00 L430.57,351.86 L431.10,351.73 L431.63,351.59 L432.16,351.45 L432.69,351.31 L433.22,351.16 L433.75,351.02 L434.29,350.88 L434.82,350.74 L435.35,350.60 L435.88,350.46 L436.41,350.32 L436.94,350.18 L437.48,350.03 L438.01,349.89 L438.54,349.75 L439.07,349.60 L439.60,349.46 L440.13,349.32 L440.66,349.17 L441.20,349.03 L441.73,348.89 L442.26,348.74 L442.79,348.60 L443.33,348.45 L443.85,348.31 L444.39,348.16 L444.92,348.02 L445.45,347.87 L445.98,347.72 L446.51,347.58 L447.04,347.43 L447.57,347.29 L448.11,347.14 L448.64,346.99 L449.17,346.84 L449.70,346.70 L450.24,346.55 L450.76,346.40 L451.30,346.25 L451.83,346.10 L452.36,345.95 L452.89,345.81 L453.42,345.66 L453.96,345.51 L454.48,345.36 L455.02,345.21 L455.55,345.06 L456.08,344.91 L456.61,344.76 L457.15,344.61 L457.68,344.45 L458.21,344.30 L458.74,344.15 L459.27,344.00 L459.80,343.85 L460.34,343.69 L460.87,343.54 L461.39,343.39 L461.93,343.24 L462.46,343.08 L462.99,342.93 L463.52,342.78 L464.06,342.62 L464.59,342.47 L465.12,342.31 L465.65,342.16 L466.18,342.00 L466.71,341.85 L467.25,341.69 L467.78,341.54 L468.31,341.38 L468.84,341.23 L469.37,341.07 L469.90,340.91 L470.43,340.76 L470.97,340.60 L471.50,340.44 L472.03,340.28 L472.56,340.13 L473.09,339.97 L473.62,339.81 L474.16,339.65 L474.69,339.49 L475.22,339.33 L475.75,339.17 L476.28,339.01 L476.81,338.85 L477.34,338.69 L477.88,338.53 L478.41,338.37 L478.94,338.21 L479.47,338.05 L480.00,337.89 L480.53,337.73 L481.07,337.57 L481.60,337.40 L482.13,337.24 L482.66,337.08 L483.19,336.92 L483.72,336.75 L484.25,336.59 L484.79,336.43 L485.32,336.26 L485.85,336.10 L486.38,335.93 L486.91,335.77 L487.44,335.60 L487.98,335.44 L488.51,335.27 L489.04,335.11 L489.57,334.94 L490.10,334.78 L490.63,334.61 L491.16,334.44 L491.70,334.28 L492.23,334.11 L492.76,333.94 L493.29,333.77 L493.83,333.60 L494.35,333.44 L494.89,333.27 L495.42,333.10 L495.95,332.93 L496.48,332.76 L497.02,332.59 L497.54,332.42 L498.07,332.25 L498.61,332.08 L499.14,331.91 L499.67,331.74 L500.20,331.57 L500.74,331.40 L501.26,331.23 L501.80,331.05 L502.33,330.88 L502.86,330.71 L503.39,330.54 L503.93,330.36 L504.46,330.19 L504.98,330.02 L505.52,329.84 L506.05,329.67 L506.58,329.50 L507.11,329.32 L507.65,329.15 L508.17,328.97 L508.71,328.80 L509.24,328.62 L509.77,328.44 L510.30,328.27 L510.84,328.09 L511.37,327.92 L511.90,327.74 L512.43,327.56 L512.96,327.38 L513.49,327.21 L514.02,327.03 L514.56,326.85 L515.09,326.67 L515.62,326.49 L516.15,326.31 L516.68,326.13 L517.21,325.95 L517.75,325.77 L518.28,325.59 L518.81,325.41 L519.34,325.23 L519.87,325.05 L520.40,324.87 L520.93,324.69 L521.47,324.51 L522.00,324.33 L522.53,324.14 L523.06,323.96 L523.59,323.78 L524.12,323.59 L524.66,323.41 L525.19,323.23 L525.72,323.04 L526.25,322.86 L526.78,322.67 L527.31,322.49 L527.84,322.30 L528.38,322.12 L528.91,321.93 L529.44,321.75 L529.97,321.56 L530.50,321.37 L531.03,321.19 L531.57,321.00 L532.10,320.81 L532.63,320.62 L533.16,320.44 L533.69,320.25 L534.22,320.06 L534.75,319.87 L535.29,319.68 L535.82,319.49 L536.35,319.30 L536.88,319.11 L537.41,318.92 L537.94,318.73 L538.48,318.54 L539.01,318.35 L539.54,318.16 L540.07,317.97 L540.61,317.77 L541.13,317.58 L541.66,317.39 L542.20,317.20 L542.73,317.00 L543.26,316.81 L543.79,316.62 L544.32,316.42 L544.85,316.23 L545.39,316.03 L545.92,315.84 L546.45,315.64 L546.98,315.45 L547.52,315.25 L548.04,315.06 L548.58,314.86 L549.11,314.66 L549.64,314.47 L550.17,314.27 L550.70,314.07 L551.24,313.87 L551.76,313.68 L552.30,313.48 L552.83,313.28 L553.36,313.08 L553.89,312.88 L554.43,312.68 L554.96,312.48 L555.49,312.28 L556.02,312.08 L556.55,311.88 L557.08,311.68 L557.61,311.48 L558.15,311.27 L558.67,311.07 L559.21,310.87 L559.74,310.67 L560.27,310.46 L560.80,310.26 L561.34,310.06 L561.87,309.85 L562.40,309.65 L562.93,309.44 L563.46,309.24 L563.99,309.03 L564.52,308.83 L565.06,308.62 L565.59,308.42 L566.12,308.21 L566.65,308.01 L567.18,307.80 L567.71,307.59 L568.25,307.38 L568.78,307.18 L569.31,306.97 L569.84,306.76 L570.37,306.55 L570.90,306.34 L571.43,306.13 L571.97,305.92 L572.50,305.71 L573.03,305.50 L573.56,305.29 L574.09,305.08 L574.62,304.87 L575.16,304.66 L575.69,304.45 L576.22,304.23 L576.75,304.02 L577.28,303.81 L577.81,303.59 L578.35,303.38 L578.88,303.17 L579.41,302.95 L579.94,302.74 L580.47,302.53 L581.00,302.31 L581.53,302.09 L582.07,301.88 L582.60,301.66 L583.13,301.45 L583.66,301.23 L584.19,301.01 L584.72,300.80 L585.26,300.58 L585.79,300.36 L586.32,300.14 L586.85,299.92 L587.38,299.71 L587.91,299.48 L588.44,299.27 L588.98,299.05 L589.51,298.83 L590.04,298.60 L590.57,298.38 L591.10,298.16 L591.63,297.94 L592.17,297.72 L592.70,297.50 L593.23,297.27 L593.76,297.05 L594.29,296.83 L594.82,296.61 L595.35,296.38 L595.89,296.16 L596.42,295.93 L596.95,295.71 L597.48,295.48 L598.02,295.26 L598.54,295.03 L599.08,294.81 L599.61,294.58 L600.14,294.35 L600.67,294.13 L601.20,293.90 L601.74,293.67 L602.26,293.44 L602.80,293.22 L603.33,292.99 L603.86,292.76 L604.39,292.53 L604.93,292.30 L605.45,292.07 L605.99,291.84 L606.52,291.61 L607.05,291.38 L607.58,291.15 L608.12,290.91 L608.65,290.68 L609.17,290.45 L609.71,290.22 L610.24,289.98 L610.77,289.75 L611.30,289.52 L611.84,289.28 L612.37,289.05 L612.90,288.81 L613.43,288.58 L613.96,288.34 L614.49,288.11 L615.03,287.87 L615.56,287.63 L616.09,287.40 L616.62,287.16 L617.15,286.92 L617.68,286.68 L618.21,286.45 L618.75,286.21 L619.28,285.97 L619.81,285.73 L620.34,285.49 L620.87,285.25 L621.40,285.01 L621.94,284.77 L622.47,284.53 L623.00,284.29 L623.53,284.04 L624.06,283.80 L624.59,283.56 L625.12,283.32 L625.66,283.07 L626.19,282.83 L626.72,282.59 L627.25,282.34 L627.78,282.10 L628.31,281.85 L628.85,281.61 L629.38,281.36 L629.91,281.12 L630.44,280.87 L630.97,280.62 L631.50,280.38 L632.03,280.13 L632.57,279.88 L633.10,279.63 L633.63,279.38 L634.16,279.14 L634.69,278.89 L635.22,278.64 L635.76,278.39 L636.29,278.14 L636.82,277.89 L637.35,277.64 L637.88,277.39 L638.41,277.13 L638.94,276.88 L639.48,276.63 L640.01,276.38 L640.54,276.12 L641.07,275.87 L641.60,275.61 L642.13,275.36 L642.67,275.10 L643.20,274.85 L643.73,274.59 L644.26,274.34 L644.80,274.08 L645.32,273.83 L645.85,273.57 L646.39,273.31 L646.92,273.06 L647.45,272.80 L647.98,272.54 L648.52,272.28 L649.04,272.02 L649.58,271.76 L650.11,271.50 L650.64,271.24 L651.17,270.98 L651.71,270.72 L652.24,270.46 L652.76,270.20 L653.30,269.94 L653.83,269.67 L654.36,269.41 L654.89,269.15 L655.43,268.88 L655.95,268.62 L656.49,268.35 L657.02,268.09 L657.55,267.82 L658.08,267.56 L658.62,267.29 L659.15,267.03 L659.68,266.76 L660.21,266.49 L660.74,266.23 L661.27,265.96 L661.80,265.69 L662.34,265.42 L662.87,265.15 L663.40,264.88 L663.93,264.62 L664.46,264.34 L664.99,264.07 L665.53,263.80 L666.06,263.53 L666.59,263.26 L667.12,262.99 L667.65,262.72 L668.18,262.44 L668.71,262.17 L669.25,261.90 L669.78,261.62 L670.31,261.35 L670.84,261.07 L671.37,260.80 L671.90,260.52 L672.44,260.25 L672.97,259.97 L673.50,259.69 L674.03,259.42 L674.56,259.14 L675.09,258.86 L675.62,258.58 L676.16,258.30 L676.69,258.03 L677.22,257.75 L677.75,257.47 L678.28,257.19 L678.81,256.91 L679.35,256.62 L679.88,256.34 L680.41,256.06 L680.94,255.78 L681.47,255.49 L682.00,255.21 L682.53,254.93 L683.07,254.65 L683.60,254.36 L684.13,254.08 L684.66,253.79 L685.19,253.51 L685.72,253.22 L686.26,252.93 L686.79,252.65 L687.32,252.36 L687.85,252.07 L688.38,251.78 L688.91,251.50 L689.45,251.21 L689.98,250.92 L690.51,250.63 L691.04,250.34 L691.57,250.05 L692.10,249.76 L692.63,249.47 L693.17,249.17 L693.70,248.88 L694.23,248.59 L694.76,248.30 L695.30,248.00 L695.82,247.71 L696.36,247.41 L696.89,247.12 L697.42,246.83 L697.95,246.53 L698.48,246.24 L699.02,245.94 L699.54,245.64 L700.08,245.34 L700.61,245.05 L701.14,244.75 L701.67,244.45 L702.21,244.15 L702.73,243.85 L703.27,243.55 L703.80,243.25 L704.33,242.96 L704.86,242.65 L705.39,242.35 L705.93,242.05 L706.45,241.75 L706.99,241.44 L707.52,241.14 L708.05,240.84 L708.58,240.54 L709.12,240.23 L709.65,239.93 L710.18,239.62 L710.71,239.32 L711.24,239.01 L711.77,238.70 L712.30,238.40 L712.84,238.09 L713.37,237.78 L713.90,237.47 L714.43,237.17 L714.96,236.85 L715.49,236.55 L716.03,236.24 L716.56,235.93 L717.09,235.61 L717.62,235.30 L718.15,234.99 L718.68,234.68 L719.21,234.37 L719.75,234.05 L720.28,233.74 L720.81,233.43 L721.34,233.11 L721.87,232.80 L722.40,232.48 L722.94,232.17 L723.47,231.85 L724.00,231.53 L724.53,231.22 L725.06,230.90 L725.59,230.58 L726.13,230.26 L726.66,229.95 L727.19,229.63 L727.72,229.31 L728.25,228.99 L728.78,228.67 L729.31,228.35 L729.85,228.02 L730.38,227.70 L730.91,227.38 L731.44,227.06 L731.97,226.73 L732.50,226.41 L733.04,226.08 L733.57,225.76 L734.10,225.44 L734.63,225.11 L735.16,224.79 L735.69,224.46 L736.22,224.13 L736.76,223.80 L737.29,223.48 L737.82,223.15 L738.35,222.82 L738.88,222.49 L739.41,222.16 L739.95,221.83 L740.48,221.50 L741.01,221.17 L741.54,220.84 L742.07,220.51 L742.60,220.17 L743.13,219.84 L743.67,219.51 L744.20,219.17 L744.73,218.84 L745.26,218.51 L745.80,218.17 L746.32,217.83 L746.86,217.50 L747.39,217.16 L747.92,216.82 L748.45,216.49 L748.98,216.15 L749.52,215.81 L750.04,215.47 L750.58,215.13 L751.11,214.79 L751.64,214.45 L752.17,214.11 L752.71,213.77 L753.23,213.43 L753.77,213.08 L754.30,212.74 L754.83,212.40 L755.36,212.06 L755.90,211.71 L756.43,211.37 L756.95,211.02 L757.49,210.68 L758.02,210.33 L758.55,209.98 L759.08,209.64 L759.62,209.29 L760.15,208.94 L760.68,208.59 L761.21,208.24 L761.74,207.89 L762.27,207.54 L762.81,207.19 L763.34,206.84 L763.86,206.49 L764.40,206.14 L764.93,205.79 L765.46,205.43 L765.99,205.08 L766.53,204.73 L767.06,204.37 L767.59,204.02 L768.12,203.66 L768.65,203.31 L769.18,202.95 L769.72,202.59 L770.25,202.24 L770.78,201.88 L771.31,201.52 L771.84,201.16 L772.37,200.80 L772.90,200.44 L773.44,200.08 L773.97,199.72 L774.50,199.36 L775.03,199.00 L775.56,198.63 L776.09,198.27 L776.63,197.91 L777.16,197.55 L777.69,197.18 L778.22,196.82 L778.75,196.45 L779.28,196.09 L779.81,195.72 L780.35,195.35 L780.88,194.99 L781.41,194.62 L781.94,194.25 L782.47,193.88 L783.00,193.51 L783.54,193.14 L784.07,192.77 L784.60,192.40 L785.13,192.03 L785.66,191.66 L786.19,191.28 L786.72,190.91 L787.26,190.54 L787.79,190.16 L788.32,189.79 L788.85,189.41 L789.38,189.04 L789.91,188.66 L790.45,188.28 L790.98,187.91 L791.51,187.53 L792.04,187.15 L792.58,186.77 L793.10,186.39 L793.63,186.02 L794.17,185.63 L794.70,185.25 L795.23,184.87 L795.76,184.49 L796.30,184.11 L796.82,183.73 L797.36,183.34 L797.89,182.96 L798.42,182.57 L798.95,182.19 L799.49,181.80 L800.01,181.42 L800.54,181.03 L801.08,180.64 L801.61,180.26 L802.14,179.87 L802.67,179.48 L803.21,179.09 L803.73,178.70 L804.27,178.31 L804.80,177.92 L805.33,177.53 L805.86,177.14 L806.40,176.74 L806.93,176.35 L807.46,175.95 L807.99,175.56 L808.52,175.17 L809.05,174.77 L809.58,174.38 L810.12,173.98 L810.65,173.58 L811.18,173.18 L811.71,172.79 L812.24,172.39 L812.77,171.99 L813.31,171.59 L813.84,171.19 L814.37,170.79 L814.90,170.39 L815.43,169.99 L815.96,169.58 L816.49,169.18 L817.03,168.78 L817.56,168.38 L818.09,167.97 L818.62,167.57 L819.15,167.16 L819.68,166.75 L820.22,166.35 L820.75,165.94 L821.28,165.53 L821.81,165.12 L822.34,164.71 L822.87,164.30 L823.40,163.90 L823.94,163.48 L824.47,163.07 L825.00,162.66 L825.53,162.25 L826.06,161.83 L826.59,161.42 L827.13,161.01 L827.66,160.59 L828.19,160.18 L828.72,159.76 L829.25,159.34 L829.78,158.93 L830.31,158.51 L830.85,158.09 L831.38,157.68 L831.91,157.26 L832.44,156.84 L832.97,156.42 L833.50,156.00 L834.04,155.57 L834.57,155.15 L835.10,154.73 L835.63,154.31 L836.16,153.88 L836.69,153.46 L837.23,153.03 L837.76,152.61 L838.29,152.18 L838.82,151.75 L839.35,151.33 L839.88,150.90 L840.41,150.47 L840.95,150.04 L841.48,149.61 L842.01,149.18 L842.54,148.75 L843.08,148.32 L843.60,147.89 L844.14,147.45 L844.67,147.02 L845.20,146.59 L845.73,146.15 L846.26,145.72 L846.79,145.28 L847.32,144.85 L847.86,144.41 L848.39,143.98 L848.92,143.54 L849.45,143.10 L849.99,142.66 L850.51,142.22 L851.05,141.78 L851.58,141.34 L852.11,140.90 L852.64,140.46 L853.17,140.01 L853.71,139.57 L854.23,139.13 L854.77,138.68 L855.30,138.24 L855.83,137.79 L856.36,137.35 L856.90,136.90 L857.43,136.45 L857.96,136.00 L858.49,135.55 L859.02,135.10 L859.55,134.65 L860.08,134.21 L860.62,133.75 L861.14,133.30 L861.68,132.85 L862.21,132.40 L862.74,131.94 L863.27,131.49 L863.81,131.03 L864.34,130.58 L864.87,130.12 L865.40,129.66 L865.93,129.20 L866.46,128.75 L866.99,128.29 L867.53,127.83 L868.06,127.37 L868.59,126.91 L869.12,126.45 L869.65,125.99 L870.18,125.53 L870.72,125.06 L871.25,124.60 L871.78,124.13 L872.31,123.67 L872.84,123.20 L873.37,122.74 L873.91,122.27 L874.44,121.80 L874.97,121.34 L875.50,120.87 L876.03,120.40 L876.56,119.93 L877.09,119.46 L877.63,118.99 L878.16,118.52 L878.69,118.04 L879.22,117.57 L879.75,117.09 L880.28,116.62 L880.82,116.15 L881.35,115.67 L881.88,115.20 L882.41,114.72 L882.94,114.24 L883.47,113.76 L884.00,113.29 L884.54,112.80 L885.07,112.33 L885.60,111.84 L886.13,111.36 L886.66,110.88 L887.19,110.40 L887.73,109.91 L888.26,109.43 L888.79,108.94 L889.32,108.46 L889.85,107.98 L890.38,107.49 L890.91,107.00 L891.45,106.51 L891.98,106.02 L892.51,105.53 L893.04,105.04 L893.58,104.55 L894.10,104.06 L894.64,103.57 L895.17,103.08 L895.70,102.58 L896.23,102.09 L896.76,101.60 L897.29,101.10 L897.82,100.61 L898.36,100.11 L898.89,99.61 L899.42,99.11 L899.95,98.61 L900.49,98.11 L901.01,97.61 L901.55,97.11 L902.08,96.61 L902.61,96.11 L903.14,95.61 L903.68,95.10 L904.21,94.60 L904.73,94.10 L905.27,93.59 L905.80,93.09 L906.33,92.58 L906.86,92.07 L907.40,91.56 L907.93,91.05 L908.46,90.54 L908.99,90.03 L909.52,89.52 L910.05,89.01 L910.59,88.50 L911.12,87.99 L911.64,87.47 L912.18,86.96 L912.71,86.44 L913.24,85.93 L913.77,85.41 L914.31,84.89 L914.84,84.38 L915.37,83.86 L915.90,83.34 L916.43,82.82 L916.96,82.30 L917.50,81.77 L918.03,81.25 L918.56,80.73 L919.09,80.21 L919.62,79.69 L920.15,79.16 L920.68,78.63 L921.22,78.11 L921.75,77.58 L922.28,77.05 L922.81,76.53 L923.34,75.99 L923.87,75.47 L924.41,74.93 L924.94,74.40 L925.47,73.87 L926.00,73.34 " fill="none" stroke="#cc7045" stroke-width="2.4" stroke-dasharray="8 6" clip-path="url(#plotClip)"/><path d="M76.00,406.67 L97.25,405.04 L118.50,403.25 L139.75,401.30 L161.00,399.16 L182.25,396.83 L203.50,394.30 L224.75,391.57 L246.00,388.62 L267.25,385.43 L288.50,382.00 L309.75,378.32 L331.00,374.37 L352.25,370.14 L373.50,365.61 L394.75,360.77 L416.00,355.60 L437.25,350.09 L458.50,344.22 L479.75,337.97 L501.00,331.31 L522.25,324.24 L543.50,316.72 L564.75,308.74 L586.00,300.27 L607.25,291.29 L628.50,281.77 L649.75,271.68 L671.00,260.99 L692.25,249.67 L713.50,237.70 L734.75,225.04 L756.00,211.64 L777.25,197.48 L798.50,182.51 L819.75,166.70 L841.00,150.00 L862.25,132.36 L883.50,113.73 L904.75,94.08 L926.00,73.33 " fill="none" stroke="#2f5fa7" stroke-width="2.4" stroke-dasharray="8 6" clip-path="url(#plotClip)"/><path d="M76.00,406.67 L97.25,405.04 L118.50,403.25 L139.75,401.30 L161.00,399.16 L182.25,396.83 L203.50,394.30 L224.75,391.57 L246.00,388.62 L267.25,385.43 L288.50,382.00 L309.75,378.32 L331.00,374.37 L352.25,370.14 L373.50,365.61 L394.75,360.77 L416.00,355.60 L437.25,350.09 L458.50,344.22 L479.75,337.97 L501.00,331.31 L522.25,324.24 L543.50,316.72 L564.75,308.74 L586.00,300.27 L607.25,291.29 L628.50,281.77 L649.75,271.68 L671.00,260.99 L692.25,249.67 L713.50,237.70 L734.75,225.03 L756.00,211.64 L777.25,197.48 L798.50,182.51 L819.75,166.70 L841.00,150.00 L862.25,132.36 L883.50,113.73 L904.75,94.08 L926.00,73.33 " fill="none" stroke="#7c4fa0" stroke-width="2.4" stroke-dasharray="8 6" clip-path="url(#plotClip)"/><g clip-path="url(#plotClip)"><circle cx="76.00" cy="406.67" r="3.4" fill="white" stroke="#cc7045" stroke-width="2"/><circle cx="83.14" cy="406.14" r="3.4" fill="white" stroke="#cc7045" stroke-width="2"/><circle cx="90.29" cy="405.59" r="3.4" fill="white" stroke="#cc7045" stroke-width="2"/><circle cx="97.43" cy="405.03" r="3.4" fill="white" stroke="#cc7045" stroke-width="2"/><circle cx="104.57" cy="404.44" r="3.4" fill="white" stroke="#cc7045" stroke-width="2"/><circle cx="111.71" cy="403.84" r="3.4" fill="white" stroke="#cc7045" stroke-width="2"/><circle cx="118.86" cy="403.22" r="3.4" fill="white" stroke="#cc7045" stroke-width="2"/><circle cx="126.00" cy="402.58" r="3.4" fill="white" stroke="#cc7045" stroke-width="2"/><circle cx="133.14" cy="401.92" r="3.4" fill="white" stroke="#cc7045" stroke-width="2"/><circle cx="140.28" cy="401.24" r="3.4" fill="white" stroke="#cc7045" stroke-width="2"/><circle cx="147.43" cy="400.54" r="3.4" fill="white" stroke="#cc7045" stroke-width="2"/><circle cx="154.57" cy="399.82" r="3.4" fill="white" stroke="#cc7045" stroke-width="2"/><circle cx="161.72" cy="399.08" r="3.4" fill="white" stroke="#cc7045" stroke-width="2"/><circle cx="168.85" cy="398.32" r="3.4" fill="white" stroke="#cc7045" stroke-width="2"/><circle cx="176.00" cy="397.54" r="3.4" fill="white" stroke="#cc7045" stroke-width="2"/><circle cx="183.14" cy="396.73" r="3.4" fill="white" stroke="#cc7045" stroke-width="2"/><circle cx="190.29" cy="395.90" r="3.4" fill="white" stroke="#cc7045" stroke-width="2"/><circle cx="197.43" cy="395.05" r="3.4" fill="white" stroke="#cc7045" stroke-width="2"/><circle cx="204.57" cy="394.17" r="3.4" fill="white" stroke="#cc7045" stroke-width="2"/><circle cx="211.71" cy="393.27" r="3.4" fill="white" stroke="#cc7045" stroke-width="2"/><circle cx="218.86" cy="392.35" r="3.4" fill="white" stroke="#cc7045" stroke-width="2"/><circle cx="226.00" cy="391.40" r="3.4" fill="white" stroke="#cc7045" stroke-width="2"/><circle cx="233.14" cy="390.43" r="3.4" fill="white" stroke="#cc7045" stroke-width="2"/><circle cx="240.29" cy="389.43" r="3.4" fill="white" stroke="#cc7045" stroke-width="2"/><circle cx="247.43" cy="388.41" r="3.4" fill="white" stroke="#cc7045" stroke-width="2"/><circle cx="254.57" cy="387.36" r="3.4" fill="white" stroke="#cc7045" stroke-width="2"/><circle cx="261.71" cy="386.28" r="3.4" fill="white" stroke="#cc7045" stroke-width="2"/><circle cx="268.86" cy="385.18" r="3.4" fill="white" stroke="#cc7045" stroke-width="2"/><circle cx="276.00" cy="384.05" r="3.4" fill="white" stroke="#cc7045" stroke-width="2"/><circle cx="283.14" cy="382.89" r="3.4" fill="white" stroke="#cc7045" stroke-width="2"/><circle cx="290.28" cy="381.71" r="3.4" fill="white" stroke="#cc7045" stroke-width="2"/><circle cx="297.43" cy="380.49" r="3.4" fill="white" stroke="#cc7045" stroke-width="2"/><circle cx="304.57" cy="379.24" r="3.4" fill="white" stroke="#cc7045" stroke-width="2"/><circle cx="311.72" cy="377.97" r="3.4" fill="white" stroke="#cc7045" stroke-width="2"/><circle cx="318.85" cy="376.66" r="3.4" fill="white" stroke="#cc7045" stroke-width="2"/><circle cx="326.00" cy="375.33" r="3.4" fill="white" stroke="#cc7045" stroke-width="2"/><circle cx="333.14" cy="373.96" r="3.4" fill="white" stroke="#cc7045" stroke-width="2"/><circle cx="340.29" cy="372.56" r="3.4" fill="white" stroke="#cc7045" stroke-width="2"/><circle cx="347.43" cy="371.13" r="3.4" fill="white" stroke="#cc7045" stroke-width="2"/><circle cx="354.57" cy="369.66" r="3.4" fill="white" stroke="#cc7045" stroke-width="2"/><circle cx="361.71" cy="368.16" r="3.4" fill="white" stroke="#cc7045" stroke-width="2"/><circle cx="368.86" cy="366.63" r="3.4" fill="white" stroke="#cc7045" stroke-width="2"/><circle cx="376.00" cy="365.06" r="3.4" fill="white" stroke="#cc7045" stroke-width="2"/><circle cx="383.14" cy="363.45" r="3.4" fill="white" stroke="#cc7045" stroke-width="2"/><circle cx="390.28" cy="361.82" r="3.4" fill="white" stroke="#cc7045" stroke-width="2"/><circle cx="397.43" cy="360.14" r="3.4" fill="white" stroke="#cc7045" stroke-width="2"/><circle cx="404.57" cy="358.43" r="3.4" fill="white" stroke="#cc7045" stroke-width="2"/><circle cx="411.71" cy="356.67" r="3.4" fill="white" stroke="#cc7045" stroke-width="2"/><circle cx="418.86" cy="354.88" r="3.4" fill="white" stroke="#cc7045" stroke-width="2"/><circle cx="426.00" cy="353.05" r="3.4" fill="white" stroke="#cc7045" stroke-width="2"/><circle cx="433.14" cy="351.19" r="3.4" fill="white" stroke="#cc7045" stroke-width="2"/><circle cx="440.28" cy="349.28" r="3.4" fill="white" stroke="#cc7045" stroke-width="2"/><circle cx="447.43" cy="347.33" r="3.4" fill="white" stroke="#cc7045" stroke-width="2"/><circle cx="454.57" cy="345.33" r="3.4" fill="white" stroke="#cc7045" stroke-width="2"/><circle cx="461.72" cy="343.30" r="3.4" fill="white" stroke="#cc7045" stroke-width="2"/><circle cx="468.86" cy="341.22" r="3.4" fill="white" stroke="#cc7045" stroke-width="2"/><circle cx="476.00" cy="339.10" r="3.4" fill="white" stroke="#cc7045" stroke-width="2"/><circle cx="483.14" cy="336.93" r="3.4" fill="white" stroke="#cc7045" stroke-width="2"/><circle cx="490.29" cy="334.72" r="3.4" fill="white" stroke="#cc7045" stroke-width="2"/><circle cx="497.43" cy="332.46" r="3.4" fill="white" stroke="#cc7045" stroke-width="2"/><circle cx="504.57" cy="330.15" r="3.4" fill="white" stroke="#cc7045" stroke-width="2"/><circle cx="511.71" cy="327.80" r="3.4" fill="white" stroke="#cc7045" stroke-width="2"/><circle cx="518.86" cy="325.40" r="3.4" fill="white" stroke="#cc7045" stroke-width="2"/><circle cx="526.00" cy="322.94" r="3.4" fill="white" stroke="#cc7045" stroke-width="2"/><circle cx="533.14" cy="320.44" r="3.4" fill="white" stroke="#cc7045" stroke-width="2"/><circle cx="540.28" cy="317.89" r="3.4" fill="white" stroke="#cc7045" stroke-width="2"/><circle cx="547.43" cy="315.28" r="3.4" fill="white" stroke="#cc7045" stroke-width="2"/><circle cx="554.57" cy="312.62" r="3.4" fill="white" stroke="#cc7045" stroke-width="2"/><circle cx="561.72" cy="309.91" r="3.4" fill="white" stroke="#cc7045" stroke-width="2"/><circle cx="568.86" cy="307.14" r="3.4" fill="white" stroke="#cc7045" stroke-width="2"/><circle cx="576.00" cy="304.32" r="3.4" fill="white" stroke="#cc7045" stroke-width="2"/><circle cx="583.14" cy="301.44" r="3.4" fill="white" stroke="#cc7045" stroke-width="2"/><circle cx="590.29" cy="298.50" r="3.4" fill="white" stroke="#cc7045" stroke-width="2"/><circle cx="597.43" cy="295.51" r="3.4" fill="white" stroke="#cc7045" stroke-width="2"/><circle cx="604.57" cy="292.45" r="3.4" fill="white" stroke="#cc7045" stroke-width="2"/><circle cx="611.72" cy="289.33" r="3.4" fill="white" stroke="#cc7045" stroke-width="2"/><circle cx="618.86" cy="286.16" r="3.4" fill="white" stroke="#cc7045" stroke-width="2"/><circle cx="626.00" cy="282.92" r="3.4" fill="white" stroke="#cc7045" stroke-width="2"/><circle cx="633.14" cy="279.61" r="3.4" fill="white" stroke="#cc7045" stroke-width="2"/><circle cx="640.29" cy="276.24" r="3.4" fill="white" stroke="#cc7045" stroke-width="2"/><circle cx="647.43" cy="272.81" r="3.4" fill="white" stroke="#cc7045" stroke-width="2"/><circle cx="654.57" cy="269.31" r="3.4" fill="white" stroke="#cc7045" stroke-width="2"/><circle cx="661.71" cy="265.74" r="3.4" fill="white" stroke="#cc7045" stroke-width="2"/><circle cx="668.86" cy="262.10" r="3.4" fill="white" stroke="#cc7045" stroke-width="2"/><circle cx="676.00" cy="258.39" r="3.4" fill="white" stroke="#cc7045" stroke-width="2"/><circle cx="683.15" cy="254.60" r="3.4" fill="white" stroke="#cc7045" stroke-width="2"/><circle cx="690.28" cy="250.75" r="3.4" fill="white" stroke="#cc7045" stroke-width="2"/><circle cx="697.43" cy="246.82" r="3.4" fill="white" stroke="#cc7045" stroke-width="2"/><circle cx="704.57" cy="242.82" r="3.4" fill="white" stroke="#cc7045" stroke-width="2"/><circle cx="711.72" cy="238.74" r="3.4" fill="white" stroke="#cc7045" stroke-width="2"/><circle cx="718.86" cy="234.58" r="3.4" fill="white" stroke="#cc7045" stroke-width="2"/><circle cx="726.00" cy="230.34" r="3.4" fill="white" stroke="#cc7045" stroke-width="2"/><circle cx="733.14" cy="226.02" r="3.4" fill="white" stroke="#cc7045" stroke-width="2"/><circle cx="740.29" cy="221.62" r="3.4" fill="white" stroke="#cc7045" stroke-width="2"/><circle cx="747.43" cy="217.14" r="3.4" fill="white" stroke="#cc7045" stroke-width="2"/><circle cx="754.57" cy="212.57" r="3.4" fill="white" stroke="#cc7045" stroke-width="2"/><circle cx="761.71" cy="207.91" r="3.4" fill="white" stroke="#cc7045" stroke-width="2"/><circle cx="768.86" cy="203.17" r="3.4" fill="white" stroke="#cc7045" stroke-width="2"/><circle cx="776.00" cy="198.34" r="3.4" fill="white" stroke="#cc7045" stroke-width="2"/><circle cx="783.14" cy="193.41" r="3.4" fill="white" stroke="#cc7045" stroke-width="2"/><circle cx="790.29" cy="188.40" r="3.4" fill="white" stroke="#cc7045" stroke-width="2"/><circle cx="797.43" cy="183.29" r="3.4" fill="white" stroke="#cc7045" stroke-width="2"/><circle cx="804.57" cy="178.09" r="3.4" fill="white" stroke="#cc7045" stroke-width="2"/><circle cx="811.71" cy="172.78" r="3.4" fill="white" stroke="#cc7045" stroke-width="2"/><circle cx="818.86" cy="167.38" r="3.4" fill="white" stroke="#cc7045" stroke-width="2"/><circle cx="826.00" cy="161.88" r="3.4" fill="white" stroke="#cc7045" stroke-width="2"/><circle cx="833.15" cy="156.28" r="3.4" fill="white" stroke="#cc7045" stroke-width="2"/><circle cx="840.28" cy="150.58" r="3.4" fill="white" stroke="#cc7045" stroke-width="2"/><circle cx="847.43" cy="144.76" r="3.4" fill="white" stroke="#cc7045" stroke-width="2"/><circle cx="854.57" cy="138.85" r="3.4" fill="white" stroke="#cc7045" stroke-width="2"/><circle cx="861.72" cy="132.82" r="3.4" fill="white" stroke="#cc7045" stroke-width="2"/><circle cx="868.86" cy="126.68" r="3.4" fill="white" stroke="#cc7045" stroke-width="2"/><circle cx="876.00" cy="120.43" r="3.4" fill="white" stroke="#cc7045" stroke-width="2"/><circle cx="883.14" cy="114.06" r="3.4" fill="white" stroke="#cc7045" stroke-width="2"/><circle cx="890.29" cy="107.58" r="3.4" fill="white" stroke="#cc7045" stroke-width="2"/><circle cx="897.43" cy="100.97" r="3.4" fill="white" stroke="#cc7045" stroke-width="2"/><circle cx="904.57" cy="94.25" r="3.4" fill="white" stroke="#cc7045" stroke-width="2"/><circle cx="911.71" cy="87.41" r="3.4" fill="white" stroke="#cc7045" stroke-width="2"/><circle cx="918.86" cy="80.44" r="3.4" fill="white" stroke="#cc7045" stroke-width="2"/><circle cx="926.00" cy="73.34" r="3.4" fill="white" stroke="#cc7045" stroke-width="2"/><circle cx="76.00" cy="406.67" r="3.4" fill="white" stroke="#2f5fa7" stroke-width="2"/><circle cx="97.25" cy="405.04" r="3.4" fill="white" stroke="#2f5fa7" stroke-width="2"/><circle cx="118.50" cy="403.25" r="3.4" fill="white" stroke="#2f5fa7" stroke-width="2"/><circle cx="139.75" cy="401.30" r="3.4" fill="white" stroke="#2f5fa7" stroke-width="2"/><circle cx="161.00" cy="399.16" r="3.4" fill="white" stroke="#2f5fa7" stroke-width="2"/><circle cx="182.25" cy="396.83" r="3.4" fill="white" stroke="#2f5fa7" stroke-width="2"/><circle cx="203.50" cy="394.30" r="3.4" fill="white" stroke="#2f5fa7" stroke-width="2"/><circle cx="224.75" cy="391.57" r="3.4" fill="white" stroke="#2f5fa7" stroke-width="2"/><circle cx="246.00" cy="388.62" r="3.4" fill="white" stroke="#2f5fa7" stroke-width="2"/><circle cx="267.25" cy="385.43" r="3.4" fill="white" stroke="#2f5fa7" stroke-width="2"/><circle cx="288.50" cy="382.00" r="3.4" fill="white" stroke="#2f5fa7" stroke-width="2"/><circle cx="309.75" cy="378.32" r="3.4" fill="white" stroke="#2f5fa7" stroke-width="2"/><circle cx="331.00" cy="374.37" r="3.4" fill="white" stroke="#2f5fa7" stroke-width="2"/><circle cx="352.25" cy="370.14" r="3.4" fill="white" stroke="#2f5fa7" stroke-width="2"/><circle cx="373.50" cy="365.61" r="3.4" fill="white" stroke="#2f5fa7" stroke-width="2"/><circle cx="394.75" cy="360.77" r="3.4" fill="white" stroke="#2f5fa7" stroke-width="2"/><circle cx="416.00" cy="355.60" r="3.4" fill="white" stroke="#2f5fa7" stroke-width="2"/><circle cx="437.25" cy="350.09" r="3.4" fill="white" stroke="#2f5fa7" stroke-width="2"/><circle cx="458.50" cy="344.22" r="3.4" fill="white" stroke="#2f5fa7" stroke-width="2"/><circle cx="479.75" cy="337.97" r="3.4" fill="white" stroke="#2f5fa7" stroke-width="2"/><circle cx="501.00" cy="331.31" r="3.4" fill="white" stroke="#2f5fa7" stroke-width="2"/><circle cx="522.25" cy="324.24" r="3.4" fill="white" stroke="#2f5fa7" stroke-width="2"/><circle cx="543.50" cy="316.72" r="3.4" fill="white" stroke="#2f5fa7" stroke-width="2"/><circle cx="564.75" cy="308.74" r="3.4" fill="white" stroke="#2f5fa7" stroke-width="2"/><circle cx="586.00" cy="300.27" r="3.4" fill="white" stroke="#2f5fa7" stroke-width="2"/><circle cx="607.25" cy="291.29" r="3.4" fill="white" stroke="#2f5fa7" stroke-width="2"/><circle cx="628.50" cy="281.77" r="3.4" fill="white" stroke="#2f5fa7" stroke-width="2"/><circle cx="649.75" cy="271.68" r="3.4" fill="white" stroke="#2f5fa7" stroke-width="2"/><circle cx="671.00" cy="260.99" r="3.4" fill="white" stroke="#2f5fa7" stroke-width="2"/><circle cx="692.25" cy="249.67" r="3.4" fill="white" stroke="#2f5fa7" stroke-width="2"/><circle cx="713.50" cy="237.70" r="3.4" fill="white" stroke="#2f5fa7" stroke-width="2"/><circle cx="734.75" cy="225.04" r="3.4" fill="white" stroke="#2f5fa7" stroke-width="2"/><circle cx="756.00" cy="211.64" r="3.4" fill="white" stroke="#2f5fa7" stroke-width="2"/><circle cx="777.25" cy="197.48" r="3.4" fill="white" stroke="#2f5fa7" stroke-width="2"/><circle cx="798.50" cy="182.51" r="3.4" fill="white" stroke="#2f5fa7" stroke-width="2"/><circle cx="819.75" cy="166.70" r="3.4" fill="white" stroke="#2f5fa7" stroke-width="2"/><circle cx="841.00" cy="150.00" r="3.4" fill="white" stroke="#2f5fa7" stroke-width="2"/><circle cx="862.25" cy="132.36" r="3.4" fill="white" stroke="#2f5fa7" stroke-width="2"/><circle cx="883.50" cy="113.73" r="3.4" fill="white" stroke="#2f5fa7" stroke-width="2"/><circle cx="904.75" cy="94.08" r="3.4" fill="white" stroke="#2f5fa7" stroke-width="2"/><circle cx="926.00" cy="73.33" r="3.4" fill="white" stroke="#2f5fa7" stroke-width="2"/><circle cx="76.00" cy="406.67" r="3.4" fill="white" stroke="#7c4fa0" stroke-width="2"/><circle cx="97.25" cy="405.04" r="3.4" fill="white" stroke="#7c4fa0" stroke-width="2"/><circle cx="118.50" cy="403.25" r="3.4" fill="white" stroke="#7c4fa0" stroke-width="2"/><circle cx="139.75" cy="401.30" r="3.4" fill="white" stroke="#7c4fa0" stroke-width="2"/><circle cx="161.00" cy="399.16" r="3.4" fill="white" stroke="#7c4fa0" stroke-width="2"/><circle cx="182.25" cy="396.83" r="3.4" fill="white" stroke="#7c4fa0" stroke-width="2"/><circle cx="203.50" cy="394.30" r="3.4" fill="white" stroke="#7c4fa0" stroke-width="2"/><circle cx="224.75" cy="391.57" r="3.4" fill="white" stroke="#7c4fa0" stroke-width="2"/><circle cx="246.00" cy="388.62" r="3.4" fill="white" stroke="#7c4fa0" stroke-width="2"/><circle cx="267.25" cy="385.43" r="3.4" fill="white" stroke="#7c4fa0" stroke-width="2"/><circle cx="288.50" cy="382.00" r="3.4" fill="white" stroke="#7c4fa0" stroke-width="2"/><circle cx="309.75" cy="378.32" r="3.4" fill="white" stroke="#7c4fa0" stroke-width="2"/><circle cx="331.00" cy="374.37" r="3.4" fill="white" stroke="#7c4fa0" stroke-width="2"/><circle cx="352.25" cy="370.14" r="3.4" fill="white" stroke="#7c4fa0" stroke-width="2"/><circle cx="373.50" cy="365.61" r="3.4" fill="white" stroke="#7c4fa0" stroke-width="2"/><circle cx="394.75" cy="360.77" r="3.4" fill="white" stroke="#7c4fa0" stroke-width="2"/><circle cx="416.00" cy="355.60" r="3.4" fill="white" stroke="#7c4fa0" stroke-width="2"/><circle cx="437.25" cy="350.09" r="3.4" fill="white" stroke="#7c4fa0" stroke-width="2"/><circle cx="458.50" cy="344.22" r="3.4" fill="white" stroke="#7c4fa0" stroke-width="2"/><circle cx="479.75" cy="337.97" r="3.4" fill="white" stroke="#7c4fa0" stroke-width="2"/><circle cx="501.00" cy="331.31" r="3.4" fill="white" stroke="#7c4fa0" stroke-width="2"/><circle cx="522.25" cy="324.24" r="3.4" fill="white" stroke="#7c4fa0" stroke-width="2"/><circle cx="543.50" cy="316.72" r="3.4" fill="white" stroke="#7c4fa0" stroke-width="2"/><circle cx="564.75" cy="308.74" r="3.4" fill="white" stroke="#7c4fa0" stroke-width="2"/><circle cx="586.00" cy="300.27" r="3.4" fill="white" stroke="#7c4fa0" stroke-width="2"/><circle cx="607.25" cy="291.29" r="3.4" fill="white" stroke="#7c4fa0" stroke-width="2"/><circle cx="628.50" cy="281.77" r="3.4" fill="white" stroke="#7c4fa0" stroke-width="2"/><circle cx="649.75" cy="271.68" r="3.4" fill="white" stroke="#7c4fa0" stroke-width="2"/><circle cx="671.00" cy="260.99" r="3.4" fill="white" stroke="#7c4fa0" stroke-width="2"/><circle cx="692.25" cy="249.67" r="3.4" fill="white" stroke="#7c4fa0" stroke-width="2"/><circle cx="713.50" cy="237.70" r="3.4" fill="white" stroke="#7c4fa0" stroke-width="2"/><circle cx="734.75" cy="225.03" r="3.4" fill="white" stroke="#7c4fa0" stroke-width="2"/><circle cx="756.00" cy="211.64" r="3.4" fill="white" stroke="#7c4fa0" stroke-width="2"/><circle cx="777.25" cy="197.48" r="3.4" fill="white" stroke="#7c4fa0" stroke-width="2"/><circle cx="798.50" cy="182.51" r="3.4" fill="white" stroke="#7c4fa0" stroke-width="2"/><circle cx="819.75" cy="166.70" r="3.4" fill="white" stroke="#7c4fa0" stroke-width="2"/><circle cx="841.00" cy="150.00" r="3.4" fill="white" stroke="#7c4fa0" stroke-width="2"/><circle cx="862.25" cy="132.36" r="3.4" fill="white" stroke="#7c4fa0" stroke-width="2"/><circle cx="883.50" cy="113.73" r="3.4" fill="white" stroke="#7c4fa0" stroke-width="2"/><circle cx="904.75" cy="94.08" r="3.4" fill="white" stroke="#7c4fa0" stroke-width="2"/><circle cx="926.00" cy="73.33" r="3.4" fill="white" stroke="#7c4fa0" stroke-width="2"/></g><line x1="76" x2="100" y1="494" y2="494" stroke="#3d7c55" stroke-width="3"/><text x="108" y="499">Точное решение</text><line x1="536" x2="560" y1="494" y2="494" stroke="#cc7045" stroke-width="3"/><text x="568" y="499">Метод Эйлера</text><line x1="76" x2="100" y1="514" y2="514" stroke="#2f5fa7" stroke-width="3"/><text x="108" y="519">Метод Рунге-Кутта 4-го порядка</text><line x1="536" x2="560" y1="514" y2="514" stroke="#7c4fa0" stroke-width="3"/><text x="568" y="519">Метод Адамса (предиктор-корректор)</text></svg>