<svg xmlns="http://www.w3.org/2000/svg" width="960" height="560" viewBox="0 0 960 560" fill="none">
<rect width="960" height="560" fill="#f6f1e8"/>
<text x="56" y="34" fill="#332d28" font-size="24" font-family="Menlo, Consolas, monospace">График: 2x^3 - 1.89x^2 - 5x + 2.34</text>
<rect x="56" y="56" width="848" height="448" rx="18" fill="#fffdf8" stroke="#d9d0c3"/>
<line x1="56" y1="56" x2="56" y2="504" stroke="#ebe3d7" stroke-width="1"/>
<text x="56" y="522" fill="#7b7267" font-size="11" text-anchor="middle">-1.50</text>
<line x1="162.00000000000023" y1="56" x2="162.00000000000023" y2="504" stroke="#ebe3d7" stroke-width="1"/>
<text x="162.00000000000023" y="522" fill="#7b7267" font-size="11" text-anchor="middle">-1.46</text>
<line x1="267.9999999999999" y1="56" x2="267.9999999999999" y2="504" stroke="#ebe3d7" stroke-width="1"/>
<text x="267.9999999999999" y="522" fill="#7b7267" font-size="11" text-anchor="middle">-1.43</text>
<line x1="374.00000000000006" y1="56" x2="374.00000000000006" y2="504" stroke="#ebe3d7" stroke-width="1"/>
<text x="374.00000000000006" y="522" fill="#7b7267" font-size="11" text-anchor="middle">-1.39</text>
<line x1="479.9999999999997" y1="56" x2="479.9999999999997" y2="504" stroke="#ebe3d7" stroke-width="1"/>
<text x="479.9999999999997" y="522" fill="#7b7267" font-size="11" text-anchor="middle">-1.35</text>
<line x1="585.9999999999999" y1="56" x2="585.9999999999999" y2="504" stroke="#ebe3d7" stroke-width="1"/>
<text x="585.9999999999999" y="522" fill="#7b7267" font-size="11" text-anchor="middle">-1.31</text>
<line x1="692.0000000000001" y1="56" x2="692.0000000000001" y2="504" stroke="#ebe3d7" stroke-width="1"/>
<text x="692.0000000000001" y="522" fill="#7b7267" font-size="11" text-anchor="middle">-1.27</text>
<line x1="798.0000000000003" y1="56" x2="798.0000000000003" y2="504" stroke="#ebe3d7" stroke-width="1"/>
<text x="798.0000000000003" y="522" fill="#7b7267" font-size="11" text-anchor="middle">-1.24</text>
<line x1="904" y1="56" x2="904" y2="504" stroke="#ebe3d7" stroke-width="1"/>
<text x="904" y="522" fill="#7b7267" font-size="11" text-anchor="middle">-1.20</text>
<line x1="56" y1="504" x2="904" y2="504" stroke="#ebe3d7" stroke-width="1"/>
<text x="46" y="508" fill="#7b7267" font-size="11" text-anchor="end">-2.16</text>
<line x1="56" y1="429.33333333333337" x2="904" y2="429.33333333333337" stroke="#ebe3d7" stroke-width="1"/>
<text x="46" y="433.33333333333337" fill="#7b7267" font-size="11" text-anchor="end">-1.28</text>
<line x1="56" y1="354.6666666666667" x2="904" y2="354.6666666666667" stroke="#ebe3d7" stroke-width="1"/>
<text x="46" y="358.6666666666667" fill="#7b7267" font-size="11" text-anchor="end">-0.39</text>
<line x1="56" y1="280" x2="904" y2="280" stroke="#ebe3d7" stroke-width="1"/>
<text x="46" y="284" fill="#7b7267" font-size="11" text-anchor="end">0.50</text>
<line x1="56" y1="205.33333333333337" x2="904" y2="205.33333333333337" stroke="#ebe3d7" stroke-width="1"/>
<text x="46" y="209.33333333333337" fill="#7b7267" font-size="11" text-anchor="end">1.39</text>
<line x1="56" y1="130.66666666666674" x2="904" y2="130.66666666666674" stroke="#ebe3d7" stroke-width="1"/>
<text x="46" y="134.66666666666674" fill="#7b7267" font-size="11" text-anchor="end">2.27</text>
<line x1="56" y1="56" x2="904" y2="56" stroke="#ebe3d7" stroke-width="1"/>
<text x="46" y="60" fill="#7b7267" font-size="11" text-anchor="end">3.16</text>
<line x1="56" y1="322.06231102931514" x2="904" y2="322.06231102931514" stroke="#9a8f82" stroke-width="1.4"/>
<text x="892" y="314.06231102931514" fill="#5d564f" font-size="12">x</text>
<text x="56" y="538" fill="#5d564f" font-size="13">x: [-1.50, -1.20]</text>
<text x="724" y="42" fill="#5d564f" font-size="14">y: [-2.16, 3.16]</text>
<path d="M 56.00 419.87 L 57.06 419.42 L 58.12 418.97 L 59.18 418.53 L 60.24 418.08 L 61.30 417.63 L 62.36 417.19 L 63.42 416.74 L 64.48 416.30 L 65.54 415.85 L 66.60 415.41 L 67.66 414.96 L 68.72 414.52 L 69.78 414.08 L 70.84 413.63 L 71.90 413.19 L 72.96 412.75 L 74.02 412.30 L 75.08 411.86 L 76.14 411.42 L 77.20 410.98 L 78.26 410.54 L 79.32 410.09 L 80.38 409.65 L 81.44 409.21 L 82.50 408.77 L 83.56 408.33 L 84.62 407.89 L 85.68 407.45 L 86.74 407.01 L 87.80 406.57 L 88.86 406.13 L 89.92 405.69 L 90.98 405.25 L 92.04 404.82 L 93.10 404.38 L 94.16 403.94 L 95.22 403.50 L 96.28 403.06 L 97.34 402.63 L 98.40 402.19 L 99.46 401.75 L 100.52 401.32 L 101.58 400.88 L 102.64 400.44 L 103.70 400.01 L 104.76 399.57 L 105.82 399.14 L 106.88 398.70 L 107.94 398.27 L 109.00 397.83 L 110.06 397.40 L 111.12 396.97 L 112.18 396.53 L 113.24 396.10 L 114.30 395.67 L 115.36 395.23 L 116.42 394.80 L 117.48 394.37 L 118.54 393.94 L 119.60 393.51 L 120.66 393.07 L 121.72 392.64 L 122.78 392.21 L 123.84 391.78 L 124.90 391.35 L 125.96 390.92 L 127.02 390.49 L 128.08 390.06 L 129.14 389.63 L 130.20 389.20 L 131.26 388.77 L 132.32 388.34 L 133.38 387.91 L 134.44 387.49 L 135.50 387.06 L 136.56 386.63 L 137.62 386.20 L 138.68 385.78 L 139.74 385.35 L 140.80 384.92 L 141.86 384.50 L 142.92 384.07 L 143.98 383.64 L 145.04 383.22 L 146.10 382.79 L 147.16 382.37 L 148.22 381.94 L 149.28 381.52 L 150.34 381.09 L 151.40 380.67 L 152.46 380.24 L 153.52 379.82 L 154.58 379.40 L 155.64 378.97 L 156.70 378.55 L 157.76 378.13 L 158.82 377.71 L 159.88 377.28 L 160.94 376.86 L 162.00 376.44 L 163.06 376.02 L 164.12 375.60 L 165.18 375.18 L 166.24 374.76 L 167.30 374.34 L 168.36 373.92 L 169.42 373.50 L 170.48 373.08 L 171.54 372.66 L 172.60 372.24 L 173.66 371.82 L 174.72 371.40 L 175.78 370.98 L 176.84 370.56 L 177.90 370.15 L 178.96 369.73 L 180.02 369.31 L 181.08 368.89 L 182.14 368.48 L 183.20 368.06 L 184.26 367.64 L 185.32 367.23 L 186.38 366.81 L 187.44 366.40 L 188.50 365.98 L 189.56 365.56 L 190.62 365.15 L 191.68 364.74 L 192.74 364.32 L 193.80 363.91 L 194.86 363.49 L 195.92 363.08 L 196.98 362.67 L 198.04 362.25 L 199.10 361.84 L 200.16 361.43 L 201.22 361.01 L 202.28 360.60 L 203.34 360.19 L 204.40 359.78 L 205.46 359.37 L 206.52 358.96 L 207.58 358.55 L 208.64 358.14 L 209.70 357.72 L 210.76 357.31 L 211.82 356.90 L 212.88 356.50 L 213.94 356.09 L 215.00 355.68 L 216.06 355.27 L 217.12 354.86 L 218.18 354.45 L 219.24 354.04 L 220.30 353.63 L 221.36 353.23 L 222.42 352.82 L 223.48 352.41 L 224.54 352.01 L 225.60 351.60 L 226.66 351.19 L 227.72 350.79 L 228.78 350.38 L 229.84 349.98 L 230.90 349.57 L 231.96 349.16 L 233.02 348.76 L 234.08 348.35 L 235.14 347.95 L 236.20 347.55 L 237.26 347.14 L 238.32 346.74 L 239.38 346.34 L 240.44 345.93 L 241.50 345.53 L 242.56 345.13 L 243.62 344.72 L 244.68 344.32 L 245.74 343.92 L 246.80 343.52 L 247.86 343.12 L 248.92 342.72 L 249.98 342.32 L 251.04 341.91 L 252.10 341.51 L 253.16 341.11 L 254.22 340.71 L 255.28 340.31 L 256.34 339.91 L 257.40 339.52 L 258.46 339.12 L 259.52 338.72 L 260.58 338.32 L 261.64 337.92 L 262.70 337.52 L 263.76 337.13 L 264.82 336.73 L 265.88 336.33 L 266.94 335.93 L 268.00 335.54 L 269.06 335.14 L 270.12 334.74 L 271.18 334.35 L 272.24 333.95 L 273.30 333.56 L 274.36 333.16 L 275.42 332.77 L 276.48 332.37 L 277.54 331.98 L 278.60 331.58 L 279.66 331.19 L 280.72 330.80 L 281.78 330.40 L 282.84 330.01 L 283.90 329.62 L 284.96 329.22 L 286.02 328.83 L 287.08 328.44 L 288.14 328.05 L 289.20 327.65 L 290.26 327.26 L 291.32 326.87 L 292.38 326.48 L 293.44 326.09 L 294.50 325.70 L 295.56 325.31 L 296.62 324.92 L 297.68 324.53 L 298.74 324.14 L 299.80 323.75 L 300.86 323.36 L 301.92 322.97 L 302.98 322.58 L 304.04 322.20 L 305.10 321.81 L 306.16 321.42 L 307.22 321.03 L 308.28 320.64 L 309.34 320.26 L 310.40 319.87 L 311.46 319.48 L 312.52 319.10 L 313.58 318.71 L 314.64 318.33 L 315.70 317.94 L 316.76 317.55 L 317.82 317.17 L 318.88 316.78 L 319.94 316.40 L 321.00 316.02 L 322.06 315.63 L 323.12 315.25 L 324.18 314.86 L 325.24 314.48 L 326.30 314.10 L 327.36 313.71 L 328.42 313.33 L 329.48 312.95 L 330.54 312.57 L 331.60 312.18 L 332.66 311.80 L 333.72 311.42 L 334.78 311.04 L 335.84 310.66 L 336.90 310.28 L 337.96 309.90 L 339.02 309.52 L 340.08 309.14 L 341.14 308.76 L 342.20 308.38 L 343.26 308.00 L 344.32 307.62 L 345.38 307.24 L 346.44 306.86 L 347.50 306.48 L 348.56 306.11 L 349.62 305.73 L 350.68 305.35 L 351.74 304.97 L 352.80 304.60 L 353.86 304.22 L 354.92 303.84 L 355.98 303.47 L 357.04 303.09 L 358.10 302.71 L 359.16 302.34 L 360.22 301.96 L 361.28 301.59 L 362.34 301.21 L 363.40 300.84 L 364.46 300.46 L 365.52 300.09 L 366.58 299.72 L 367.64 299.34 L 368.70 298.97 L 369.76 298.60 L 370.82 298.22 L 371.88 297.85 L 372.94 297.48 L 374.00 297.10 L 375.06 296.73 L 376.12 296.36 L 377.18 295.99 L 378.24 295.62 L 379.30 295.25 L 380.36 294.88 L 381.42 294.51 L 382.48 294.14 L 383.54 293.76 L 384.60 293.40 L 385.66 293.03 L 386.72 292.66 L 387.78 292.29 L 388.84 291.92 L 389.90 291.55 L 390.96 291.18 L 392.02 290.81 L 393.08 290.44 L 394.14 290.08 L 395.20 289.71 L 396.26 289.34 L 397.32 288.98 L 398.38 288.61 L 399.44 288.24 L 400.50 287.88 L 401.56 287.51 L 402.62 287.14 L 403.68 286.78 L 404.74 286.41 L 405.80 286.05 L 406.86 285.68 L 407.92 285.32 L 408.98 284.95 L 410.04 284.59 L 411.10 284.23 L 412.16 283.86 L 413.22 283.50 L 414.28 283.14 L 415.34 282.77 L 416.40 282.41 L 417.46 282.05 L 418.52 281.69 L 419.58 281.32 L 420.64 280.96 L 421.70 280.60 L 422.76 280.24 L 423.82 279.88 L 424.88 279.52 L 425.94 279.16 L 427.00 278.80 L 428.06 278.44 L 429.12 278.08 L 430.18 277.72 L 431.24 277.36 L 432.30 277.00 L 433.36 276.64 L 434.42 276.28 L 435.48 275.92 L 436.54 275.57 L 437.60 275.21 L 438.66 274.85 L 439.72 274.49 L 440.78 274.14 L 441.84 273.78 L 442.90 273.42 L 443.96 273.07 L 445.02 272.71 L 446.08 272.35 L 447.14 272.00 L 448.20 271.64 L 449.26 271.29 L 450.32 270.93 L 451.38 270.58 L 452.44 270.22 L 453.50 269.87 L 454.56 269.52 L 455.62 269.16 L 456.68 268.81 L 457.74 268.45 L 458.80 268.10 L 459.86 267.75 L 460.92 267.40 L 461.98 267.04 L 463.04 266.69 L 464.10 266.34 L 465.16 265.99 L 466.22 265.64 L 467.28 265.29 L 468.34 264.93 L 469.40 264.58 L 470.46 264.23 L 471.52 263.88 L 472.58 263.53 L 473.64 263.18 L 474.70 262.83 L 475.76 262.48 L 476.82 262.13 L 477.88 261.79 L 478.94 261.44 L 480.00 261.09 L 481.06 260.74 L 482.12 260.39 L 483.18 260.05 L 484.24 259.70 L 485.30 259.35 L 486.36 259.00 L 487.42 258.66 L 488.48 258.31 L 489.54 257.96 L 490.60 257.62 L 491.66 257.27 L 492.72 256.93 L 493.78 256.58 L 494.84 256.24 L 495.90 255.89 L 496.96 255.55 L 498.02 255.20 L 499.08 254.86 L 500.14 254.51 L 501.20 254.17 L 502.26 253.83 L 503.32 253.48 L 504.38 253.14 L 505.44 252.80 L 506.50 252.46 L 507.56 252.11 L 508.62 251.77 L 509.68 251.43 L 510.74 251.09 L 511.80 250.75 L 512.86 250.41 L 513.92 250.07 L 514.98 249.73 L 516.04 249.38 L 517.10 249.04 L 518.16 248.70 L 519.22 248.37 L 520.28 248.03 L 521.34 247.69 L 522.40 247.35 L 523.46 247.01 L 524.52 246.67 L 525.58 246.33 L 526.64 245.99 L 527.70 245.66 L 528.76 245.32 L 529.82 244.98 L 530.88 244.64 L 531.94 244.31 L 533.00 243.97 L 534.06 243.63 L 535.12 243.30 L 536.18 242.96 L 537.24 242.63 L 538.30 242.29 L 539.36 241.96 L 540.42 241.62 L 541.48 241.29 L 542.54 240.95 L 543.60 240.62 L 544.66 240.28 L 545.72 239.95 L 546.78 239.62 L 547.84 239.28 L 548.90 238.95 L 549.96 238.62 L 551.02 238.28 L 552.08 237.95 L 553.14 237.62 L 554.20 237.29 L 555.26 236.96 L 556.32 236.62 L 557.38 236.29 L 558.44 235.96 L 559.50 235.63 L 560.56 235.30 L 561.62 234.97 L 562.68 234.64 L 563.74 234.31 L 564.80 233.98 L 565.86 233.65 L 566.92 233.32 L 567.98 232.99 L 569.04 232.66 L 570.10 232.34 L 571.16 232.01 L 572.22 231.68 L 573.28 231.35 L 574.34 231.02 L 575.40 230.70 L 576.46 230.37 L 577.52 230.04 L 578.58 229.72 L 579.64 229.39 L 580.70 229.06 L 581.76 228.74 L 582.82 228.41 L 583.88 228.09 L 584.94 227.76 L 586.00 227.44 L 587.06 227.11 L 588.12 226.79 L 589.18 226.46 L 590.24 226.14 L 591.30 225.82 L 592.36 225.49 L 593.42 225.17 L 594.48 224.85 L 595.54 224.52 L 596.60 224.20 L 597.66 223.88 L 598.72 223.56 L 599.78 223.23 L 600.84 222.91 L 601.90 222.59 L 602.96 222.27 L 604.02 221.95 L 605.08 221.63 L 606.14 221.31 L 607.20 220.99 L 608.26 220.67 L 609.32 220.35 L 610.38 220.03 L 611.44 219.71 L 612.50 219.39 L 613.56 219.07 L 614.62 218.75 L 615.68 218.43 L 616.74 218.11 L 617.80 217.79 L 618.86 217.48 L 619.92 217.16 L 620.98 216.84 L 622.04 216.52 L 623.10 216.21 L 624.16 215.89 L 625.22 215.57 L 626.28 215.26 L 627.34 214.94 L 628.40 214.63 L 629.46 214.31 L 630.52 214.00 L 631.58 213.68 L 632.64 213.37 L 633.70 213.05 L 634.76 212.74 L 635.82 212.42 L 636.88 212.11 L 637.94 211.79 L 639.00 211.48 L 640.06 211.17 L 641.12 210.85 L 642.18 210.54 L 643.24 210.23 L 644.30 209.92 L 645.36 209.61 L 646.42 209.29 L 647.48 208.98 L 648.54 208.67 L 649.60 208.36 L 650.66 208.05 L 651.72 207.74 L 652.78 207.43 L 653.84 207.12 L 654.90 206.81 L 655.96 206.50 L 657.02 206.19 L 658.08 205.88 L 659.14 205.57 L 660.20 205.26 L 661.26 204.95 L 662.32 204.64 L 663.38 204.33 L 664.44 204.03 L 665.50 203.72 L 666.56 203.41 L 667.62 203.10 L 668.68 202.80 L 669.74 202.49 L 670.80 202.18 L 671.86 201.88 L 672.92 201.57 L 673.98 201.26 L 675.04 200.96 L 676.10 200.65 L 677.16 200.35 L 678.22 200.04 L 679.28 199.74 L 680.34 199.43 L 681.40 199.13 L 682.46 198.82 L 683.52 198.52 L 684.58 198.22 L 685.64 197.91 L 686.70 197.61 L 687.76 197.31 L 688.82 197.00 L 689.88 196.70 L 690.94 196.40 L 692.00 196.10 L 693.06 195.79 L 694.12 195.49 L 695.18 195.19 L 696.24 194.89 L 697.30 194.59 L 698.36 194.29 L 699.42 193.99 L 700.48 193.69 L 701.54 193.39 L 702.60 193.09 L 703.66 192.79 L 704.72 192.49 L 705.78 192.19 L 706.84 191.89 L 707.90 191.59 L 708.96 191.29 L 710.02 190.99 L 711.08 190.70 L 712.14 190.40 L 713.20 190.10 L 714.26 189.80 L 715.32 189.51 L 716.38 189.21 L 717.44 188.91 L 718.50 188.62 L 719.56 188.32 L 720.62 188.02 L 721.68 187.73 L 722.74 187.43 L 723.80 187.14 L 724.86 186.84 L 725.92 186.55 L 726.98 186.25 L 728.04 185.96 L 729.10 185.66 L 730.16 185.37 L 731.22 185.08 L 732.28 184.78 L 733.34 184.49 L 734.40 184.19 L 735.46 183.90 L 736.52 183.61 L 737.58 183.32 L 738.64 183.02 L 739.70 182.73 L 740.76 182.44 L 741.82 182.15 L 742.88 181.86 L 743.94 181.57 L 745.00 181.28 L 746.06 180.98 L 747.12 180.69 L 748.18 180.40 L 749.24 180.11 L 750.30 179.82 L 751.36 179.53 L 752.42 179.25 L 753.48 178.96 L 754.54 178.67 L 755.60 178.38 L 756.66 178.09 L 757.72 177.80 L 758.78 177.51 L 759.84 177.23 L 760.90 176.94 L 761.96 176.65 L 763.02 176.36 L 764.08 176.08 L 765.14 175.79 L 766.20 175.50 L 767.26 175.22 L 768.32 174.93 L 769.38 174.65 L 770.44 174.36 L 771.50 174.07 L 772.56 173.79 L 773.62 173.50 L 774.68 173.22 L 775.74 172.94 L 776.80 172.65 L 777.86 172.37 L 778.92 172.08 L 779.98 171.80 L 781.04 171.52 L 782.10 171.23 L 783.16 170.95 L 784.22 170.67 L 785.28 170.39 L 786.34 170.10 L 787.40 169.82 L 788.46 169.54 L 789.52 169.26 L 790.58 168.98 L 791.64 168.69 L 792.70 168.41 L 793.76 168.13 L 794.82 167.85 L 795.88 167.57 L 796.94 167.29 L 798.00 167.01 L 799.06 166.73 L 800.12 166.45 L 801.18 166.17 L 802.24 165.90 L 803.30 165.62 L 804.36 165.34 L 805.42 165.06 L 806.48 164.78 L 807.54 164.50 L 808.60 164.23 L 809.66 163.95 L 810.72 163.67 L 811.78 163.39 L 812.84 163.12 L 813.90 162.84 L 814.96 162.57 L 816.02 162.29 L 817.08 162.01 L 818.14 161.74 L 819.20 161.46 L 820.26 161.19 L 821.32 160.91 L 822.38 160.64 L 823.44 160.36 L 824.50 160.09 L 825.56 159.81 L 826.62 159.54 L 827.68 159.27 L 828.74 158.99 L 829.80 158.72 L 830.86 158.45 L 831.92 158.17 L 832.98 157.90 L 834.04 157.63 L 835.10 157.36 L 836.16 157.08 L 837.22 156.81 L 838.28 156.54 L 839.34 156.27 L 840.40 156.00 L 841.46 155.73 L 842.52 155.46 L 843.58 155.19 L 844.64 154.92 L 845.70 154.65 L 846.76 154.38 L 847.82 154.11 L 848.88 153.84 L 849.94 153.57 L 851.00 153.30 L 852.06 153.03 L 853.12 152.76 L 854.18 152.50 L 855.24 152.23 L 856.30 151.96 L 857.36 151.69 L 858.42 151.42 L 859.48 151.16 L 860.54 150.89 L 861.60 150.62 L 862.66 150.36 L 863.72 150.09 L 864.78 149.82 L 865.84 149.56 L 866.90 149.29 L 867.96 149.03 L 869.02 148.76 L 870.08 148.50 L 871.14 148.23 L 872.20 147.97 L 873.26 147.70 L 874.32 147.44 L 875.38 147.18 L 876.44 146.91 L 877.50 146.65 L 878.56 146.39 L 879.62 146.12 L 880.68 145.86 L 881.74 145.60 L 882.80 145.34 L 883.86 145.07 L 884.92 144.81 L 885.98 144.55 L 887.04 144.29 L 888.10 144.03 L 889.16 143.77 L 890.22 143.50 L 891.28 143.24 L 892.34 142.98 L 893.40 142.72 L 894.46 142.46 L 895.52 142.20 L 896.58 141.94 L 897.64 141.68 L 898.70 141.43 L 899.76 141.17 L 900.82 140.91 L 901.88 140.65 L 902.94 140.39 L 904.00 140.13" stroke="#c44938" stroke-width="2.4" fill="none"/>
<line x1="304.3235242498562" y1="56" x2="304.3235242498562" y2="504" stroke="#8f2d21" stroke-width="1" stroke-dasharray="5 5" opacity="0.55"/>
<line x1="56" y1="322.09181565715835" x2="904" y2="322.09181565715835" stroke="#8f2d21" stroke-width="1" stroke-dasharray="5 5" opacity="0.55"/>
<circle cx="304.3235242498562" cy="322.09181565715835" r="6.5" fill="#8f2d21" stroke="#fffdf8" stroke-width="2.5"/>
<circle cx="304.3235242498562" cy="322.09181565715835" r="11" fill="none" stroke="#8f2d21" stroke-width="1.2" opacity="0.35"/>
<rect x="318.3235242498562" y="288.09181565715835" width="147.6" height="24" rx="12" fill="#fffdf8" stroke="#8f2d21" stroke-width="1"/>
<text x="328.3235242498562" y="304.09181565715835" fill="#3c3129" font-size="12" font-family="Menlo, Consolas, monospace">(-1.4121, -0.0004)</text>
</svg>